<?xml version="1.0" encoding="UTF-8"?><svg id="Layer_1" xmlns="http://www.w3.org/2000/svg" viewBox="0 0 64 64"><path d="M63.92,40.58c-.11-.3-.32-.55-.6-.69,.25-.19,.42-.47,.47-.78,.02-.14,.03-.29,0-.44-.08-.45-.19-.9-.31-1.33-.04-.13-.11-.24-.18-.34-.19-.28-.48-.47-.81-.52-.17-.03-.35-.03-.53,.03-.01,0-.03,0-.04,.01l.04-.02c.17-.09,.3-.22,.4-.37,.19-.26,.26-.58,.22-.89-.02-.14-.05-.28-.13-.42-.22-.4-.45-.79-.71-1.17-.09-.13-.2-.23-.32-.31-.26-.18-.57-.25-.88-.2-.18,.03-.35,.08-.51,.19-.02,.01-.03,.02-.05,.03,.01-.01,.03-.03,.04-.04,.13-.14,.21-.29,.27-.46,.11-.32,.07-.68-.1-.98-.06-.11-.12-.22-.22-.31-.33-.31-.67-.61-1.03-.89-.12-.09-.26-.15-.39-.19-.31-.09-.64-.06-.92,.08-.15,.08-.3,.19-.41,.34,0,.01-.02,.02-.03,.04,0-.01,.01-.03,.02-.04,.08-.17,.11-.35,.11-.52,0-.33-.13-.64-.36-.88-.1-.1-.2-.19-.33-.25-.41-.2-.83-.37-1.26-.52-.12-.04-.24-.05-.36-.05-.35-.01-.68,.11-.92,.36-.12,.13-.23,.27-.29,.45,0,.02-.01,.04-.02,.06,0-.02,0-.04,0-.06,.02-.19,0-.37-.06-.54-.1-.3-.31-.56-.59-.71-.13-.07-.26-.12-.41-.14-.36-.05-.73-.07-1.1-.08l-1.6-15.55h.27c.68,0,1.23-.55,1.23-1.24s-.55-1.24-1.23-1.24H30.03c-.68,0-1.23,.55-1.23,1.24s.55,1.24,1.23,1.24h2l-.17,3c-.15-.32-.46-.54-.83-.54-.51,0-.92,.42-.92,.93v8.94c-3.47,.17-11.32,.57-12.22,.82C7.91,28.44,.22,34.56,.34,35.43l-.34,4.6,1.04,.14,2.73,3.55h1.57c.14,.35,.48,.6,.88,.6h.05s-.03,0-.05,0c-.53,.1-.87,.62-.76,1.15,.07,.35,.16,.7,.26,1.04,.16,.52,.7,.81,1.21,.65,.01,0,.02,0,.03,0,0,0-.02,0-.03,.01-.47,.26-.63,.86-.37,1.33,.18,.32,.37,.62,.57,.91,.31,.44,.92,.54,1.35,.23,.01,0,.02-.02,.04-.03-.01,.01-.02,.02-.03,.03-.36,.4-.34,1.02,.06,1.38,.26,.24,.54,.47,.82,.69,.43,.32,1.04,.23,1.36-.2,0-.01,.02-.02,.03-.04,0,.01-.01,.03-.02,.04-.22,.49-.01,1.07,.48,1.3,.32,.15,.66,.28,1,.4,.51,.17,1.06-.11,1.23-.62,0-.01,0-.02,.01-.03,0,.01,0,.02,0,.03-.06,.54,.32,1.02,.86,1.08,.35,.04,.71,.06,1.07,.06h0c.53,0,.97-.43,.97-.97,0-.01,0-.03,0-.04,0,.01,0,.03,0,.04,.11,.53,.62,.87,1.14,.76,.35-.07,.7-.16,1.04-.27,.51-.16,.79-.71,.63-1.23,0-.01-.01-.03-.02-.04,0,.02,.02,.03,.03,.05,.27,.47,.86,.63,1.33,.36,.31-.18,.61-.37,.9-.58,.43-.32,.53-.93,.22-1.36,0-.01-.02-.02-.02-.03,0,0,.02,.02,.03,.03,.4,.36,1.01,.33,1.37-.07,.24-.27,.47-.55,.68-.84,.32-.44,.22-1.05-.21-1.36-.01,0-.02-.01-.03-.02,.01,0,.02,.01,.04,.02,.49,.22,1.06,0,1.28-.49,.14-.33,.27-.66,.39-1.01,.17-.51-.11-1.06-.62-1.23-.02,0-.03,0-.05-.01,.02,0,.03,0,.05,0,.53,.06,1.01-.33,1.07-.87,.01-.13,.01-.26,.02-.38l12.8,.13,.14-.33c.07,.29,.13,.59,.22,.87,.04,.14,.12,.26,.2,.38,.19,.26,.48,.43,.79,.47,.18,.03,.36,.02,.54-.03,.02,0,.04-.01,.05-.02-.02,0-.03,.02-.05,.03-.16,.09-.29,.22-.39,.37-.19,.27-.26,.6-.2,.93,.02,.13,.06,.27,.13,.39,.22,.4,.46,.78,.73,1.15,.09,.13,.21,.23,.33,.31,.26,.18,.58,.24,.89,.18,.17-.03,.34-.09,.5-.2,.01,0,.03-.02,.04-.03-.01,.01-.02,.02-.03,.04-.13,.14-.21,.3-.26,.46-.1,.32-.06,.66,.1,.96,.06,.12,.13,.23,.24,.33,.33,.31,.68,.6,1.04,.87,.11,.08,.24,.13,.37,.17,.32,.1,.66,.07,.95-.08,.15-.08,.29-.19,.4-.34,0-.01,.02-.03,.03-.04,0,.01-.01,.03-.02,.04-.08,.17-.11,.35-.1,.53,0,.32,.13,.63,.36,.85,.1,.1,.22,.2,.36,.26,.41,.19,.83,.36,1.26,.5,.12,.04,.24,.04,.36,.05,.35,0,.68-.12,.91-.37,.12-.13,.22-.28,.28-.46,0-.02,.01-.03,.02-.05,0,.02,0,.04,0,.06-.02,.19,.01,.37,.07,.55,.11,.3,.32,.54,.6,.69,.13,.06,.26,.12,.42,.13,.44,.05,.89,.08,1.35,.08h.01c.14,0,.26-.04,.38-.08,.32-.11,.57-.33,.72-.62,.08-.16,.13-.33,.13-.53,0-.02,0-.04,0-.05,0,.02,0,.04,0,.05,.04,.19,.12,.35,.23,.49,.2,.26,.48,.42,.8,.47,.13,.02,.27,.03,.41,0,.45-.09,.89-.21,1.31-.34,.14-.05,.27-.12,.38-.21,.25-.2,.41-.48,.46-.79,.03-.18,.02-.37-.04-.55,0-.02-.01-.03-.02-.05,0,.02,.02,.03,.03,.05,.09,.16,.22,.29,.36,.39,.28,.2,.62,.26,.95,.19,.12-.03,.24-.05,.36-.12,.39-.23,.77-.48,1.14-.74,.12-.09,.22-.2,.3-.32,.18-.27,.24-.59,.18-.91-.03-.17-.09-.34-.2-.5,0-.01-.02-.02-.02-.03,0,0,.02,.02,.03,.03,.14,.13,.3,.21,.46,.26,.31,.1,.65,.06,.94-.09,.12-.07,.24-.14,.34-.25,.3-.34,.59-.69,.86-1.06,.08-.11,.12-.23,.16-.36,.1-.32,.08-.67-.09-.97-.08-.15-.19-.29-.34-.4-.01,0-.02-.02-.04-.03,.01,0,.03,.01,.04,.02,.17,.08,.35,.1,.53,.1,.32,0,.62-.13,.84-.36,.1-.1,.19-.22,.25-.36,.18-.41,.35-.84,.49-1.28,.04-.13,.05-.26,.05-.39,0-.34-.13-.66-.38-.89-.13-.12-.28-.22-.46-.28-.02,0-.04-.01-.07-.02,0,0,0,0,0,0,.02,0,.05,0,.07,0,.19,.02,.37-.01,.54-.08,.3-.11,.54-.33,.68-.62,.06-.13,.11-.26,.13-.41,.05-.45,.07-.9,.07-1.36,0-.15-.03-.29-.08-.42Zm-24.52,1.48h.05s-.03,0-.05,0c-.02,0-.03,.01-.04,.02v-.03s.03,0,.04,0Zm-29.26,1.64c0-.08-.02-.15-.02-.22,0-2.97,2.39-5.37,5.34-5.37,.4,0,.79,.05,1.17,.14,2.38,.54,4.17,2.67,4.17,5.24,0,2.97-2.39,5.37-5.34,5.37s-5.2-2.29-5.31-5.15Zm40.96,4.11c-3.73,0-6.76-3.05-6.76-6.81s3.03-6.81,6.76-6.81,6.76,3.05,6.76,6.81-3.03,6.81-6.76,6.81Zm-3.92-34.48l1.23,12.32s-2.18,0-3.75,0V12.48h1.96c.33,.15,.56,.48,.56,.86Zm-4.36-.86v13.59l-4.98,5.6-.17,.19c-.85,0-3-.03-4.04-.05-.36,0-.58,0-.58,0v-.25s.03-1.69,.03-1.69l.29-17.15s.2-.14,.48-.24h8.97Zm-12.71,14.08s.02,0,.03,0c.46,0,.84,.26,1.05,.63,.1,.18,.18,.38,.18,.61,0,.27-.11,.51-.26,.72-.22,.31-.57,.52-.97,.52-.01,0-.02,0-.03,0-.66-.02-1.2-.56-1.2-1.23s.53-1.21,1.2-1.23Z"/></svg>