<?xml version="1.0" encoding="UTF-8"?><svg id="Layer_1" xmlns="http://www.w3.org/2000/svg" viewBox="0 0 64 64"><defs><style>.cls-1{fill-rule:evenodd;}</style></defs><path class="cls-1" d="M33.17,24.38l29.11-13.8-4.16-2.92-17.91,2.59c-.14-.14-.3-.28-.47-.4l-3.07-2.15c-1.47-1.03-3.5-.66-4.52,.83-.62,.9-.72,1.99-.4,2.95l-12.09,1.69S8.37,3.29,0,2c0,0,2.83,8.63,14.5,17.63l.9,12.97c-1.28-.34-2.7,.13-3.5,1.3-1.02,1.49-.66,3.55,.81,4.58l3.07,2.15c.07,.05,.14,.09,.22,.14l1.31,17.87,3.08,3.36,8.3-31.08,19.11,13.82-.43,11.51,2.26,2.36,4.03-10.24,1.74-2.18,8.6-5.59-1.93-2.15-11.55,2.51-17.35-16.58Z"/></svg>