<?xml version="1.0" encoding="UTF-8"?><svg id="Layer_1" xmlns="http://www.w3.org/2000/svg" viewBox="0 0 64 64"><defs><style>.cls-1{fill-rule:evenodd;}</style></defs><path class="cls-1" d="M61.02,24.77h-.58s-6.58-13.55-6.85-14.03c-2.56-4.54-6.16-4.23-6.16-4.23H15.68c-4.79-.12-6.05,3.43-6.05,3.43L3.53,24.77h-.55c-1.65,0-2.98,1.35-2.98,3v16.07c0,1.66,1.33,3,2.98,3h2.06v7.65c0,1.66,1.33,3,2.98,3h4.37c1.65,0,2.98-1.34,2.98-3v-7.65H49.76v7.65c0,1.66,1.34,3,2.98,3h4.37c1.65,0,2.98-1.34,2.98-3v-7.65h.92c1.65,0,2.98-1.34,2.98-3V27.77c0-1.66-1.33-3-2.98-3M11.44,11.8s1.29-3.15,5.07-3.15h29.35s3.22-.35,5.04,2.96c.21,.38,6.34,12.55,6.34,12.55H6.75l4.69-12.36Zm-.08,27.5c-2.33,0-4.23-1.9-4.23-4.25s1.89-4.25,4.23-4.25,4.22,1.9,4.22,4.25-1.89,4.25-4.22,4.25m42,0c-2.33,0-4.22-1.9-4.22-4.25s1.89-4.25,4.22-4.25,4.22,1.9,4.22,4.25-1.89,4.25-4.22,4.25"/></svg>