<?xml version="1.0" encoding="UTF-8"?><svg id="Layer_1" xmlns="http://www.w3.org/2000/svg" viewBox="0 0 64 64"><path d="M63.14,27.11l-3.17-3.27c-.21-.27-.45-.51-.72-.71l-6.16-5.77c-.73-.56-1.62-.87-2.54-.86l-17.59,.12c-.62,0-1.24,.15-1.79,.43l-11.38,7.55c-.46,.23-.96,.36-1.47,.41-5.77,.51-11.63,1.34-14.72,2.69-1.02,.45-1.8,1.3-2.18,2.34l-1.11,3.06c-.13,.37-.21,.74-.24,1.13-.02,.27-.04,.61-.06,.98-.09,1.67,.85,3.22,2.37,3.92l2.9,1.34c-.01-.17-.03-.33-.03-.5,0-4.57,3.72-8.28,8.29-8.28s8.29,3.72,8.29,8.28c0,.48-.05,.96-.13,1.42h20.52c-.08-.47-.13-.94-.13-1.42,0-4.57,3.72-8.28,8.29-8.28s8.29,3.72,8.29,8.28c0,.49-.05,.97-.13,1.43h.25c2.15,0,4.57-1.02,4.73-3.16l.48-7.7c.08-1.01-.23-2.64-.85-3.44ZM3.84,31.67c-.69,0-1.26-.56-1.26-1.26s.56-1.26,1.26-1.26,1.26,.56,1.26,1.26-.56,1.26-1.26,1.26Zm47.37-7.93l-25.91,.78c-.26,0-.35-.35-.12-.47l8.25-5.53c.13-.07,.27-.1,.42-.1l13.02-.12c.26,0,.52,.11,.7,.3l3.8,4.76c.13,.14,.03,.37-.16,.37Zm10.41,6.67c-.69,0-1.26-.56-1.26-1.26s.56-1.26,1.26-1.26,1.26,.56,1.26,1.26-.56,1.26-1.26,1.26Z"/><path d="M50.38,32.44c-4.16,0-7.54,3.37-7.54,7.53,0,.48,.05,.95,.14,1.41,.66,3.48,3.72,6.12,7.4,6.12s6.73-2.63,7.4-6.1c.09-.46,.14-.94,.14-1.43,0-4.16-3.37-7.53-7.54-7.53Zm0,10.7c-1.24,0-2.31-.72-2.83-1.76-.21-.43-.34-.9-.34-1.41,0-1.75,1.42-3.17,3.17-3.17s3.17,1.42,3.17,3.17c0,.51-.13,.99-.35,1.41-.52,1.04-1.59,1.76-2.83,1.76Z"/><path d="M13.54,32.44c-4.16,0-7.54,3.37-7.54,7.53,0,.29,.02,.58,.05,.86,.43,3.75,3.61,6.67,7.48,6.67s6.73-2.63,7.4-6.11c.09-.46,.14-.93,.14-1.42,0-4.16-3.37-7.53-7.54-7.53Zm0,10.7c-1.24,0-2.3-.72-2.82-1.75-.22-.43-.35-.91-.35-1.42,0-1.75,1.42-3.17,3.17-3.17s3.17,1.42,3.17,3.17c0,.51-.13,.99-.35,1.42-.52,1.03-1.58,1.75-2.82,1.75Z"/></svg>