<?xml version="1.0" encoding="UTF-8"?><svg id="Layer_1" xmlns="http://www.w3.org/2000/svg" viewBox="0 0 64 64"><path d="M59.97,45.54c.1-.71-.15-1.45-.74-1.93-.14-.11-.28-.22-.43-.32-.63-.42-1.4-.42-2.02-.1-.3-.06-.61-.09-.92-.09h-.56c-.37-.42-.91-.69-1.51-.69h-.33c-.6,0-1.14,.27-1.51,.69h-.99c-.37-.42-.91-.69-1.51-.69h-.33c-.6,0-1.14,.27-1.51,.69h-.99c-.37-.42-.91-.69-1.51-.69h-.33c-.6,0-1.14,.27-1.51,.69h-.99c-.37-.42-.91-.69-1.51-.69h-.33c-.6,0-1.14,.27-1.51,.69h-.99c-.37-.42-.91-.69-1.51-.69h-.33c-.6,0-1.14,.27-1.51,.69h-.99c-.37-.42-.91-.69-1.51-.69h-.33c-.6,0-1.14,.27-1.51,.69h-.99c-.37-.42-.91-.69-1.51-.69h-.37s0,.7,0,.7c0,0,0,0,0,0v-.7c-.76,0-1.4,.43-1.75,1.05-.64,.27-1.2,.67-1.67,1.17-.7,.11-1.32,.57-1.6,1.28-.07,.17-.12,.34-.17,.52-.21,.74,.01,1.49,.49,2.01,.07,.71,.29,1.37,.62,1.95-.1,.71,.16,1.45,.75,1.93,.14,.11,.29,.22,.44,.32,.63,.41,1.4,.41,2.03,.09,.29,.06,.59,.09,.89,.09h.58c.37,.42,.91,.69,1.51,.69h.33c.6,0,1.14-.27,1.51-.69h.99c.37,.42,.91,.69,1.51,.69h.33c.6,0,1.14-.27,1.51-.69h.99c.37,.42,.91,.69,1.51,.69h.33c.6,0,1.14-.27,1.51-.69h.99c.37,.42,.91,.69,1.51,.69h.33c.6,0,1.14-.27,1.51-.69h.99c.37,.42,.91,.69,1.51,.69h.33c.6,0,1.14-.27,1.51-.69h.99c.37,.42,.91,.69,1.51,.69h.33c.6,0,1.14-.27,1.51-.69h.99c.37,.42,.91,.69,1.51,.69h.33c.75,0,1.4-.42,1.75-1.05,.63-.26,1.2-.66,1.66-1.16,.7-.1,1.32-.56,1.6-1.28,.07-.17,.12-.34,.17-.51,.21-.74,0-1.49-.49-2.01-.07-.71-.28-1.37-.61-1.95Zm-2.96,4.12s-.02,.02-.03,.02c-.32,.22-.71,.35-1.12,.35H27.35c-.9,0-1.65-.6-1.92-1.42,0-.01,0-.02-.01-.04-.06-.2-.1-.4-.1-.62,0-.29,.06-.56,.16-.81,.15-.36,.4-.67,.71-.89,.01-.01,.03-.02,.04-.03,.32-.22,.71-.35,1.12-.35h28.51c.9,0,1.66,.6,1.93,1.43,0,.01,0,.02,.01,.04,.06,.19,.1,.4,.1,.61,0,.57-.23,1.09-.6,1.47-.09,.09-.18,.17-.28,.24Z"/><path d="M63.32,30.65c0-1.77-1.51-3.21-3.38-3.21h-18.17l-.18-.9c0-1.57-1.18-2.85-2.64-2.85h-2.21l-6.06-9.09c-.26-1.16-1.36-2.01-2.65-1.98l-17.66,.53c-.09-1.48-1.28-2.66-2.76-2.65h-1.24c-1.56,.01-2.81,1.33-2.76,2.93l.78,26.22c0,.14,.03,.28,.05,.42-2.59,.98-4.43,3.51-4.43,6.5,0,3.83,3.04,6.93,6.79,6.93h11.73l-8.76-13.76s.01-.07,.01-.1l.49-21.27,13.51,.29,5.74,7.4c-.02,.16-.04,.31-.04,.48l-1.27,10.25c0,1.57,1.18,2.85,2.64,2.85h29.79c1.87,0,3.38-1.44,3.38-3.21l-.68-5.78Zm-31.24,6.91c-1.08,0-1.95-.94-1.95-2.1l.92-7.39,.02-.18c0-1.16,.87-2.1,1.95-2.1h5.07s.02,0,.04,0c.92,.02,1.68,.72,1.87,1.66,.03,.14,.04,.29,.04,.44l.23,1.1,.55,2.68-4.58,3.09-3.26,2.2-.89,.6Z"/></svg>