<?xml version="1.0" encoding="UTF-8"?><svg id="Layer_1" xmlns="http://www.w3.org/2000/svg" viewBox="0 0 64 64"><path d="M58.85,45.55c-.01-.24,0-.47-.03-.71,.39-.15,.79-.32,1.18-.51-.1-.72-.28-1.45-.57-2.13-.43,.03-.86,.08-1.28,.15-.08-.22-.22-.42-.33-.63-.1-.21-.25-.4-.38-.6,.27-.33,.54-.68,.77-1.03-.46-.58-.98-1.12-1.57-1.56-.36,.25-.69,.49-1.02,.77l-.6-.39-.63-.33c.07-.42,.12-.84,.15-1.27-.68-.29-1.41-.47-2.14-.58-.18,.38-.35,.79-.51,1.19-.24-.01-.47-.05-.71-.03-.23,0-.48,0-.71,.03-.15-.4-.32-.79-.5-1.18-.73,.1-1.45,.29-2.13,.57,.04,.43,.09,.86,.16,1.28-.22,.09-.42,.22-.63,.33-.22,.11-.4,.26-.6,.39-.33-.27-.68-.54-1.03-.78-.57,.47-1.11,.98-1.56,1.57,.25,.36,.49,.69,.77,1.03l-.39,.6-.32,.63c-.43-.07-.84-.12-1.28-.15-.29,.68-.46,1.41-.58,2.14,.39,.18,.79,.35,1.19,.5-.02,.24-.05,.47-.04,.71,.01,.24,0,.48,.03,.71-.39,.15-.79,.32-1.18,.5,.1,.73,.29,1.45,.57,2.13,.43-.03,.86-.08,1.28-.15,.08,.22,.22,.42,.33,.64,.11,.21,.26,.4,.38,.6-.27,.33-.53,.68-.77,1.03,.46,.57,.98,1.12,1.57,1.56,.36-.24,.69-.49,1.02-.77l.6,.39,.63,.33c-.07,.42-.12,.84-.15,1.27,.68,.29,1.4,.47,2.13,.58,.18-.38,.36-.79,.51-1.18,.24,.01,.47,.04,.71,.03,.24-.02,.48,0,.71-.04,.15,.4,.32,.79,.51,1.18,.73-.1,1.45-.29,2.13-.57-.03-.43-.08-.85-.15-1.27,.22-.09,.42-.22,.63-.33,.21-.11,.4-.26,.6-.39,.33,.27,.68,.53,1.03,.78,.58-.46,1.12-.98,1.56-1.57-.24-.36-.5-.69-.77-1.03l.39-.6,.32-.63c.43,.07,.84,.12,1.27,.15,.29-.68,.46-1.4,.58-2.14-.38-.19-.78-.35-1.19-.5,.02-.24,.05-.48,.04-.72Zm-5.65,1.16c-.21,.35-.49,.65-.85,.85-.35,.21-.76,.31-1.16,.31-.41,0-.8-.11-1.16-.31-.35-.21-.65-.5-.85-.85-.2-.35-.31-.76-.31-1.16,0-.41,.11-.8,.31-1.16,.21-.35,.49-.65,.85-.84,.35-.21,.76-.32,1.16-.31,.41,0,.8,.11,1.16,.31,.35,.21,.65,.49,.85,.85,.2,.35,.31,.76,.31,1.16,0,.41-.11,.8-.31,1.16Z"/><path d="M19.41,49.99l.39-.6,.32-.63c.43,.07,.84,.12,1.27,.15,.29-.68,.46-1.4,.58-2.14-.38-.19-.78-.35-1.19-.5,.02-.24,.05-.48,.04-.72-.01-.24,0-.47-.03-.71,.4-.15,.79-.32,1.18-.51-.1-.72-.28-1.45-.57-2.13-.43,.03-.86,.08-1.28,.15-.08-.22-.22-.42-.33-.63-.1-.21-.25-.4-.38-.6,.27-.33,.54-.68,.77-1.03-.46-.58-.98-1.12-1.57-1.56-.36,.25-.69,.49-1.02,.77l-.6-.39-.63-.33c.07-.42,.12-.84,.15-1.27-.68-.29-1.41-.47-2.14-.58-.18,.38-.35,.79-.51,1.19-.24-.01-.47-.05-.71-.03-.23,0-.48,0-.71,.03-.15-.4-.32-.79-.5-1.18-.73,.1-1.45,.29-2.13,.57,.04,.43,.09,.86,.16,1.28-.22,.09-.42,.22-.63,.33-.22,.11-.4,.26-.6,.39-.33-.27-.68-.54-1.03-.78-.57,.47-1.11,.98-1.56,1.57,.25,.36,.49,.69,.77,1.03l-.39,.6-.32,.63c-.43-.07-.84-.12-1.28-.15-.29,.68-.46,1.41-.58,2.14,.39,.18,.79,.35,1.19,.5-.01,.24-.05,.47-.04,.71,.01,.24,0,.48,.03,.71-.39,.15-.79,.32-1.18,.5,.1,.73,.29,1.45,.57,2.13,.43-.03,.86-.08,1.28-.15,.08,.22,.22,.42,.33,.64,.11,.21,.26,.4,.38,.6-.27,.33-.53,.68-.77,1.03,.46,.57,.98,1.12,1.57,1.56,.36-.24,.69-.49,1.02-.77l.6,.39,.63,.33c-.07,.42-.12,.84-.15,1.27,.68,.29,1.4,.47,2.13,.58,.18-.38,.36-.79,.51-1.18,.24,.01,.47,.04,.71,.03,.24-.02,.48,0,.71-.04,.15,.4,.32,.79,.51,1.18,.73-.1,1.45-.29,2.13-.57-.03-.43-.08-.85-.15-1.27,.22-.09,.42-.22,.63-.33,.21-.11,.4-.26,.6-.39,.33,.27,.68,.53,1.03,.78,.58-.46,1.12-.98,1.56-1.57-.24-.36-.5-.69-.77-1.03Zm-4.24-3.27c-.21,.35-.49,.65-.85,.85-.35,.21-.76,.31-1.16,.31-.41,0-.8-.11-1.16-.31-.35-.21-.65-.5-.85-.85-.2-.35-.31-.76-.31-1.16,0-.41,.11-.8,.31-1.16,.21-.35,.49-.65,.85-.84,.35-.21,.76-.32,1.16-.31,.41,0,.8,.11,1.16,.31,.35,.21,.65,.49,.85,.85,.21,.35,.31,.76,.31,1.16,0,.41-.11,.8-.31,1.16Z"/><path d="M39.88,13.45c-.26,.03-.54,.06-.8,.11-.05,.46-.06,.93,0,1.38,.27,.05,.52,.09,.79,.11l.09,.43,.14,.42c-.22,.16-.42,.32-.63,.49,.17,.43,.42,.83,.69,1.2,.25-.09,.5-.19,.75-.3,.1,.11,.19,.23,.3,.33,.11,.1,.21,.21,.33,.3-.11,.24-.21,.49-.3,.75,.37,.28,.77,.51,1.19,.69,.18-.2,.34-.41,.5-.63,.14,.06,.28,.09,.42,.14,.14,.05,.29,.06,.44,.09,.02,.27,.06,.54,.11,.8,.46,.05,.93,.06,1.39,0,.05-.27,.09-.53,.11-.79l.44-.09,.42-.14c.16,.22,.32,.43,.49,.63,.43-.17,.83-.42,1.2-.69-.08-.25-.19-.5-.3-.75,.11-.1,.23-.19,.33-.3,.1-.11,.21-.21,.3-.33,.24,.11,.49,.21,.75,.3,.28-.36,.51-.77,.69-1.19-.21-.18-.42-.34-.63-.5,.06-.14,.09-.28,.13-.42,.05-.14,.07-.29,.1-.43,.27-.03,.54-.07,.8-.11,.05-.46,.06-.93,0-1.38-.27-.05-.52-.09-.79-.11l-.09-.44-.14-.42c.22-.16,.42-.32,.63-.5-.17-.43-.42-.83-.69-1.2-.25,.09-.5,.19-.75,.3-.1-.11-.19-.23-.3-.33-.11-.1-.21-.22-.33-.3,.11-.24,.21-.49,.3-.75-.37-.28-.77-.51-1.19-.69-.17,.21-.34,.42-.5,.63-.14-.06-.28-.09-.42-.14-.14-.05-.29-.06-.44-.09-.02-.27-.06-.54-.11-.8-.46-.05-.93-.06-1.38,0-.05,.27-.09,.52-.11,.8l-.43,.09-.42,.14c-.16-.22-.32-.43-.5-.63-.43,.17-.83,.42-1.2,.69,.09,.25,.19,.51,.3,.75-.11,.1-.23,.19-.33,.3-.1,.11-.21,.21-.3,.33-.24-.11-.49-.21-.74-.3-.28,.37-.51,.77-.69,1.2,.2,.18,.42,.34,.63,.5-.06,.13-.09,.28-.14,.43-.05,.14-.06,.29-.1,.44Zm3.38,.45c.06-.24,.19-.45,.36-.62,.17-.18,.39-.29,.62-.36,.24-.06,.49-.07,.72,0,.24,.06,.45,.19,.62,.36,.17,.17,.29,.39,.36,.62,.06,.24,.07,.48,0,.72-.06,.24-.19,.45-.36,.62-.17,.18-.39,.29-.62,.36-.24,.06-.49,.07-.72,0-.24-.06-.45-.19-.63-.36-.17-.17-.29-.39-.36-.62-.06-.24-.06-.49,0-.72Z"/><path d="M63.66,48.46c.23-.96,.34-1.95,.34-2.96l-.31-.02c0-.35-.02-.7-.05-1.04l.31-.03c-.09-1.02-.3-2.03-.62-2.99l-.3,.1c-.11-.32-.21-.63-.34-.93l.28-.12c-.4-.94-.91-1.83-1.52-2.65l-.25,.19c-.2-.27-.4-.53-.62-.78l.23-.2c-.67-.77-1.43-1.46-2.26-2.05l-.18,.25c-.27-.19-.55-.37-.83-.55l.16-.27c-.88-.53-1.81-.95-2.79-1.26l-.09,.29c-.31-.1-.64-.18-.96-.25l.07-.31c-.95-.22-1.93-.33-2.91-.33h-.12l.02,.31h-.97v-.31h-2.85v.31h-.95v-.31h-2.85v.31h-.95v-.31h-1.72l1.1-1.3-.23-.2,.61-.72,.23,.2,1.84-2.17-.23-.2,.61-.72,.23,.2,1.84-2.17-.23-.2,.61-.72,.23,.2,1.84-2.17-.23-.2,.61-.72,.23,.2,1.85-2.19-.24-.2c.22-.27,.41-.55,.59-.83l.27,.17c.56-.91,.95-1.9,1.15-2.95l-.32-.06c.06-.33,.11-.67,.13-1.01l.33,.02c.01-.2,.02-.4,.02-.59,0-.86-.13-1.72-.38-2.55l-.31,.09c-.1-.33-.21-.65-.35-.96l.29-.13c-.43-.97-1.03-1.85-1.79-2.61l-.22,.22s0,0,0-.01c-.24-.24-.5-.46-.76-.66l.19-.25c-.84-.66-1.78-1.15-2.8-1.47l-.09,.31c-.33-.1-.66-.17-.99-.23l.06-.32c-1.04-.19-2.12-.18-3.16,.01l.06,.32c-.33,.06-.66,.14-.99,.25l-.1-.31c-1.02,.32-1.95,.83-2.79,1.5l.2,.25c-.08,.06-.16,.12-.24,.19l-.51,.44-.2-.23-2.15,1.85,.2,.23-.72,.62-.2-.23-2.15,1.85,.2,.23-.72,.62-.2-.23-2.15,1.85,.2,.23-.72,.62-.2-.23-2.15,1.85,.2,.23-.72,.62-.2-.23-2.15,1.85,.2,.23-.72,.62-.2-.23-2.15,1.85,.2,.23-.72,.62-.2-.23-2.15,1.85,.2,.23-.72,.62-.2-.23-2.15,1.85,.2,.23-.72,.62-.2-.23-1.07,.92,.61,.7,.41,.47,.2,.23,1.07-.92-.2-.23,.72-.62,.2,.23,2.15-1.85-.2-.23,.72-.62,.2,.23,2.15-1.85-.2-.23,.72-.62,.2,.23,2.15-1.85-.2-.23,.72-.62,.2,.23,2.15-1.85-.2-.23,.72-.62,.2,.23,2.15-1.85-.2-.23,.72-.62,.2,.23,2.15-1.85-.2-.23,.72-.62,.2,.23,2.15-1.85-.2-.23,.72-.62,.2,.23,2.15-1.85-.2-.23,.51-.44c.07-.06,.14-.09,.21-.15l.18,.22c.66-.53,1.39-.92,2.19-1.18l-.09-.27c.28-.09,.56-.15,.84-.2l.05,.27c.82-.16,1.67-.16,2.49-.01l.05-.27c.29,.05,.56,.13,.84,.21l-.08,.26c.8,.25,1.54,.63,2.2,1.15l.17-.22c.22,.18,.46,.34,.66,.55,0,0,0,0,0,0l-.22,.21c.59,.6,1.07,1.29,1.41,2.05l.27-.12c.12,.27,.2,.54,.28,.82l-.25,.08c.2,.65,.3,1.32,.3,2,0,.16,0,.31-.02,.47l.26,.02c-.02,.29-.05,.57-.1,.86l-.27-.05c-.16,.82-.46,1.6-.91,2.31l.24,.15c-.15,.24-.31,.48-.5,.71l-.23-.18-1.82,2.15,.23,.2-.61,.72-.23-.2-1.84,2.17,.23,.2-.61,.72-.23-.2-1.84,2.17,.23,.2-.61,.72-.23-.2-1.84,2.17,.23,.2-.61,.72-.23-.2-1.84,2.17,.23,.2-.16,.19v-.05h-2.85v.31h-.95v-.31h-2.85v.31h-.95v-.31h-2.85v.31h-.95v-.31h-2.85v.31h-.95v-.31h-2.85v.31h-.95v-.31h-2.85v.31h-.95v-.31h-2.76s-.09,0-.09,0v.31c-.33,0-.67,.02-1,.05l-.03-.32c-1.02,.08-2.03,.29-3,.61l.1,.3c-.32,.1-.63,.22-.94,.34l-.12-.28c-.94,.39-1.83,.9-2.66,1.51l.19,.25c-.27,.2-.53,.4-.78,.62l-.2-.23c-.77,.67-1.47,1.42-2.07,2.25l.25,.18c-.19,.27-.38,.55-.55,.83l-.27-.16c-.53,.87-.96,1.81-1.28,2.78l.29,.09c-.1,.31-.18,.64-.26,.96l-.31-.07c-.23,.97-.35,1.97-.35,2.97v.06H.31c0,.33,.02,.66,.05,1l-.31,.03c.08,1.02,.29,2.03,.61,3l.3-.1c.1,.32,.21,.63,.34,.94l-.28,.12c.4,.94,.91,1.83,1.51,2.65l.25-.19c.2,.27,.4,.53,.62,.78l-.23,.2c.67,.77,1.43,1.47,2.25,2.06l.18-.25c.27,.19,.55,.37,.83,.55l-.16,.27c.88,.53,1.81,.96,2.78,1.27l.09-.29c.32,.1,.64,.18,.96,.26l-.07,.31c.96,.22,1.95,.34,2.94,.34h.09l-.02-.31h.96v.31h2.85v-.31h.95v.31h2.85v-.31h.95v.31h2.85v-.31h.95v.31h2.85v-.31h.95v.31h2.85v-.31h.95v.31h2.85v-.31h.95v.31h2.85v-.31h.95v.31h2.85v-.31h.95v.31h2.85v-.31h.95v.31h2.9v-.31c.33,0,.66-.02,1-.05l.03,.31c1.02-.08,2.03-.29,3-.61l-.1-.3c.32-.1,.63-.21,.94-.34l.12,.28c.94-.4,1.83-.91,2.65-1.51l-.19-.25c.27-.2,.53-.4,.78-.62l.2,.23c.77-.67,1.47-1.43,2.06-2.25l-.25-.18c.19-.27,.37-.55,.55-.83l.27,.16c.53-.87,.96-1.81,1.27-2.78l-.29-.09c.1-.32,.18-.64,.26-.96l.31,.07Zm-1.75,.51l-.29-.09c-.27,.83-.63,1.64-1.09,2.38l.26,.16c-.16,.26-.32,.51-.49,.75l-.25-.18c-.51,.71-1.11,1.36-1.77,1.93l.2,.23c-.23,.2-.46,.38-.71,.56l-.18-.24c-.71,.52-1.47,.96-2.28,1.3l.12,.29c-.27,.12-.56,.21-.84,.31l-.09-.29c-.83,.28-1.69,.45-2.56,.52l.02,.3c-.31,.03-.62,.05-.94,.05v-.31h-2.85v.31h-.95v-.31h-2.85v.31h-.95v-.31h-2.85v.31h-.95v-.31h-2.85v.31h-.95v-.31h-2.85v.31h-.95v-.31h-2.85v.31h-.95v-.31h-2.85v.31h-.95v-.31h-2.85v.31h-.95v-.31h-2.85v.31h-.95v-.31h-2.85v.31h-1.02v-.31c-.86,0-1.71-.1-2.53-.29l-.07,.29c-.29-.07-.58-.14-.87-.23l.09-.29c-.83-.27-1.63-.63-2.38-1.09l-.16,.26c-.26-.16-.51-.32-.75-.49l.18-.25c-.71-.51-1.36-1.11-1.94-1.77l-.23,.2c-.2-.23-.38-.46-.56-.7l.24-.18c-.52-.71-.96-1.47-1.3-2.27l-.29,.12c-.12-.27-.21-.56-.31-.84l.29-.1c-.28-.83-.45-1.69-.53-2.56l-.3,.02c-.03-.31-.05-.63-.05-.94h.31c0-.87,.1-1.73,.3-2.56l-.29-.07c.07-.29,.14-.58,.23-.87l.29,.09c.27-.83,.64-1.63,1.09-2.38l-.26-.16c.16-.26,.32-.51,.5-.75l.25,.18c.51-.71,1.11-1.36,1.78-1.93l-.2-.23c.23-.2,.46-.38,.71-.56l.18,.24c.71-.52,1.47-.95,2.28-1.29l-.12-.28c.28-.12,.56-.22,.84-.31l.09,.29c.83-.27,1.69-.45,2.56-.52l-.02-.3c.3-.02,.61-.05,.92-.05v.31h2.82v-.31h.95v.31h2.85v-.31h.95v.31h2.85v-.31h.95v.31h2.85v-.31h.95v.31h2.85v-.31h.95v.31h2.85v-.31h.95v.31h.91l-.6,.7,.23,.2-.61,.72-.23-.2-1.84,2.17,.23,.2-.61,.72-.23-.2-1.84,2.17,.23,.2-.61,.72-.23-.2-1.84,2.17,.23,.2-.61,.72-.23-.2-1.84,2.17,.23,.2-.61,.72-.23-.2-1.84,2.17,.23,.2-.61,.72-.23-.2-1.84,2.17,.23,.2-.64,.75-.23-.2-.91,1.07,.23,.2h0s.95,.8,.95,.8h0s.23,.2,.23,.2l.91-1.07-.23-.2,.64-.75,.23,.2,1.84-2.17-.23-.2,.61-.72,.23,.2,1.84-2.17-.23-.2,.61-.72,.23,.2,1.84-2.17-.23-.2,.61-.72,.23,.2,1.84-2.17-.23-.2,.61-.72,.23,.2,1.84-2.17-.23-.2,.61-.72,.23,.2,1.84-2.17-.23-.2,.61-.72,.23,.2,1.84-2.17-.05-.04h.27v.31h2.85v-.31h.95v.31h2.85v-.31h.95v.31h2.85v-.31h1.05l.02,.31c.84,0,1.68,.1,2.49,.28l.07-.29c.29,.07,.58,.14,.87,.23l-.09,.29c.83,.26,1.63,.63,2.39,1.08l.16-.26c.26,.16,.51,.32,.75,.49l-.18,.25c.71,.51,1.36,1.1,1.94,1.77l.23-.2c.2,.23,.38,.46,.56,.7l-.24,.18c.52,.71,.96,1.47,1.3,2.27l.29-.12c.12,.27,.21,.56,.31,.84l-.29,.1c.28,.83,.46,1.69,.53,2.56l.3-.03c.03,.32,.05,.64,.05,.96h-.31c0,.87-.1,1.71-.29,2.54l.29,.07c-.07,.29-.14,.58-.23,.87Z"/></svg>