<?xml version="1.0" encoding="UTF-8"?><svg id="Layer_1" xmlns="http://www.w3.org/2000/svg" viewBox="0 0 64 64"><path d="M10.67,34.25c-.64,0-1.24,.34-1.59,.91l-4.22,6.81-3.81-.03c-.58,0-1.05,.5-1.05,1.12v1.3c0,.62,.47,1.12,1.05,1.12H49.18l14.82-11.25H10.67Zm.64,5.61c-.73,0-1.32-.63-1.32-1.41s.59-1.41,1.32-1.41,1.32,.63,1.32,1.41-.59,1.41-1.32,1.41Zm3.29,0c-.73,0-1.32-.63-1.32-1.41s.59-1.41,1.32-1.41,1.32,.63,1.32,1.41-.59,1.41-1.32,1.41Zm3.46,0c-.73,0-1.32-.63-1.32-1.41s.59-1.41,1.32-1.41,1.32,.63,1.32,1.41-.59,1.41-1.32,1.41Zm3.29,0c-.73,0-1.32-.63-1.32-1.41s.59-1.41,1.32-1.41,1.32,.63,1.32,1.41-.59,1.41-1.32,1.41Z"/><path d="M9.17,28.99c0,.57,.43,1.03,.96,1.03h3.66s-1.64,2.51-1.64,2.51H48.35l-3.85-3.01h-12.37l1.39-2.12h8.27s-3.32-2.58-3.32-2.58h-9.16s-3.54-5.77-3.54-5.77c-.21-.34-.57-.55-.95-.55h-4.16c-.32,0-.55,.32-.47,.65l1.34,5.66h-3.01s-1.35,2.07-1.35,2.07h-7.52c-.27,0-.49,.24-.49,.53v.18s0,1.42,0,1.42Z"/></svg>