<?xml version="1.0" encoding="UTF-8"?><svg id="Layer_1" xmlns="http://www.w3.org/2000/svg" viewBox="0 0 64 64"><defs><style>.cls-1{fill-rule:evenodd;}</style></defs><path class="cls-1" d="M54.22,0H9.78c-1.26,0-2.28,1.03-2.28,2.3V41.67c0-1.27,1.02-2.3,2.28-2.3h.42l4.67-11.36s.96-2.72,4.63-2.62h24.31s3.38-.29,5.31,4.47l4.66,9.51h.44c1.26,0,2.28,1.03,2.28,2.3V2.3c0-1.27-1.02-2.3-2.28-2.3"/><path class="cls-1" d="M52.9,40.43h-.41l-4.38-8.95c-1.81-4.48-4.99-4.2-4.99-4.2H20.25c-3.45-.09-4.35,2.47-4.35,2.47l-4.4,10.68h-.4c-1.19,0-2.15,.97-2.15,2.16v11.57c0,1.2,.96,2.16,2.15,2.16h1.48v5.51c0,1.2,.96,2.16,2.14,2.16h3.15c1.19,0,2.15-.97,2.15-2.16v-5.51h24.77v5.51c0,1.2,.96,2.16,2.15,2.16h3.14c1.19,0,2.15-.97,2.15-2.16v-5.51h.67c1.19,0,2.15-.97,2.15-2.16v-11.57c0-1.19-.96-2.16-2.15-2.16M17.2,31.09s.93-2.27,3.65-2.27h21.13s2.88-.31,4.04,3.05l4.16,8.12H13.82l3.38-8.9Zm-.06,19.8c-1.68,0-3.04-1.37-3.04-3.06s1.36-3.06,3.04-3.06,3.04,1.37,3.04,3.06-1.36,3.06-3.04,3.06m23.41,1.4H23.45v-6.68s-.12-1,1.05-1.17h14.89s1.1,.12,1.16,1.35v6.5Zm6.83-1.4c-1.68,0-3.04-1.37-3.04-3.06s1.36-3.06,3.04-3.06,3.04,1.37,3.04,3.06-1.36,3.06-3.04,3.06"/></svg>