<?xml version="1.0" encoding="UTF-8"?><svg id="Layer_1" xmlns="http://www.w3.org/2000/svg" viewBox="0 0 64 64"><path d="M28.09,39.08c-.42,0-.86,0-1.26,0h-3.73c1.16,.71,1.94,1.98,1.94,3.45,0,.17-.03,.33-.05,.5,.44,0,.86,0,1.24,0-.02-.16-.05-.32-.05-.49,0-1.46,.77-2.73,1.91-3.44Z"/><path d="M19.01,39.07h-4.48s0-15.74,0-15.74c0-.09-.04-.15-.05-.23,.04-.09,.07-.19,.03-.36l-.04-4.15c0-.26-.3-.4-.54-.28-3.15,1.52-4.14,2.6-4.9,3.7-1.7-.04-3.46-.04-4.4,.05-.74,.07-2.87,.57-3.31,1.81L.03,33.55c.1,.79-.31,9.49,.37,9.49H5.75c-.02-.17-.05-.33-.05-.5,0-1.48,.79-2.76,1.96-3.47,.59-.36,1.28-.58,2.02-.58s1.43,.22,2.03,.58c.88,.54,1.54,1.41,1.81,2.44,.09,.33,.15,.67,.15,1.02,0,.17-.03,.34-.05,.5h3.51c-.02-.17-.05-.33-.05-.5,0-1.47,.78-2.75,1.94-3.46Zm-16.11-.14c.26,0,.49,.1,.68,.25,.27,.21,.46,.53,.46,.9,0,.64-.51,1.16-1.14,1.16s-1.14-.52-1.14-1.16c0-.02,.01-.05,.01-.07,.04-.6,.52-1.09,1.12-1.09Zm6.16-8.83c0,.61-.49,1.11-1.09,1.11H3.33c-.6,0-1.09-.5-1.09-1.11l.57-4.73c0-.61,.49-1.11,1.09-1.11H7.98c.6,0,1.09,.5,1.09,1.11v4.73Z"/><path d="M62.86,18.06l-45.84-.06c-.63,0-1.14,.52-1.14,1.15l-.05,17.59c0,.64,.51,1.16,1.14,1.16H62.86c.63,0,1.14-.52,1.14-1.16V19.22c0-.64-.51-1.16-1.14-1.16Z"/><path d="M9.71,39.06s-.02,0-.03,0-.02,0-.03,0c-1.87,.02-3.38,1.56-3.38,3.47,0,.17,.03,.34,.05,.5h0c.24,1.68,1.65,2.97,3.36,2.97s3.12-1.29,3.36-2.97c.02-.17,.05-.33,.05-.5,0-.2-.03-.39-.06-.58-.27-1.63-1.65-2.87-3.33-2.89Zm-.03,4.93c-.62,0-1.13-.4-1.34-.96,0,0,0,0,0,0-.06-.16-.1-.32-.1-.5,0-.81,.64-1.46,1.44-1.46s1.44,.65,1.44,1.46c0,.14-.04,.28-.08,.41,0,.03,0,.07-.02,.1-.2,.56-.72,.96-1.34,.96Z"/><path d="M21.18,39.07s-.08-.01-.13-.01-.08,.01-.12,.01c-1.83,.07-3.29,1.58-3.29,3.46,0,.17,.03,.34,.05,.5,.24,1.68,1.65,2.97,3.36,2.97s3.12-1.29,3.36-2.97c.02-.17,.05-.33,.05-.5,0-1.87-1.46-3.39-3.29-3.46Zm-.13,4.92c-.62,0-1.13-.4-1.34-.96-.06-.16-.1-.32-.1-.5,0-.81,.64-1.46,1.44-1.46s1.44,.65,1.44,1.46c0,.18-.04,.35-.1,.5-.2,.56-.72,.96-1.34,.96Z"/><path d="M30.15,39.06c-.27,0-.53,.04-.79,.1-1.5,.36-2.63,1.73-2.63,3.37,0,.17,.03,.33,.05,.49,.24,1.68,1.64,2.98,3.36,2.98,1.88,0,3.41-1.55,3.41-3.47s-1.53-3.47-3.41-3.47Zm0,4.93c-.65,0-1.17-.44-1.35-1.04-.04-.14-.08-.27-.08-.42,0-.49,.25-.9,.61-1.16,.24-.18,.51-.3,.83-.3,.79,0,1.44,.65,1.44,1.46s-.64,1.46-1.44,1.46Z"/><path d="M41.55,39.06c-1.88,0-3.41,1.55-3.41,3.47s1.53,3.47,3.41,3.47,3.41-1.55,3.41-3.47-1.53-3.47-3.41-3.47Zm0,4.93c-.79,0-1.44-.65-1.44-1.46s.64-1.46,1.44-1.46,1.44,.65,1.44,1.46-.64,1.46-1.44,1.46Z"/><path d="M48.94,39.06c-1.88,0-3.41,1.55-3.41,3.47s1.53,3.47,3.41,3.47,3.41-1.55,3.41-3.47-1.53-3.47-3.41-3.47Zm0,4.93c-.79,0-1.44-.65-1.44-1.46s.64-1.46,1.44-1.46,1.44,.65,1.44,1.46-.64,1.46-1.44,1.46Z"/><path d="M56.34,39.06c-1.88,0-3.41,1.55-3.41,3.47s1.53,3.47,3.41,3.47,3.41-1.55,3.41-3.47-1.53-3.47-3.41-3.47Zm0,4.93c-.79,0-1.44-.65-1.44-1.46s.64-1.46,1.44-1.46,1.44,.65,1.44,1.46-.64,1.46-1.44,1.46Z"/><ellipse cx="62.06" cy="40.09" rx="1.14" ry="1.16"/></svg>