<?xml version="1.0" encoding="UTF-8"?><svg id="Layer_1" xmlns="http://www.w3.org/2000/svg" viewBox="0 0 64 64"><path d="M63.13,26.13l-3.17-3.27c-.21-.26-.45-.52-.72-.72l-6.17-5.79c-.73-.57-1.62-.87-2.54-.86l-17.6,.11c-.62,.01-1.23,.15-1.8,.43l-11.38,7.57c-.45,.23-.95,.36-1.47,.4-5.77,.52-11.62,1.35-14.71,2.71-1.02,.44-1.8,1.3-2.19,2.34l-1.11,3.07c-.13,.36-.21,.74-.24,1.13-.01,.28-.04,.62-.05,.98-.1,1.67,.84,3.23,2.36,3.94l3.68,1.7c-.04-.28-.05-.57-.05-.86,0-3.75,2.72-6.84,6.28-7.44v5.27c-.75,.44-1.26,1.24-1.26,2.17,0,1.39,1.12,2.52,2.51,2.52s2.51-1.13,2.51-2.52c0-.93-.51-1.73-1.26-2.17v-5.26c3.56,.6,6.28,3.69,6.28,7.44,0,.49-.05,.96-.14,1.42h22.05c-.09-.47-.14-.94-.14-1.42,0-3.82,2.82-6.96,6.5-7.47v5.18c-.87,.4-1.47,1.27-1.47,2.29,0,1.39,1.12,2.52,2.51,2.52s2.51-1.13,2.51-2.52c0-.84-.41-1.57-1.04-2.03v-5.37c3.46,.68,6.07,3.73,6.07,7.4,0,.49-.05,.97-.14,1.43h1c2.15,.01,4.56-1.02,4.72-3.17l.48-7.71c.08-1.01-.23-2.64-.85-3.45ZM13.54,39.66c-.35,0-.63-.28-.63-.63s.28-.63,.63-.63,.63,.28,.63,.63-.28,.63-.63,.63Zm36.84,0c-.35,0-.63-.28-.63-.63s.28-.63,.63-.63,.63,.28,.63,.63-.28,.63-.63,.63Zm-10.15-13.52l.04,11.55-14.61,.11-3-12.83,10.77-7.43c.13-.07,.27-.1,.42-.1l16.79-.12c.26,0,.52,.11,.7,.3l8.55,8.41-19.65,.11Z"/><polygon points="11.03 43.47 16.05 43.47 16.05 41.54 13.54 41.54 11.03 41.54 11.03 43.47"/><rect x="10.03" y="44.06" width="7.03" height="1.92"/><rect x="9.03" y="46.58" width="9.03" height="1.92"/><polygon points="48.09 43.47 53.11 43.47 53.11 41.54 50.38 41.54 48.09 41.54 48.09 43.47"/><rect x="47.09" y="44.06" width="7.03" height="1.92"/><rect x="46.09" y="46.58" width="9.03" height="1.92"/></svg>