<?xml version="1.0" encoding="UTF-8"?><svg id="Layer_1" xmlns="http://www.w3.org/2000/svg" viewBox="0 0 1000 1000"><defs><style>.cls-1,.cls-2,.cls-3,.cls-4{fill:#fff;}.cls-2{opacity:.5;}.cls-3{opacity:.75;}.cls-4{opacity:.25;}</style></defs><path class="cls-1" d="M317.1,644.14c-3.52,13.95,11.54,26.99,8.1,40.6-95.55,0,81.17,0-14.6,0,.9,4.36,1.43,7.84,2.35,11.21,11.22,41.24,22.91,82.35,33.46,123.76,2.55,10,6.97,11.99,16.4,11.94,70.51-.39,141.03-.57,211.53,.11,12.98,.13,18.22-3.16,21.35-16.32,16-67.25,33.21-134.22,50.09-201.26,5.52-21.91,19.8-33.25,42.2-33.59,13.62-.21,27.24-.11,40.86-.03,16.81,.11,25.34,7.03,25.4,20.39,.06,13.32-9.55,21.07-26.32,21.13-13.55,.05-27.09,0-40.63,0-1.12,3.61-2.08,6.23-2.76,8.93-17.63,70.1-35.12,140.23-52.92,210.29-5.07,19.94-19.47,30.96-39.91,31.72-3.72,.14-7.46,.02-13.57,.02,39.58,19.35,54.6,42.29,49.28,72.71-5.15,29.43-27.14,49.95-56.95,53.14-26.15,2.8-53.92-14.35-63.57-40.09-6.62-17.68-5.66-35.26,3.39-52.18,8.79-16.44,23.09-26.21,39.64-32.99-52.61,0-105.22,0-159,0,39.82,21.23,54.17,44.99,46.7,75.98-7,29.04-31.06,48.82-60.2,49.5-28.14,.65-53.61-18.52-61.49-46.28-9.09-32.02,3.56-54.35,46.22-79.8-5.36,0-9.19,.14-13-.02-19.07-.84-33.09-10.5-38.28-28.98-18.57-66.11-36.47-132.41-54.96-199.88,117.81,0-55.82,0,61.16,0Zm249.55,313.09c11.46-.62,19.99-9.74,19.82-21.2-.18-12.07-9.33-20.81-21.53-20.57-12.07,.24-20.68,9.43-20.28,21.66,.38,11.9,10.07,20.75,21.99,20.1Zm-189.15,.09c11.17-.6,20.41-10.29,20.23-21.24-.18-11.59-10.04-20.87-21.9-20.62-11.83,.24-21.18,10.05-20.69,21.69,.5,11.66,10.63,20.8,22.36,20.18Z"/><path class="cls-1" d="M549.36,751.35c0-8.77,0-17.53,0-26.3,0-1.48,.11-2.97-.08-4.45,0-.24,0-.47,0-.71,.03-.36,.08-.72,.08-1.08,0-2.03,0-4.07,0-6.1,0-41.46,0-82.92,.01-124.38,0-1.52-.15-3.02-.56-4.45-.71-2.49-1.97-4.67-3.94-6.42-1.98-1.76-4.26-2.95-6.77-3.72h0c-.83-.79-1.87-1.14-2.93-1.43-1.61-.78-3.21-1.58-4.83-2.34-6.94-3.26-13.89-6.51-20.84-9.76-1.81-.85-3.54-1.88-5.47-2.49-.09-.07-.17-.16-.27-.2-4.03-1.93-8.05-3.88-12.1-5.76-.76-.35-1.47-.9-2.36-.95-.12-.37-.44-.37-.74-.4-.4-.42-.88-.66-1.47-.71t0,0c-1.14-.9-2.54-1.07-3.9-1.24-3.42-.41-6.83-.03-10.23,.29-6.85,.66-13.44,2.37-19.82,4.89-.58,.23-.9,.09-1.22-.36-.59-.81-1.2-1.6-1.8-2.4,.01-.3,.03-.6,.04-.89,.21-.13,.53-.05,.66-.38,.28-.7-.06-2.64-.56-3.14,.55-.07,.34-.49,.34-.78,.01-3.7,.04-7.4,0-11.11-.03-2.59-1.45-3.67-3.66-3.66-11.77,.05-23.55,.03-35.32,.03-2.08,0-3.34,1.25-3.35,3.34,0,3.79,0,7.59,.01,11.38,0,.26-.12,.55,.15,.76-.78,1.08-.65,2.94,.26,3.85,0,.23,.01,.45,.02,.68-.4,1.46-.47,2.97-.68,4.46-.68,4.61-1.32,9.22-1.93,13.83-.32,2.37-.85,4.71-.85,7.11-.01,10.07-.03,20.14-.04,30.21,0,.3,.04,.6,.05,.9,0,6.1-.03,12.2-.03,18.3,0,21.65,0,43.3,0,64.95,0,20.1,0,40.2,0,60.3,0,.63-.05,1.28,.2,1.88-.04,.31,.04,.59,.12,.89,.64,2.3,1.99,4.16,3.9,5.49,1.05,.73,2.26,1.37,3.63,1.42,0,0,0,0,0,0l.07,.05,.08-.02c.14,.02,.28,.04,.42,.06,.06,0,.13,.02,.19,.03,.51,.03,1.03,.07,1.54,.07,14.48,0,28.96,0,43.44,0,26.86,0,53.73,0,80.6-.01,.5,0,1.03,.14,1.5-.18v.05h.06s.05,0,.08,0c.63,0,1.21-.21,1.78-.45,.15-.02,.31-.01,.44-.06,2.35-.88,3.97-2.55,5.05-4.75,.25-.51,.84-1.01,.51-1.73,0-.05,0-.1,.02-.15,.48-.69,.51-1.47,.51-2.26Zm-67.08-165.47c-1.95-.71-3.16-2.57-3.18-4.86-.02-2.31,0-4.61,0-7.4,.07-2.13-.19-4.75,.1-7.34,.4-3.56,3.87-5.42,7.09-3.86,4.98,2.43,9.95,4.9,14.92,7.35,7.61,3.75,15.22,7.51,22.83,11.26,1.5,.74,3,1.46,4.48,2.23,2.77,1.43,3.51,5.07,1.5,7.45-1.86,2.2-3.73,4.38-5.62,6.55-1.52,1.75-3.57,2.21-5.77,1.43-8.43-2.98-16.87-5.92-25.3-8.89-3.69-1.3-7.37-2.6-11.04-3.93Zm46.84,139.42c-1.43,.46-2.87,.51-4.26-.1-3.85-1.7-7.7-3.42-11.54-5.17-2.23-1.02-3.32-2.79-3.31-5.27,.01-25.93,.03-51.86-.03-77.78,0-3.13,1.3-5.05,4.09-6.27,3.41-1.5,6.78-3.12,10.14-4.72,2.62-1.25,5.35-.85,7.26,1.18,.95,1.01,1.39,2.24,1.39,3.64,0,14.94,0,29.87,0,44.81h0c0,14.69-.04,29.39,.03,44.08,.01,2.8-1.68,4.95-3.77,5.62Z"/><path class="cls-3" d="M598.99,525.33c1.64-6.85,3.28-13.7,4.91-20.55,.28-1.16,.64-2.3,.77-3.49,.04-.18,.09-.37,.13-.55,.09-.27,.2-.55,.27-.83,.39-1.59,.76-3.18,1.14-4.77,7.74-32.39,15.49-64.78,23.25-97.17,.29-1.19,.45-2.38,.4-3.58-.09-2.08-.67-4.02-1.88-5.75-1.22-1.74-2.78-3.1-4.6-4.17h0c-.5-.77-1.25-1.24-2.03-1.66-1.11-.91-2.22-1.84-3.34-2.73-4.81-3.85-9.63-7.68-14.45-11.52-1.26-1-2.42-2.13-3.81-2.96-.06-.07-.11-.15-.18-.21-2.79-2.26-5.56-4.54-8.38-6.76-.53-.42-.98-.98-1.67-1.18-.02-.31-.28-.37-.51-.45-.24-.4-.57-.68-1.01-.83t0,0c-.72-.92-1.78-1.31-2.81-1.69-2.59-.96-5.33-1.3-8.05-1.68-5.47-.76-10.94-.66-16.4,.11-.49,.07-.72-.1-.89-.51-.31-.74-.63-1.48-.95-2.21,.07-.23,.13-.46,.2-.69,.19-.06,.42,.06,.59-.18,.35-.49,.45-2.07,.15-2.56,.44,.05,.36-.32,.41-.54,.7-2.89,1.41-5.78,2.08-8.68,.46-2.03-.45-3.14-2.17-3.55-9.21-2.16-18.4-4.38-27.6-6.58-1.62-.39-2.85,.35-3.24,1.98-.72,2.96-1.42,5.93-2.12,8.89-.05,.2-.2,.41-.02,.62-.81,.7-1.06,2.18-.52,3.06-.04,.18-.07,.36-.11,.53-.59,1.06-.92,2.24-1.37,3.36-1.39,3.47-2.75,6.96-4.09,10.45-.69,1.79-1.54,3.52-2,5.4-1.89,7.87-3.78,15.73-5.67,23.59-.06,.23-.08,.48-.13,.72-1.15,4.77-2.3,9.53-3.44,14.29-4.05,16.91-8.09,33.83-12.13,50.74-3.75,15.7-7.51,31.41-11.26,47.11-.12,.49-.28,.99-.19,1.51-.09,.23-.08,.47-.07,.72,.07,1.92,.78,3.62,2.02,5.02,.68,.77,1.51,1.49,2.57,1.79,0,0,0,0,0,0l.04,.05h.07c.1,.04,.21,.08,.31,.12,.05,.02,.1,.04,.14,.06,.4,.12,.79,.25,1.19,.35,11.31,2.71,22.62,5.41,33.94,8.12,20.99,5.02,41.98,10.04,62.97,15.05,.39,.09,.78,.31,1.21,.14v.04s.04,0,.04,0c.02,0,.04,.01,.06,.02,.49,.12,.98,.06,1.48-.02,.12,.01,.24,.05,.36,.03,2-.25,3.58-1.25,4.83-2.77,.29-.35,.84-.63,.72-1.25,.01-.04,.03-.08,.04-.12,.5-.45,.67-1.05,.82-1.67Zm-21.5-141.81c-1.39-.92-1.99-2.6-1.58-4.39,.42-1.81,.86-3.6,1.38-5.78,.45-1.65,.74-3.74,1.45-5.72,.98-2.7,4.04-3.51,6.26-1.69,3.44,2.83,6.86,5.69,10.28,8.53,5.24,4.36,10.49,8.71,15.73,13.06,1.03,.86,2.07,1.7,3.08,2.58,1.9,1.64,1.8,4.62-.22,6.1-1.86,1.37-3.74,2.73-5.62,4.07-1.51,1.08-3.2,1.06-4.77,.04-6.03-3.9-12.07-7.78-18.11-11.67-2.64-1.7-5.27-3.41-7.89-5.13Zm10.55,117.68c-1.2,.09-2.34-.14-3.31-.87-2.69-2.05-5.38-4.11-8.05-6.2-1.55-1.21-2.07-2.8-1.6-4.74,4.85-20.26,9.71-40.51,14.51-60.77,.58-2.44,1.96-3.7,4.37-4.14,2.95-.53,5.88-1.17,8.8-1.8,2.28-.49,4.34,.33,5.45,2.28,.55,.97,.67,2.01,.41,3.1-2.79,11.67-5.58,23.34-8.37,35.01h0c-2.74,11.48-5.52,22.95-8.21,34.45-.51,2.19-2.24,3.55-3.99,3.68Z"/><path class="cls-3" d="M371.16,584.76c.66-6.15,1.32-12.29,1.97-18.44,.11-1.04,.3-2.07,.28-3.12,.02-.16,.04-.33,.05-.49,.05-.25,.11-.5,.14-.75,.16-1.42,.31-2.85,.46-4.28,3.11-29.06,6.22-58.12,9.34-87.18,.12-1.07,.12-2.13-.06-3.16-.31-1.8-1.03-3.42-2.28-4.79-1.26-1.38-2.76-2.39-4.47-3.12h0c-.52-.61-1.22-.94-1.95-1.22-1.07-.67-2.13-1.35-3.21-2-4.62-2.81-9.25-5.61-13.87-8.41-1.21-.73-2.34-1.59-3.65-2.15-.06-.06-.11-.12-.18-.16-2.68-1.66-5.35-3.33-8.05-4.95-.51-.3-.96-.74-1.59-.84-.06-.27-.28-.29-.49-.33-.25-.32-.57-.53-.97-.61t0,0c-.73-.72-1.7-.94-2.64-1.16-2.36-.54-4.78-.54-7.19-.56-4.85-.05-9.6,.65-14.26,1.94-.42,.12-.64,0-.83-.34-.35-.61-.72-1.21-1.08-1.82,.03-.21,.07-.42,.1-.62,.16-.08,.38,0,.49-.22,.25-.47,.16-1.85-.16-2.25,.39,0,.28-.32,.3-.52,.29-2.59,.58-5.19,.83-7.78,.18-1.82-.74-2.68-2.29-2.84-8.26-.85-16.51-1.75-24.76-2.63-1.45-.16-2.44,.63-2.6,2.09-.29,2.66-.57,5.32-.85,7.98-.02,.18-.12,.38,.05,.55-.63,.7-.68,2.01-.11,2.72-.01,.16-.02,.32-.04,.48-.39,.99-.55,2.05-.81,3.08-.82,3.18-1.61,6.36-2.39,9.55-.4,1.64-.95,3.24-1.13,4.92-.77,7.06-1.53,14.11-2.29,21.17-.02,.21-.02,.43-.03,.64-.46,4.28-.93,8.55-1.39,12.83-1.63,15.17-3.25,30.35-4.87,45.53-1.51,14.09-3.02,28.18-4.52,42.27-.05,.44-.13,.89,0,1.34-.05,.21-.02,.42,.02,.63,.28,1.66,1.08,3.06,2.32,4.14,.68,.59,1.48,1.13,2.44,1.27,0,0,0,0,0,0l.04,.04h.06c.1,.02,.19,.04,.29,.07,.04,.01,.09,.02,.13,.03,.36,.06,.71,.13,1.07,.17,10.15,1.09,20.3,2.18,30.45,3.26,18.83,2.01,37.66,4.03,56.49,6.04,.35,.04,.71,.18,1.06-.01v.03s.04,0,.04,0c.02,0,.04,0,.05,0,.44,.05,.86-.06,1.28-.18,.1,0,.22,.02,.31-.01,1.71-.44,2.98-1.49,3.89-2.95,.21-.34,.66-.65,.49-1.17,0-.04,.01-.07,.02-.11,.39-.44,.47-.99,.53-1.55Zm-34.6-121.02c-1.31-.64-2.02-2.04-1.86-3.64,.16-1.62,.34-3.23,.55-5.19,.21-1.49,.22-3.34,.62-5.14,.55-2.46,3.12-3.51,5.26-2.17,3.31,2.08,6.6,4.18,9.91,6.27,5.05,3.2,10.11,6.4,15.16,9.6,.99,.63,1.99,1.25,2.97,1.9,1.84,1.21,2.08,3.82,.49,5.33-1.47,1.4-2.95,2.79-4.43,4.17-1.2,1.11-2.67,1.28-4.15,.57-5.69-2.72-11.38-5.42-17.07-8.13-2.49-1.19-4.97-2.38-7.45-3.58Zm22.37,101.24c-1.04,.21-2.05,.14-2.98-.39-2.57-1.48-5.14-2.97-7.7-4.49-1.49-.88-2.11-2.21-1.93-3.95,1.95-18.17,3.91-36.35,5.82-54.52,.23-2.19,1.29-3.44,3.34-4.09,2.51-.79,4.98-1.68,7.46-2.55,1.93-.68,3.81-.2,5,1.37,.59,.78,.81,1.67,.7,2.65-1.12,10.47-2.24,20.94-3.36,31.41h0c-1.1,10.3-2.23,20.6-3.28,30.9-.2,1.96-1.55,3.34-3.06,3.65Z"/><path class="cls-2" d="M460.77,443.41c1.39-5.81,2.78-11.63,4.17-17.44,.23-.98,.54-1.95,.65-2.96,.04-.16,.07-.31,.11-.47,.08-.23,.17-.46,.23-.7,.33-1.35,.65-2.7,.97-4.05,6.57-27.49,13.14-54.99,19.73-82.48,.24-1.01,.38-2.02,.34-3.04-.07-1.76-.57-3.41-1.59-4.88-1.03-1.48-2.36-2.63-3.9-3.54h0c-.43-.65-1.06-1.05-1.72-1.41-.94-.77-1.88-1.56-2.83-2.32-4.09-3.26-8.18-6.52-12.27-9.78-1.07-.85-2.05-1.81-3.23-2.52-.05-.06-.09-.13-.15-.18-2.36-1.92-4.72-3.85-7.11-5.74-.45-.35-.83-.83-1.42-1-.02-.27-.23-.31-.43-.38-.2-.34-.48-.58-.86-.7t0,0c-.61-.78-1.51-1.11-2.39-1.44-2.2-.81-4.52-1.11-6.83-1.43-4.64-.65-9.29-.56-13.92,.1-.42,.06-.61-.08-.75-.43-.26-.63-.54-1.25-.81-1.88,.06-.19,.11-.39,.17-.59,.16-.05,.36,.05,.5-.15,.29-.42,.38-1.76,.12-2.17,.37,.04,.3-.27,.35-.46,.6-2.45,1.2-4.9,1.76-7.36,.39-1.72-.38-2.67-1.85-3.01-7.82-1.83-15.62-3.72-23.42-5.58-1.38-.33-2.42,.3-2.75,1.68-.61,2.51-1.2,5.03-1.8,7.55-.04,.17-.17,.35-.02,.53-.69,.6-.9,1.85-.44,2.6-.03,.15-.06,.3-.1,.45-.5,.9-.78,1.9-1.16,2.85-1.18,2.95-2.33,5.9-3.48,8.87-.59,1.52-1.31,2.99-1.69,4.58-1.61,6.68-3.21,13.35-4.82,20.03-.05,.2-.07,.41-.11,.61-.97,4.04-1.95,8.09-2.92,12.13-3.43,14.36-6.86,28.71-10.3,43.07-3.19,13.33-6.38,26.66-9.56,39.99-.1,.42-.24,.84-.16,1.28-.08,.2-.07,.4-.06,.61,.06,1.63,.66,3.07,1.72,4.26,.58,.65,1.28,1.27,2.18,1.52,0,0,0,0,0,0l.03,.05h.06c.09,.03,.18,.07,.27,.11,.04,.02,.08,.03,.12,.05,.34,.1,.67,.21,1.01,.29,9.6,2.3,19.2,4.59,28.81,6.89,17.82,4.26,35.63,8.52,53.45,12.77,.33,.08,.66,.26,1.02,.12v.03s.03,0,.03,0c.02,0,.03,0,.05,.01,.42,.1,.84,.05,1.25-.02,.1,.01,.2,.04,.3,.03,1.7-.21,3.04-1.06,4.1-2.35,.25-.3,.72-.54,.61-1.06,.01-.03,.02-.07,.04-.1,.43-.38,.57-.9,.7-1.42Zm-18.25-120.37c-1.18-.78-1.69-2.21-1.34-3.72,.35-1.53,.73-3.06,1.17-4.91,.39-1.4,.63-3.18,1.23-4.85,.83-2.29,3.43-2.98,5.31-1.43,2.92,2.4,5.82,4.83,8.73,7.24,4.45,3.7,8.9,7.39,13.36,11.09,.87,.73,1.76,1.45,2.62,2.19,1.61,1.39,1.52,3.92-.18,5.18-1.58,1.16-3.17,2.31-4.77,3.46-1.28,.92-2.72,.9-4.05,.03-5.12-3.31-10.25-6.6-15.37-9.91-2.24-1.44-4.47-2.89-6.7-4.36Zm8.95,99.88c-1.02,.08-1.99-.11-2.81-.74-2.29-1.74-4.57-3.49-6.83-5.26-1.32-1.03-1.76-2.38-1.36-4.02,4.12-17.19,8.24-34.38,12.32-51.59,.49-2.07,1.66-3.14,3.71-3.51,2.5-.45,4.99-.99,7.47-1.52,1.94-.42,3.68,.28,4.63,1.93,.47,.82,.57,1.7,.35,2.63-2.37,9.9-4.74,19.81-7.11,29.72h0c-2.33,9.74-4.69,19.48-6.97,29.24-.43,1.86-1.9,3.01-3.39,3.13Z"/><path class="cls-3" d="M731.34,468.73c.56-5.22,1.12-10.43,1.67-15.65,.09-.88,.25-1.76,.24-2.65,.01-.14,.03-.28,.05-.42,.04-.21,.09-.42,.12-.64,.13-1.21,.26-2.42,.39-3.63,2.64-24.67,5.28-49.33,7.93-74,.1-.9,.1-1.8-.05-2.69-.26-1.53-.88-2.91-1.93-4.07-1.07-1.17-2.35-2.03-3.79-2.64h0c-.44-.52-1.04-.8-1.66-1.04-.91-.57-1.81-1.15-2.73-1.7-3.92-2.38-7.85-4.76-11.77-7.14-1.03-.62-1.99-1.35-3.09-1.83-.05-.05-.09-.1-.15-.14-2.27-1.41-4.54-2.82-6.83-4.2-.43-.26-.82-.63-1.35-.72-.05-.23-.24-.25-.42-.28-.21-.27-.48-.45-.83-.52t0,0c-.62-.61-1.44-.8-2.24-.98-2.01-.46-4.06-.46-6.1-.48-4.12-.04-8.15,.55-12.11,1.64-.36,.1-.54,0-.71-.29-.3-.52-.61-1.03-.92-1.54,.03-.18,.06-.35,.08-.53,.14-.06,.32,0,.42-.19,.21-.4,.13-1.57-.14-1.91,.33,0,.23-.27,.25-.44,.24-2.2,.5-4.4,.71-6.61,.15-1.54-.63-2.28-1.94-2.41-7.01-.72-14.01-1.48-21.01-2.23-1.23-.13-2.07,.53-2.2,1.77-.25,2.26-.48,4.51-.72,6.77-.02,.15-.11,.32,.04,.46-.53,.6-.58,1.71-.09,2.31-.01,.13-.02,.27-.03,.4-.33,.84-.47,1.74-.69,2.61-.7,2.7-1.37,5.4-2.03,8.11-.34,1.39-.81,2.75-.96,4.18-.65,5.99-1.3,11.98-1.95,17.97-.02,.18-.02,.36-.03,.54-.39,3.63-.79,7.26-1.18,10.89-1.38,12.88-2.76,25.76-4.13,38.64-1.28,11.96-2.56,23.92-3.84,35.88-.04,.38-.11,.76,0,1.13-.05,.18-.02,.36,.02,.54,.24,1.41,.92,2.6,1.97,3.52,.58,.5,1.25,.96,2.07,1.08,0,0,0,0,0,0l.04,.04h.05c.08,.01,.16,.03,.24,.06,.04,0,.07,.02,.11,.03,.3,.05,.61,.11,.91,.14,8.61,.92,17.23,1.85,25.84,2.77,15.98,1.71,31.97,3.42,47.95,5.13,.3,.03,.61,.15,.9-.01v.03s.03,0,.03,0c.02,0,.03,0,.05,0,.38,.04,.73-.05,1.09-.16,.09,0,.18,.01,.27,0,1.45-.37,2.53-1.27,3.31-2.51,.18-.29,.56-.55,.41-.99,0-.03,.01-.06,.02-.09,.33-.38,.4-.84,.45-1.31Zm-29.37-102.72c-1.12-.54-1.72-1.73-1.58-3.09,.14-1.37,.29-2.74,.47-4.4,.18-1.26,.19-2.84,.53-4.36,.47-2.09,2.65-2.98,4.46-1.84,2.81,1.76,5.61,3.55,8.41,5.33,4.29,2.72,8.58,5.44,12.87,8.15,.84,.53,1.69,1.06,2.52,1.61,1.56,1.03,1.77,3.24,.42,4.53-1.25,1.19-2.5,2.37-3.76,3.54-1.02,.94-2.26,1.09-3.52,.48-4.83-2.31-9.66-4.6-14.49-6.9-2.11-1.01-4.22-2.02-6.32-3.04Zm18.99,85.93c-.88,.18-1.74,.12-2.53-.33-2.19-1.26-4.37-2.52-6.53-3.81-1.26-.75-1.79-1.87-1.64-3.35,1.66-15.43,3.32-30.85,4.94-46.28,.19-1.86,1.09-2.92,2.83-3.47,2.13-.67,4.23-1.42,6.33-2.16,1.64-.58,3.23-.17,4.24,1.17,.5,.66,.69,1.42,.6,2.25-.95,8.89-1.9,17.77-2.86,26.66h0c-.94,8.74-1.9,17.48-2.79,26.23-.17,1.66-1.32,2.84-2.6,3.1Z"/><path class="cls-2" d="M651.45,299.19c0-4.36,0-8.72,0-13.08,0-.74,.05-1.48-.04-2.21,0-.12,0-.23,0-.35,.01-.18,.04-.36,.04-.54,0-1.01,0-2.02,0-3.03,0-20.61,0-41.23,0-61.84,0-.76-.07-1.5-.28-2.21-.35-1.24-.98-2.32-1.96-3.19-.98-.87-2.12-1.47-3.37-1.85h0c-.41-.39-.93-.57-1.46-.71-.8-.39-1.6-.79-2.4-1.16-3.45-1.62-6.91-3.24-10.36-4.86-.9-.42-1.76-.94-2.72-1.24-.05-.03-.09-.08-.14-.1-2-.96-4-1.93-6.02-2.86-.38-.17-.73-.45-1.18-.47-.06-.18-.22-.18-.37-.2-.2-.21-.44-.33-.73-.35t0,0c-.57-.45-1.26-.53-1.94-.62-1.7-.2-3.39-.02-5.09,.15-3.4,.33-6.68,1.18-9.86,2.43-.29,.11-.45,.05-.61-.18-.29-.4-.59-.8-.89-1.19,0-.15,.01-.3,.02-.44,.11-.07,.26-.03,.33-.19,.14-.35-.03-1.31-.28-1.56,.27-.03,.17-.25,.17-.39,0-1.84,.02-3.68,0-5.52-.01-1.29-.72-1.83-1.82-1.82-5.85,.03-11.71,.01-17.56,.01-1.03,0-1.66,.62-1.66,1.66,0,1.89,0,3.77,0,5.66,0,.13-.06,.28,.08,.38-.39,.54-.33,1.46,.13,1.92,0,.11,0,.22,0,.34-.2,.73-.23,1.48-.34,2.22-.34,2.29-.65,4.58-.96,6.88-.16,1.18-.42,2.34-.42,3.54,0,5.01-.01,10.01-.02,15.02,0,.15,.02,.3,.03,.45,0,3.03-.01,6.07-.01,9.1,0,10.76,0,21.53,0,32.29,0,9.99,0,19.99,0,29.98,0,.31-.03,.63,.1,.94-.02,.15,.02,.3,.06,.44,.32,1.14,.99,2.07,1.94,2.73,.52,.36,1.12,.68,1.81,.71,0,0,0,0,0,0l.03,.03h.04c.07,0,.14,0,.21,.02,.03,0,.06,0,.1,.01,.26,.01,.51,.04,.77,.04,7.2,0,14.4,0,21.6,0,13.36,0,26.72,0,40.07,0,.25,0,.51,.07,.75-.09v.02s.03,0,.03,0c.01,0,.03,0,.04,0,.31,0,.6-.1,.89-.22,.07,0,.15,0,.22-.03,1.17-.44,1.97-1.27,2.51-2.36,.13-.26,.42-.5,.25-.86,0-.03,0-.05,0-.08,.24-.34,.25-.73,.25-1.13Zm-33.35-82.28c-.97-.35-1.57-1.28-1.58-2.41,0-1.15,0-2.29,0-3.68,.04-1.06-.1-2.36,.05-3.65,.2-1.77,1.92-2.7,3.52-1.92,2.48,1.21,4.95,2.44,7.42,3.66,3.78,1.87,7.57,3.73,11.35,5.6,.74,.37,1.49,.73,2.23,1.11,1.38,.71,1.75,2.52,.75,3.7-.92,1.09-1.86,2.18-2.8,3.26-.76,.87-1.78,1.1-2.87,.71-4.19-1.48-8.39-2.95-12.58-4.42-1.83-.64-3.66-1.29-5.49-1.95Zm23.29,69.32c-.71,.23-1.43,.26-2.12-.05-1.92-.85-3.83-1.7-5.74-2.57-1.11-.51-1.65-1.39-1.65-2.62,0-12.89,.02-25.78-.01-38.67,0-1.55,.65-2.51,2.03-3.12,1.7-.74,3.37-1.55,5.04-2.35,1.3-.62,2.66-.42,3.61,.59,.47,.5,.69,1.11,.69,1.81,0,7.43,0,14.85,0,22.28h0c0,7.31-.02,14.61,.02,21.92,0,1.39-.84,2.46-1.87,2.79Z"/><path class="cls-2" d="M536.22,276.45c.96-4.25,1.93-8.5,2.89-12.75,.16-.72,.38-1.43,.45-2.17,.03-.11,.05-.23,.08-.34,.05-.17,.12-.34,.16-.51,.23-.98,.45-1.97,.67-2.96,4.55-20.1,9.11-40.21,13.67-60.31,.17-.74,.26-1.48,.22-2.22-.07-1.28-.44-2.48-1.21-3.55-.77-1.07-1.74-1.9-2.88-2.55h0c-.32-.47-.78-.76-1.27-1.02-.7-.56-1.38-1.12-2.09-1.67-3.01-2.34-6.02-4.68-9.03-7.02-.79-.61-1.51-1.3-2.38-1.81-.04-.04-.07-.09-.11-.13-1.74-1.38-3.48-2.77-5.24-4.12-.33-.25-.61-.6-1.04-.72-.02-.19-.17-.23-.32-.27-.15-.25-.36-.42-.63-.51t0,0c-.46-.56-1.11-.8-1.75-1.03-1.61-.57-3.31-.77-4.99-.98-3.39-.43-6.78-.33-10.15,.19-.31,.05-.45-.05-.55-.31-.2-.46-.4-.91-.61-1.36,.04-.14,.08-.29,.12-.43,.12-.04,.26,.03,.36-.11,.21-.31,.26-1.29,.07-1.59,.27,.03,.22-.2,.25-.34,.41-1.79,.83-3.59,1.22-5.39,.27-1.26-.3-1.94-1.37-2.18-5.71-1.27-11.42-2.57-17.13-3.87-1.01-.23-1.76,.24-1.99,1.25-.42,1.84-.83,3.68-1.24,5.52-.03,.13-.12,.26-.01,.39-.5,.44-.64,1.36-.3,1.9-.02,.11-.04,.22-.07,.33-.36,.66-.55,1.39-.82,2.09-.83,2.16-1.65,4.33-2.46,6.5-.41,1.11-.93,2.19-1.2,3.35-1.11,4.88-2.23,9.76-3.34,14.65-.03,.15-.05,.3-.07,.44-.67,2.96-1.35,5.91-2.02,8.87-2.38,10.5-4.75,21-7.13,31.5-2.21,9.75-4.42,19.49-6.62,29.24-.07,.31-.17,.61-.11,.94-.06,.14-.05,.29-.04,.44,.06,1.19,.51,2.23,1.29,3.09,.43,.47,.94,.91,1.6,1.09,0,0,0,0,0,0l.03,.03h.04c.06,.02,.13,.05,.19,.07,.03,.01,.06,.02,.09,.03,.25,.07,.49,.15,.74,.21,7.02,1.59,14.04,3.18,21.06,4.77,13.03,2.95,26.06,5.9,39.08,8.85,.24,.06,.49,.18,.75,.08v.02s.02,0,.02,0c.01,0,.03,0,.04,0,.31,.07,.61,.03,.91-.02,.07,0,.15,.03,.22,.02,1.23-.17,2.21-.8,2.97-1.75,.18-.22,.52-.4,.44-.78,0-.02,.02-.05,.02-.07,.31-.28,.41-.66,.5-1.04Zm-14.35-87.61c-.87-.56-1.25-1.59-1.01-2.7,.25-1.12,.5-2.24,.81-3.59,.27-1.02,.43-2.32,.86-3.55,.59-1.68,2.47-2.2,3.86-1.09,2.15,1.73,4.29,3.47,6.43,5.21,3.28,2.66,6.56,5.31,9.83,7.97,.64,.52,1.29,1.04,1.93,1.57,1.19,1,1.15,2.85-.09,3.78-1.14,.86-2.29,1.71-3.45,2.56-.93,.68-1.97,.68-2.95,.06-3.76-2.37-7.53-4.73-11.29-7.09-1.64-1.03-3.29-2.07-4.92-3.12Zm7.4,72.76c-.74,.06-1.45-.07-2.06-.52-1.68-1.25-3.36-2.5-5.03-3.78-.97-.74-1.3-1.72-1.03-2.92,2.85-12.57,5.71-25.14,8.53-37.72,.34-1.52,1.18-2.31,2.67-2.59,1.82-.35,3.63-.77,5.44-1.18,1.41-.32,2.69,.17,3.39,1.37,.35,.59,.43,1.24,.28,1.92-1.64,7.24-3.28,14.49-4.92,21.73h0c-1.61,7.12-3.25,14.25-4.83,21.38-.3,1.36-1.36,2.21-2.44,2.31Z"/><path class="cls-4" d="M625.13,151.56c.82-3.61,1.63-7.21,2.45-10.82,.14-.61,.32-1.21,.38-1.84,.02-.1,.04-.19,.07-.29,.05-.14,.1-.29,.14-.44,.19-.84,.38-1.67,.57-2.51,3.86-17.06,7.73-34.11,11.6-51.17,.14-.63,.22-1.26,.19-1.88-.06-1.09-.38-2.11-1.02-3.01-.65-.91-1.48-1.61-2.44-2.16h0c-.27-.4-.66-.64-1.07-.86-.59-.47-1.17-.95-1.77-1.41-2.55-1.99-5.11-3.97-7.66-5.96-.67-.52-1.28-1.11-2.02-1.53-.03-.04-.06-.08-.09-.11-1.48-1.17-2.95-2.35-4.44-3.5-.28-.22-.52-.51-.88-.61-.01-.16-.15-.19-.27-.23-.13-.21-.3-.36-.54-.43t0,0c-.39-.48-.94-.68-1.49-.87-1.37-.49-2.81-.65-4.24-.83-2.88-.37-5.75-.28-8.61,.16-.26,.04-.38-.05-.47-.26-.17-.39-.34-.77-.52-1.16,.03-.12,.07-.24,.1-.36,.1-.03,.22,.03,.31-.1,.18-.26,.22-1.09,.06-1.35,.23,.02,.19-.17,.21-.29,.35-1.52,.71-3.04,1.04-4.57,.23-1.07-.26-1.65-1.16-1.85-4.85-1.08-9.69-2.18-14.53-3.28-.85-.19-1.49,.2-1.69,1.06-.36,1.56-.71,3.12-1.06,4.68-.02,.11-.1,.22,0,.33-.42,.37-.54,1.15-.25,1.61-.02,.09-.04,.19-.06,.28-.3,.56-.47,1.18-.7,1.77-.71,1.83-1.4,3.67-2.08,5.51-.35,.94-.79,1.86-1.01,2.85-.94,4.14-1.89,8.28-2.83,12.42-.03,.12-.04,.25-.06,.38-.57,2.51-1.15,5.02-1.72,7.53-2.02,8.91-4.03,17.81-6.05,26.72-1.87,8.27-3.75,16.54-5.62,24.81-.06,.26-.14,.52-.09,.79-.05,.12-.04,.25-.03,.38,.05,1.01,.43,1.89,1.09,2.62,.36,.4,.8,.77,1.36,.92,0,0,0,0,0,0l.02,.03h.04c.05,.02,.11,.04,.16,.06,.03,0,.05,.02,.08,.03,.21,.06,.42,.13,.63,.17,5.96,1.35,11.91,2.7,17.87,4.05,11.05,2.5,22.11,5.01,33.16,7.51,.21,.05,.41,.16,.63,.07v.02s.02,0,.02,0c.01,0,.02,0,.03,0,.26,.06,.52,.03,.78-.02,.06,0,.13,.02,.19,.02,1.05-.14,1.87-.68,2.52-1.49,.15-.19,.44-.34,.37-.66,0-.02,.01-.04,.02-.06,.26-.24,.35-.56,.42-.88Zm-12.18-74.33c-.74-.47-1.06-1.35-.86-2.29,.21-.95,.43-1.9,.69-3.04,.23-.87,.36-1.97,.73-3.01,.5-1.43,2.1-1.87,3.27-.93,1.82,1.46,3.64,2.94,5.45,4.42,2.78,2.25,5.56,4.51,8.34,6.76,.55,.44,1.1,.88,1.64,1.33,1.01,.85,.97,2.41-.08,3.2-.97,.73-1.94,1.45-2.92,2.17-.79,.58-1.67,.57-2.51,.05-3.19-2.01-6.39-4.01-9.58-6.02-1.4-.88-2.79-1.76-4.18-2.65Zm6.28,61.73c-.63,.06-1.23-.06-1.74-.44-1.43-1.06-2.85-2.12-4.26-3.2-.82-.63-1.1-1.46-.87-2.48,2.42-10.67,4.85-21.33,7.24-32,.29-1.29,1.01-1.96,2.27-2.2,1.54-.3,3.08-.65,4.61-1,1.2-.27,2.28,.15,2.88,1.16,.3,.5,.36,1.05,.23,1.63-1.39,6.14-2.79,12.29-4.18,18.44h0c-1.37,6.04-2.76,12.09-4.09,18.14-.25,1.15-1.15,1.88-2.07,1.96Z"/><path class="cls-4" d="M535.31,104.49c-.49-3.67-.98-7.33-1.47-11-.08-.62-.12-1.25-.28-1.86-.01-.1-.03-.2-.04-.29,0-.15,0-.31-.03-.46-.11-.85-.22-1.7-.34-2.55-2.31-17.34-4.62-34.67-6.92-52.01-.08-.64-.23-1.25-.48-1.83-.43-1-1.09-1.84-2-2.46-.93-.62-1.94-1-3.04-1.18h0c-.39-.28-.84-.37-1.31-.43-.72-.24-1.43-.48-2.15-.71-3.08-.98-6.17-1.95-9.26-2.92-.81-.25-1.59-.59-2.42-.74-.04-.02-.08-.06-.13-.07-1.79-.58-3.58-1.18-5.38-1.73-.34-.1-.67-.29-1.04-.27-.07-.15-.2-.13-.33-.12-.19-.15-.41-.23-.65-.22t0,0c-.53-.31-1.12-.31-1.7-.3-1.45,.02-2.86,.37-4.26,.69-2.83,.66-5.49,1.74-8.02,3.15-.23,.13-.37,.09-.53-.08-.29-.31-.59-.6-.88-.9-.01-.12-.02-.25-.03-.38,.08-.07,.22-.05,.25-.2,.08-.31-.17-1.1-.41-1.28,.23-.06,.11-.23,.1-.34-.2-1.55-.4-3.1-.62-4.64-.16-1.08-.81-1.45-1.73-1.33-4.92,.68-9.84,1.32-14.77,1.98-.87,.12-1.33,.71-1.21,1.58,.21,1.59,.42,3.17,.64,4.76,.01,.11-.02,.24,.11,.31-.27,.5-.11,1.27,.32,1.6,.02,.09,.03,.19,.05,.28-.09,.63-.03,1.27-.04,1.9-.03,1.96-.04,3.93-.04,5.89,0,1.01-.09,2.02,.04,3.02,.55,4.21,1.11,8.42,1.67,12.63,.02,.13,.05,.25,.07,.37,.34,2.55,.67,5.1,1.01,7.65,1.2,9.05,2.41,18.11,3.62,27.16,1.12,8.4,2.24,16.81,3.36,25.21,.04,.26,.05,.54,.19,.78,0,.13,.05,.25,.1,.36,.4,.93,1.06,1.63,1.94,2.08,.48,.25,1.02,.45,1.6,.39,0,0,0,0,0,0l.03,.02h.03c.06-.01,.12-.01,.18-.01,.03,0,.05,0,.08,0,.22-.02,.43-.03,.65-.05,6.05-.8,12.11-1.61,18.16-2.42,11.23-1.5,22.47-2.99,33.7-4.49,.21-.03,.44,0,.62-.16v.02s.03,0,.03,0c.01,0,.02,0,.03,0,.26-.04,.49-.15,.72-.29,.06-.02,.13-.02,.18-.05,.93-.5,1.52-1.29,1.85-2.27,.08-.23,.29-.47,.12-.75,0-.02,0-.04,0-.06,.16-.31,.13-.64,.09-.98Zm-37.26-65.46c-.86-.19-1.46-.9-1.6-1.85-.14-.96-.26-1.93-.41-3.09-.09-.89-.34-1.97-.37-3.08-.03-1.51,1.32-2.48,2.75-2.01,2.22,.74,4.43,1.5,6.65,2.24,3.39,1.15,6.78,2.29,10.17,3.44,.67,.23,1.33,.45,2,.68,1.24,.44,1.75,1.93,1.04,3.03-.65,1.02-1.32,2.04-1.99,3.05-.54,.82-1.37,1.12-2.33,.92-3.69-.78-7.38-1.54-11.07-2.31-1.61-.34-3.23-.68-4.84-1.03Zm27.35,55.69c-.57,.27-1.17,.37-1.79,.2-1.71-.5-3.41-1-5.11-1.52-.99-.3-1.54-.98-1.68-2.02-1.44-10.84-2.87-21.69-4.34-32.52-.18-1.31,.26-2.18,1.36-2.85,1.34-.82,2.66-1.68,3.98-2.54,1.03-.67,2.19-.65,3.1,.09,.45,.37,.71,.86,.79,1.44,.83,6.25,1.66,12.49,2.49,18.74h0c.82,6.15,1.62,12.29,2.47,18.43,.16,1.17-.43,2.16-1.26,2.56Z"/></svg>