<?xml version="1.0" encoding="UTF-8"?><svg id="Layer_2" xmlns="http://www.w3.org/2000/svg" viewBox="0 0 247.3 58.78"><defs><style>.cls-1{fill:#a60000;}</style></defs><g id="Layer_1-2"><g><path d="M143.44,16.58c4.61,.06,6.61,2.33,6.03,7.04-.43,3.49-1.9,6.68-3.15,9.93-1.67,4.34-3.4,8.66-4.93,13.04-.45,1.29-1.8,3.04-.23,4.09,1.79,1.19,2.97-.76,4.13-1.83,1.34-1.23,2.52-2.65,3.79-3.95,.45-.46,1.04-.97,1.68-.54,.63,.42,.5,1.19,.26,1.82-1.97,5.27-13.79,12.95-19.36,12.59-3.57-.23-5.48-2.32-5.13-5.92,.36-3.66,1.6-7.11,2.93-10.52,2.06-5.25,4.14-10.49,6.18-15.76,.46-1.19,1.43-2.7-.03-3.58-1.28-.77-2.52,.39-3.46,1.33-1.64,1.65-3.17,3.4-4.79,5.07-.47,.48-1.11,.77-1.74,.2-.63-.56-.35-1.21-.08-1.81,2.42-5.39,11.85-11.29,17.88-11.2Z"/><path d="M156.61,28.93c0-2.99-.15-6,.04-8.98,.2-3.22,1.89-4.03,4.66-2.35,1.27,.77,2.36,1.83,3.51,2.79,4.83,4.07,9.65,8.16,14.49,12.22,.61,.51,1.2,1.36,2.11,1.01,1-.37,.61-1.41,.62-2.15,.05-3.82,.02-7.65,.04-11.47,0-1.52-.07-3.12,2.19-3.09,2.27,.03,2.11,1.69,2.12,3.17,.03,5.65,.03,11.31,0,16.96,0,1.31,.15,2.77-1.32,3.5-1.65,.82-2.88-.21-4.02-1.17-4.98-4.15-9.93-8.34-14.89-12.52-1.02-.86-2.04-1.7-3.07-2.55-1.4-1.16-2.01-.72-2.01,.99,0,3.16,0,6.32-.01,9.48,0,1.16-.02,2.33-.03,3.49-.02,1.59-.76,2.53-2.41,2.49-1.5-.03-1.98-1.09-1.99-2.36-.04-3.16-.01-6.32-.01-9.48h-.01Z"/><path d="M247.28,28.76c0,1,0,1.99,0,2.99-.04,6.21-1.46,8.12-7.58,8.8-5.1,.57-10.29,.82-15.38-.33-4.76-1.07-6.07-2.79-6.15-7.57-.04-2.66-.05-5.32,0-7.98,.09-4.63,1.73-6.86,6.27-7.48,5.6-.77,11.29-.66,16.91-.07,4.13,.44,5.72,2.51,5.9,6.65,.07,1.66,.01,3.32,.02,4.99Zm-14.71,8.15c2.16,0,4.33,.12,6.48-.03,2.47-.17,4.02-1.37,3.95-4.12-.07-2.66-.06-5.32,0-7.98,.05-2.43-1.16-3.63-3.49-4.02-3.64-.61-7.3-.48-10.95-.29-5.28,.28-5.89,1.04-5.95,6.32q-.13,10.24,9.96,10.11Z"/><path class="cls-1" d="M107.86,41.21c-2.82-.17-5.68-.07-8.44-.57-4.57-.83-6.13-2.91-6.2-7.56-.05-2.83-.07-5.65,.01-8.48,.11-3.84,1.31-5.72,4.84-6.54,6.38-1.49,12.88-1.42,19.28-.14,3.45,.69,4.67,2.45,4.79,5.99,.11,3.32,.09,6.65,.01,9.97-.09,3.97-1.46,5.6-5.35,6.67-.64,.17-1.3,.33-1.96,.34-2.33,.04-6.98,.22-6.99,.33Zm.14-20.46c0,.06-4,.02-5.98,.2-3.48,.31-4.38,1.25-4.53,4.63-.11,2.49,.02,4.99-.03,7.48-.05,2.65,1.29,3.9,3.83,4.27,3.65,.52,7.31,.46,10.95,.22,5.16-.33,5.75-1.11,5.78-6.49,.01-1.99-.03-3.99,0-5.98,.03-2.43-1.28-3.74-3.55-4-2.14-.25-4.31-.22-6.47-.32Z"/><path class="cls-1" d="M34.39,26.9c0-2.5-.03-4.99,.01-7.49,.03-1.36,.78-2.19,2.18-2.18,1.41,0,2.15,.88,2.18,2.21,.07,3.99,.04,7.98,.09,11.98,.06,4.97,.68,5.76,5.68,6.07,3.47,.22,7,.2,10.46-.1,3.87-.34,4.51-1.17,4.62-5.06,.11-3.99,.02-7.99,.06-11.98,.02-1.53,.12-3.19,2.29-3.1,2.13,.1,2.08,1.76,2.08,3.28,0,4.33,.09,8.65-.02,12.98-.1,3.78-1.26,5.57-4.94,6.53-6.69,1.76-13.5,1.51-20.24,.12-3.02-.62-4.43-2.77-4.47-5.79-.04-2.49,0-4.99,0-7.49,0,0,.02,0,.02,0Z"/><path class="cls-1" d="M16.57,34.84c-1.66,0-3.34,.17-4.98-.04-1.53-.19-4.43,.17-4.43,.17,0,0-2.05,1.92-2.84,3.62-.21,.44-.56,.82-.86,1.22-.76,1.02-1.7,1.76-2.9,.82-1.01-.8-.46-1.84,.08-2.67,4.17-6.4,8.28-12.85,12.62-19.14,1.87-2.72,3.98-2.61,5.98,.13,4.4,6.04,8.67,12.18,12.96,18.31,.46,.66,.91,1.44,1.02,2.22,.21,1.44-1.34,2.43-2.67,1.79-.43-.21-.83-.55-1.16-.91-1.55-1.69-2.14-4.64-4.39-5.18-2.67-.64-8.42-.28-8.42-.34Zm-.88-3.69c1.42,0,2.58,.05,3.74,0,2.87-.15,3.03-.39,1.61-2.72-.86-1.41-1.83-2.75-2.8-4.09-1.98-2.73-2-2.72-4.01,0-.39,.53-.82,1.06-1.12,1.64-.81,1.57-2.95,5-2.95,5,0,0,4.03-.04,5.53,.18Z"/><path d="M204.19,30.79c-2.49,0-4.99,.1-7.48-.03-2.45-.12-3.8,.59-3.5,3.34,.16,1.48,.02,2.99-.02,4.48-.04,1.36-.72,2.17-2.15,2.16-1.46-.01-2.08-.92-2.09-2.24-.02-5.48-.02-10.96,.04-16.45,.02-1.89,1.33-2.97,2.85-3.78,3.07-1.63,6.41-1.56,9.74-1.39,1.13,.06,1.84,.65,1.78,1.88-.05,1.02-.75,1.41-1.63,1.52-1.81,.22-3.63,.43-5.45,.59-2.66,.22-3.16,1.88-3.02,4.17,.15,2.39,1.9,1.88,3.28,1.9,4.49,.05,8.97,.02,13.46,.02,1,0,1.99,0,2.99,.01,1.4,.02,2.86,.17,2.75,2.01-.08,1.43-1.31,1.76-2.56,1.76-2.99,0-5.98,0-8.97,0,0,0,0,.02,0,.02Z"/><path class="cls-1" d="M79.17,17.16c3.66,0,7.33,0,10.99,0,1.31,0,2.42,.41,2.42,1.87,0,1.53-1.22,1.77-2.46,1.78-.5,0-1,0-1.5,.01q-7.2,.19-7.21,7.68c0,3.33,0,6.66-.05,9.99-.02,1.2-.18,2.38-1.81,2.47-1.74,.1-2.36-.84-2.36-2.43,0-4.66-.14-9.33,.02-13.99,.1-2.75-.75-4.01-3.64-3.74-1.82,.17-3.66,.05-5.49-.03-1.08-.05-1.92-.54-1.89-1.82,.03-1.28,.9-1.73,1.97-1.74,3.66-.04,7.33-.02,10.99-.02,0,0,0-.01,0-.02Z"/><path d="M154.89,6.17c-.07,3.91-3.42,6.99-7.53,6.93-3.53-.05-5.99-2.41-6.06-5.81-.08-3.79,3.35-7.23,7.27-7.28,3.62-.05,6.38,2.65,6.32,6.17Z"/></g></g></svg>