<?xml version="1.0" encoding="UTF-8"?><svg id="Layer_1" xmlns="http://www.w3.org/2000/svg" viewBox="0 0 200 200"><defs><style>.cls-1{fill:#01b9e5;}.cls-2{fill:#fff;}.cls-3{fill:#092745;}.cls-4{fill:#867c6e;}</style></defs><rect class="cls-2" width="200" height="200" rx="10" ry="10"/><g><g><path class="cls-3" d="M47.39,127.53h-6.8v2.73h6.24s0,2.23,0,2.23h-6.24v3.3h7.11s0,2.31,0,2.31h-9.74s0-12.85,0-12.85h9.42s0,2.28,0,2.28Z"/><path class="cls-3" d="M58,129.15c.62,.52,.93,1.37,.93,2.56v6.4s-2.55,0-2.55,0v-5.78c0-.5-.07-.88-.2-1.15-.24-.49-.7-.73-1.39-.73-.84,0-1.41,.36-1.72,1.07-.16,.38-.24,.86-.24,1.45v5.14s-2.49,0-2.49,0v-9.48s2.41,0,2.41,0v1.39c.32-.49,.62-.84,.9-1.06,.51-.38,1.16-.58,1.94-.58,.98,0,1.78,.26,2.4,.77Z"/><path class="cls-3" d="M68.25,128.8c.66,.3,1.21,.77,1.64,1.41,.39,.56,.64,1.22,.76,1.97,.07,.43,.1,1.06,.08,1.89h-6.92c.04,.95,.37,1.62,.99,2.01,.38,.24,.84,.35,1.37,.35,.57,0,1.03-.14,1.38-.44,.19-.16,.36-.37,.51-.65h2.54c-.07,.56-.37,1.14-.92,1.72-.85,.93-2.04,1.39-3.58,1.39-1.26,0-2.38-.39-3.35-1.17-.97-.78-1.45-2.05-1.45-3.8,0-1.65,.43-2.91,1.31-3.79,.87-.88,2-1.32,3.4-1.32,.83,0,1.57,.15,2.23,.45Zm-3.72,2.15c-.35,.36-.57,.85-.66,1.47h4.28c-.05-.66-.27-1.16-.66-1.5-.4-.34-.89-.51-1.47-.51-.64,0-1.13,.18-1.48,.54Z"/><path class="cls-3" d="M78.29,128.38s.1,0,.21,.02v2.54c-.16-.02-.3-.03-.42-.03-.12,0-.22,0-.3,0-1,0-1.67,.33-2.01,.97-.19,.37-.29,.93-.29,1.69v4.54s-2.5,0-2.5,0v-9.5s2.37,0,2.37,0v1.66c.38-.63,.72-1.07,1-1.3,.47-.39,1.07-.59,1.81-.59,.05,0,.09,0,.12,0Z"/><path class="cls-3" d="M85.42,128.6c.6,.25,1.09,.71,1.46,1.38v-1.37s2.42,0,2.42,0v9.02c0,1.23-.21,2.15-.62,2.77-.71,1.07-2.07,1.6-4.08,1.6-1.22,0-2.21-.24-2.97-.72-.77-.48-1.19-1.19-1.27-2.14h2.7c.07,.29,.18,.5,.34,.63,.26,.23,.72,.34,1.35,.34,.9,0,1.49-.3,1.8-.9,.2-.38,.3-1.03,.3-1.94v-.61c-.24,.41-.49,.71-.77,.91-.49,.38-1.14,.57-1.93,.57-1.22,0-2.2-.43-2.93-1.29-.73-.85-1.09-2.02-1.09-3.48,0-1.41,.35-2.6,1.05-3.56,.7-.96,1.7-1.44,2.99-1.44,.48,0,.89,.07,1.24,.22Zm.85,6.81c.4-.44,.6-1.14,.6-2.1,0-.9-.19-1.58-.57-2.06-.38-.47-.89-.7-1.52-.7-.87,0-1.47,.41-1.8,1.23-.17,.43-.26,.97-.26,1.61s.09,1.04,.28,1.47c.33,.81,.94,1.21,1.81,1.21,.58,0,1.07-.22,1.47-.66Z"/><path class="cls-3" d="M92.7,139.93l.32,.02c.24,.01,.48,0,.7-.03,.22-.03,.41-.09,.56-.2,.15-.1,.28-.31,.41-.62,.12-.31,.18-.51,.16-.58l-3.49-9.92h2.76s2.08,7.01,2.08,7.01l1.96-7.01h2.64s-3.26,9.35-3.26,9.35c-.63,1.8-1.13,2.92-1.49,3.35-.37,.43-1.1,.65-2.2,.65-.22,0-.4,0-.53,0-.13,0-.33-.01-.6-.03v-1.99Z"/></g><g><path class="cls-4" d="M102.14,137.93l4.98-12.68h1.36s4.86,12.68,4.86,12.68h-1.23s-1.46-3.98-1.46-3.98h-5.77s-1.5,3.98-1.5,3.98h-1.23Zm3.13-5h4.97s-2.48-6.65-2.48-6.65l-2.48,6.65Z"/><path class="cls-4" d="M121.93,128.81h1.06s0,9.12,0,9.12h-1.06s0-1.26,0-1.26c-.14,.16-.3,.33-.48,.51-.17,.18-.38,.34-.61,.48-.23,.15-.5,.27-.8,.37-.31,.1-.66,.15-1.06,.15-.61,0-1.12-.09-1.53-.26-.41-.17-.74-.41-.99-.71-.25-.31-.43-.66-.55-1.07-.11-.4-.17-.85-.17-1.33v-6s1.06,0,1.06,0v5.99c0,.79,.18,1.39,.54,1.81,.37,.42,.97,.63,1.8,.63,.43,0,.83-.09,1.17-.26,.35-.17,.63-.41,.87-.71,.24-.3,.42-.67,.55-1.09,.13-.42,.2-.89,.2-1.39v-4.97Z"/><path class="cls-4" d="M127.66,135.08c.17,.78,.46,1.34,.89,1.66,.43,.32,1.04,.49,1.84,.49,.39,0,.72-.05,1-.14,.28-.09,.51-.22,.7-.38,.18-.16,.32-.34,.41-.53,.09-.2,.14-.41,.14-.64,0-.45-.15-.78-.43-1-.29-.21-.65-.39-1.08-.51-.43-.12-.91-.23-1.41-.31-.51-.09-.97-.22-1.41-.4-.44-.17-.8-.42-1.08-.75-.29-.33-.43-.79-.43-1.39,0-.76,.28-1.39,.84-1.88,.56-.49,1.35-.73,2.37-.73s1.79,.22,2.4,.66c.62,.44,.99,1.18,1.12,2.21h-1.08c-.09-.7-.36-1.2-.8-1.49-.44-.29-.99-.43-1.66-.43s-1.18,.14-1.53,.43c-.35,.29-.53,.67-.53,1.13,0,.41,.14,.73,.43,.94,.29,.22,.65,.39,1.08,.53,.43,.13,.9,.25,1.41,.36,.51,.11,.98,.26,1.41,.45,.43,.19,.79,.45,1.08,.78,.29,.33,.43,.79,.43,1.37,0,.43-.09,.82-.28,1.15-.19,.34-.45,.61-.78,.84-.33,.22-.72,.39-1.17,.5-.45,.11-.95,.17-1.49,.17s-1.02-.08-1.44-.24c-.41-.16-.77-.38-1.06-.66-.29-.28-.52-.61-.68-.99-.16-.38-.26-.78-.28-1.22h1.07Z"/><path class="cls-4" d="M140.53,137.97c-.13,.02-.3,.06-.51,.12-.21,.06-.45,.09-.7,.09-.53,0-.93-.13-1.21-.4-.28-.26-.41-.74-.41-1.42v-6.67h-1.28s0-.88,0-.88h1.28v-2.53s1.06,0,1.06,0v2.53h1.71s0,.88,0,.88h-1.71v6.25c0,.22,0,.41,.02,.58,.01,.16,.05,.3,.11,.4,.06,.11,.15,.18,.27,.23,.12,.04,.29,.07,.52,.07,.14,0,.28-.01,.43-.04,.15-.02,.29-.05,.43-.09v.86Z"/><path class="cls-4" d="M144.86,137.93h-1.06s0-9.12,0-9.12h1.06s0,1.71,0,1.71h.03c.3-.73,.67-1.23,1.14-1.52,.46-.29,1.08-.43,1.84-.43v1.14c-.6-.01-1.09,.08-1.48,.28-.39,.2-.69,.47-.92,.81-.23,.34-.39,.74-.48,1.21-.09,.46-.13,.95-.13,1.45v4.47Z"/><path class="cls-4" d="M154.57,132.62c.2-.03,.44-.06,.71-.11,.28-.05,.5-.11,.68-.2,.18-.08,.28-.22,.32-.41,.04-.2,.06-.37,.06-.54,0-.54-.17-.98-.52-1.33-.35-.34-.93-.52-1.75-.52-.36,0-.7,.03-1,.1-.31,.06-.57,.17-.8,.33-.23,.16-.42,.37-.56,.63-.15,.26-.24,.6-.29,.99h-1.08c.04-.54,.16-1,.37-1.38,.21-.38,.48-.69,.82-.93,.33-.24,.72-.41,1.16-.53,.44-.11,.91-.17,1.4-.17,.46,0,.89,.05,1.29,.15,.41,.1,.76,.26,1.06,.48,.3,.22,.53,.51,.71,.87,.17,.36,.25,.81,.25,1.34v4.96c0,.41,.07,.67,.22,.78,.15,.11,.44,.09,.89-.08v.83c-.08,.02-.2,.06-.36,.11-.16,.05-.31,.07-.47,.07-.16,0-.32-.02-.48-.05-.18-.02-.32-.08-.42-.17-.1-.09-.19-.19-.25-.32-.07-.12-.11-.26-.13-.4-.02-.15-.03-.3-.03-.46-.45,.49-.96,.87-1.53,1.13-.57,.26-1.2,.39-1.87,.39-.4,0-.78-.05-1.15-.16-.37-.11-.7-.27-.98-.49-.28-.22-.5-.5-.67-.82-.17-.32-.25-.7-.25-1.15,0-1.55,1.06-2.47,3.19-2.75l1.46-.19Zm1.78,.53c-.45,.19-.9,.31-1.36,.37-.46,.06-.91,.11-1.37,.14-.81,.06-1.44,.24-1.89,.55-.45,.31-.68,.77-.68,1.39,0,.28,.06,.53,.17,.73,.11,.21,.26,.38,.44,.51,.18,.13,.39,.23,.63,.3,.24,.06,.48,.1,.73,.1,.42,0,.83-.05,1.23-.16,.4-.11,.75-.27,1.06-.49,.31-.22,.56-.49,.75-.83,.19-.33,.28-.73,.28-1.19v-1.43Z"/><path class="cls-4" d="M161.82,137.93v-12.68s1.06,0,1.06,0v12.68s-1.06,0-1.06,0Z"/><path class="cls-4" d="M167.04,126.82v-1.57s1.16,0,1.16,0v1.57s-1.16,0-1.16,0Zm.05,11.11v-9.12s1.06,0,1.06,0v9.12s-1.06,0-1.06,0Z"/><path class="cls-4" d="M176.06,132.62c.2-.03,.44-.06,.71-.11,.28-.05,.5-.11,.68-.2,.18-.08,.29-.22,.33-.41,.04-.2,.06-.37,.06-.54,0-.54-.17-.98-.52-1.33-.35-.34-.93-.52-1.75-.52-.36,0-.7,.03-1.01,.1-.3,.06-.57,.17-.8,.33-.23,.16-.42,.37-.56,.63-.15,.26-.24,.6-.29,.99h-1.08c.04-.54,.16-1,.37-1.38,.21-.38,.48-.69,.82-.93,.34-.24,.72-.41,1.16-.53,.44-.11,.91-.17,1.4-.17,.46,0,.89,.05,1.29,.15,.4,.1,.76,.26,1.06,.48,.3,.22,.53,.51,.7,.87,.17,.36,.25,.81,.25,1.34v4.96c0,.41,.07,.67,.22,.78,.15,.11,.44,.09,.89-.08v.83c-.08,.02-.2,.06-.36,.11-.16,.05-.31,.07-.47,.07-.17,0-.32-.02-.48-.05-.18-.02-.32-.08-.43-.17-.1-.09-.19-.19-.25-.32-.06-.12-.11-.26-.13-.4-.02-.15-.03-.3-.03-.46-.45,.49-.96,.87-1.53,1.13-.57,.26-1.2,.39-1.86,.39-.4,0-.78-.05-1.15-.16-.37-.11-.7-.27-.98-.49-.28-.22-.5-.5-.67-.82-.16-.32-.25-.7-.25-1.15,0-1.55,1.06-2.47,3.19-2.75l1.46-.19Zm1.78,.53c-.45,.19-.9,.31-1.36,.37-.46,.06-.92,.11-1.37,.14-.81,.06-1.44,.24-1.89,.55-.45,.31-.68,.77-.68,1.39,0,.28,.06,.53,.17,.73,.11,.21,.26,.38,.44,.51,.18,.13,.39,.23,.63,.3,.24,.06,.49,.1,.73,.1,.42,0,.83-.05,1.23-.16,.4-.11,.75-.27,1.07-.49,.31-.22,.56-.49,.75-.83,.19-.33,.28-.73,.28-1.19v-1.43Z"/></g><path class="cls-1" d="M104.42,79.3l-4.95-17.3h-11.88s6.44,19.03,6.44,19.03c1.87-.31,3.76-.62,5.66-.95,1.57-.26,3.16-.52,4.73-.78Z"/><path class="cls-1" d="M47.03,90.81c2.68-.63,5.62-1.27,8.72-1.98,.74-.16,1.5-.34,2.26-.51l8.97-26.32h-11.64s-8.32,28.81-8.32,28.81Z"/><path class="cls-1" d="M71.45,85.23c3.56-.7,7.26-1.43,11.05-2.18v-21.05h-11.05v23.23Z"/><path class="cls-1" d="M128.67,75.88l.9-.12,4.69-13.76h-11.56s-4.41,15.3-4.41,15.3c2.08-.29,4.17-.57,6.25-.85,1.38-.19,2.76-.38,4.13-.57Z"/><path class="cls-1" d="M153.5,73.3c1.28-.14,2.55-.27,3.81-.34,2.12-.15,4.2-.3,6.24-.44l-3.72-10.52h-12.59s-4.43,12.41-4.43,12.41c2.3-.24,4.58-.48,6.82-.71,1.3-.14,2.6-.27,3.88-.4Z"/><path class="cls-1" d="M40.66,92.41l-8.7-30.41h-11.96s11.11,32.86,11.11,32.86c1.21-.31,2.8-.72,4.73-1.22,1.42-.37,3.05-.78,4.82-1.24Z"/><path class="cls-3" d="M126,81.24c-2.74,.54-5.49,1.08-8.24,1.62-.13,.03-.27,.05-.4,.08l-5.71,19.76-5.02-17.56c-1.74,.39-3.49,.79-5.22,1.18-1.6,.37-3.18,.73-4.76,1.09l9.54,28.2h10.58s11.9-34.89,11.9-34.89c-.89,.18-1.77,.35-2.67,.52Z"/><path class="cls-3" d="M164.64,75c-2.22,.29-4.48,.58-6.81,.88-1.18,.14-2.37,.32-3.56,.52l6.08,18.95h-13.73s6.17-18.7,6.17-18.7c-.87,.14-1.74,.29-2.62,.43-2.85,.47-5.76,.94-8.71,1.43l-13.24,37.1h11.72s3.63-11.02,3.63-11.02h19.74s3.54,11.02,3.54,11.02h12.15s-14.37-40.6-14.37-40.6Z"/><path class="cls-3" d="M38.63,103.29c-1.67,.54-3.08,.99-4.21,1.35l3.71,10.97h10.58s5.87-17.23,5.87-17.23c-2.69,.77-5.2,1.49-7.51,2.21-1.11,.35-7.06,2.26-8.45,2.71Z"/><path class="cls-3" d="M71.8,115.6h11.13v-24.94c-3.83,.99-7.55,1.95-11.13,2.88v22.06Z"/></g></svg>