<?xml version="1.0" encoding="UTF-8"?><svg id="Layer_1" xmlns="http://www.w3.org/2000/svg" viewBox="0 0 570 120"><defs><style>.cls-1{fill:#01b9e5;}.cls-2{fill:#005596;}.cls-3{fill:#ffcd00;}.cls-4{fill:#092745;}.cls-5{fill:#867c6e;}.cls-6{fill:#e1251b;fill-rule:evenodd;}.cls-7{fill:none;stroke:#fff;stroke-miterlimit:40;stroke-width:2.44px;}</style></defs><g><path class="cls-2" d="M373.3,32.4c-.75-.63-1.72-1.05-2.72-1.05-.75,0-1.76,.44-1.76,1.32s1.11,1.28,1.82,1.51l1.05,.31c2.2,.65,3.89,1.76,3.89,4.31,0,1.57-.38,3.18-1.63,4.25-1.23,1.05-2.89,1.49-4.48,1.49-1.99,0-3.93-.67-5.55-1.8l1.76-3.31c1.03,.9,2.24,1.63,3.64,1.63,.96,0,1.99-.48,1.99-1.59s-1.61-1.55-2.49-1.8c-2.57-.73-4.27-1.4-4.27-4.46s2.28-5.29,5.44-5.29c1.59,0,3.54,.5,4.94,1.3l-1.63,3.18Z"/><path class="cls-2" d="M381.15,26.75v8h.04c.88-1.17,1.95-1.72,3.43-1.72,2.72,0,4.04,1.8,4.04,4.52v6.57h-3.81v-5.5c0-1.26-.19-2.55-1.72-2.55s-1.99,1.3-1.99,2.55v5.5h-3.81V26.75h3.81Z"/><path class="cls-2" d="M402.1,39.39h-8.02c0,1.55,.82,2.39,2.39,2.39,.82,0,1.4-.27,1.82-.98h3.66c-.61,2.53-3.01,3.68-5.46,3.68-3.56,0-6.22-2.01-6.22-5.71s2.45-5.74,5.94-5.74c3.73,0,5.88,2.3,5.88,5.97v.4Zm-3.54-2.2c-.19-1.03-1.13-1.7-2.16-1.7-1.11,0-2.03,.59-2.26,1.7h4.42Z"/><rect class="cls-2" x="403.74" y="26.75" width="3.81" height="17.37"/><rect class="cls-2" x="409.95" y="26.75" width="3.81" height="17.37"/><polygon class="cls-2" points="427.43 40.64 432.35 40.64 432.35 44.12 423.33 44.12 423.33 28.34 427.43 28.34 427.43 40.64"/><path class="cls-2" d="M437.25,33.38v5.74c0,1.36,.33,2.32,1.9,2.32s1.9-.96,1.9-2.32v-5.74h3.81v6.47c0,3.54-2.49,4.63-5.71,4.63s-5.71-1.09-5.71-4.63v-6.47h3.81Z"/><path class="cls-2" d="M447.06,26.75h3.81v7.68c.82-.94,2.09-1.4,3.33-1.4,3.18,0,5.38,2.64,5.38,5.71s-2.22,5.73-5.42,5.73c-1.26,0-2.55-.48-3.24-1.55h-.04v1.19h-3.81V26.75Zm3.68,12.01c0,1.36,.9,2.41,2.45,2.41s2.45-1.05,2.45-2.41-.9-2.43-2.45-2.43-2.45,1.11-2.45,2.43"/><path class="cls-2" d="M465.17,35.14h.04c.73-1.32,1.99-1.91,3.47-1.91h.73v3.66c-.52-.29-1.03-.35-1.61-.35-2.11,0-2.64,1.4-2.64,3.24v4.33h-3.81v-10.74h3.81v1.76Z"/><path class="cls-2" d="M474.78,29.26c0,1.17-.96,2.14-2.13,2.14s-2.14-.96-2.14-2.14,.96-2.13,2.14-2.13,2.13,.96,2.13,2.13m-.23,14.86h-3.81v-10.74h3.81v10.74Z"/><path class="cls-2" d="M484.7,36.88c-.57-.42-1.23-.75-1.97-.75-1.46,0-2.62,1.13-2.62,2.62s1.11,2.64,2.68,2.64c.67,0,1.4-.27,1.91-.73v3.22c-.84,.42-1.76,.61-2.68,.61-3.18,0-5.84-2.36-5.84-5.61,0-3.45,2.64-5.84,6.01-5.84,.88,0,1.76,.21,2.51,.63v3.22Z"/><path class="cls-2" d="M498.7,44.12h-3.81v-1.19h-.04c-.67,1.07-1.99,1.55-3.24,1.55-3.18,0-5.42-2.66-5.42-5.73s2.2-5.71,5.38-5.71c1.23,0,2.53,.46,3.33,1.4v-1.05h3.81v10.74Zm-8.58-5.36c0,1.36,.9,2.41,2.45,2.41s2.45-1.05,2.45-2.41-.9-2.43-2.45-2.43-2.45,1.11-2.45,2.43"/><path class="cls-2" d="M504.94,34.76h.04c.88-1.3,1.95-1.74,3.43-1.74,2.89,0,4.04,1.82,4.04,4.46v6.63h-3.81v-5.23c0-1.03,.17-2.83-1.72-2.83-1.55,0-1.99,1.15-1.99,2.49v5.57h-3.81v-10.74h3.81v1.38Z"/><polygon class="cls-2" points="519.02 44.12 515.21 44.12 515.21 36.52 513.98 36.52 513.98 33.38 515.21 33.38 515.21 30.16 519.02 30.16 519.02 33.38 521.18 33.38 521.18 36.52 519.02 36.52 519.02 44.12"/><path class="cls-2" d="M529.38,36.15c-.59-.31-1.4-.52-2.05-.52-.44,0-1.19,.19-1.19,.73,0,.73,1.19,.84,1.72,.94,1.78,.36,3.12,1.19,3.12,3.18,0,2.83-2.57,4-5.07,4-1.53,0-3.03-.44-4.33-1.23l1.38-2.66c.77,.54,2.07,1.09,3.01,1.09,.48,0,1.19-.23,1.19-.82,0-.84-1.19-.88-2.39-1.19-1.19-.31-2.39-.9-2.39-2.83,0-2.64,2.39-3.81,4.73-3.81,1.21,0,2.43,.19,3.54,.69l-1.28,2.43Z"/><polygon class="cls-2" points="366.37 52.96 370.41 52.96 373.62 61.4 377.01 52.96 381.09 52.96 383.47 68.74 379.37 68.74 378.22 59.66 378.18 59.66 374.39 68.74 372.76 68.74 369.14 59.66 369.1 59.66 367.78 68.74 363.7 68.74 366.37 52.96"/><path class="cls-2" d="M396.77,68.74h-3.81v-1.19h-.04c-.67,1.07-1.99,1.55-3.24,1.55-3.18,0-5.42-2.66-5.42-5.74s2.2-5.71,5.38-5.71c1.23,0,2.53,.46,3.33,1.4v-1.05h3.81v10.74Zm-8.58-5.36c0,1.36,.9,2.41,2.45,2.41s2.45-1.05,2.45-2.41-.9-2.43-2.45-2.43-2.45,1.11-2.45,2.43"/><path class="cls-2" d="M406.94,61.5c-.57-.42-1.23-.75-1.97-.75-1.46,0-2.62,1.13-2.62,2.62s1.11,2.64,2.68,2.64c.67,0,1.4-.27,1.9-.73v3.22c-.84,.42-1.76,.61-2.68,.61-3.18,0-5.84-2.37-5.84-5.61,0-3.45,2.64-5.84,6.01-5.84,.88,0,1.76,.21,2.51,.63v3.22Z"/><path class="cls-2" d="M413.01,59.77h.04c.73-1.32,1.99-1.9,3.47-1.9h.73v3.66c-.52-.29-1.02-.36-1.61-.36-2.11,0-2.64,1.4-2.64,3.24v4.33h-3.81v-10.74h3.81v1.76Z"/><path class="cls-2" d="M430.34,63.39c0,3.64-3.01,5.71-6.47,5.71s-6.47-2.05-6.47-5.71,3.01-5.74,6.47-5.74,6.47,2.07,6.47,5.74m-8.92,0c0,1.36,.9,2.41,2.45,2.41s2.45-1.05,2.45-2.41-.9-2.43-2.45-2.43-2.45,1.11-2.45,2.43"/><path class="cls-2" d="M439.11,52.96h5.82c4.4,0,8.02,3.45,8.02,7.89s-3.64,7.89-8.02,7.89h-5.82v-15.78Zm4.1,12.31h.92c2.45,0,4.54-1.34,4.54-4.42,0-2.83-1.86-4.42-4.5-4.42h-.96v8.83Z"/><path class="cls-2" d="M458.7,53.88c0,1.17-.96,2.13-2.14,2.13s-2.13-.96-2.13-2.13,.96-2.14,2.13-2.14,2.14,.96,2.14,2.14m-.23,14.86h-3.81v-10.74h3.81v10.74Z"/><path class="cls-2" d="M467.98,60.77c-.59-.31-1.4-.52-2.05-.52-.44,0-1.19,.19-1.19,.73,0,.73,1.19,.84,1.72,.94,1.78,.36,3.12,1.19,3.12,3.18,0,2.82-2.57,4-5.07,4-1.53,0-3.03-.44-4.33-1.24l1.38-2.66c.77,.54,2.07,1.09,3.01,1.09,.48,0,1.19-.23,1.19-.82,0-.84-1.19-.88-2.39-1.19-1.19-.31-2.38-.9-2.38-2.83,0-2.64,2.38-3.81,4.73-3.81,1.21,0,2.43,.19,3.54,.69l-1.28,2.43Z"/><polygon class="cls-2" points="475.68 68.74 471.87 68.74 471.87 61.15 470.64 61.15 470.64 58.01 471.87 58.01 471.87 54.78 475.68 54.78 475.68 58.01 477.83 58.01 477.83 61.15 475.68 61.15 475.68 68.74"/><path class="cls-2" d="M482.75,59.77h.04c.73-1.32,1.99-1.9,3.47-1.9h.73v3.66c-.52-.29-1.03-.36-1.61-.36-2.11,0-2.64,1.4-2.64,3.24v4.33h-3.81v-10.74h3.81v1.76Z"/><path class="cls-2" d="M492.36,53.88c0,1.17-.96,2.13-2.13,2.13s-2.14-.96-2.14-2.13,.96-2.14,2.14-2.14,2.13,.96,2.13,2.14m-.23,14.86h-3.81v-10.74h3.81v10.74Z"/><path class="cls-2" d="M494.41,51.37h3.81v7.68c.82-.94,2.09-1.4,3.33-1.4,3.18,0,5.38,2.64,5.38,5.71s-2.22,5.74-5.42,5.74c-1.26,0-2.55-.48-3.24-1.55h-.04v1.19h-3.81v-17.37Zm3.68,12.01c0,1.36,.9,2.41,2.45,2.41s2.45-1.05,2.45-2.41-.9-2.43-2.45-2.43-2.45,1.11-2.45,2.43"/><path class="cls-2" d="M512.45,58.01v5.74c0,1.36,.34,2.32,1.91,2.32s1.9-.96,1.9-2.32v-5.74h3.81v6.47c0,3.54-2.49,4.63-5.71,4.63s-5.71-1.09-5.71-4.63v-6.47h3.81Z"/><polygon class="cls-2" points="526.56 68.74 522.75 68.74 522.75 61.15 521.52 61.15 521.52 58.01 522.75 58.01 522.75 54.78 526.56 54.78 526.56 58.01 528.72 58.01 528.72 61.15 526.56 61.15 526.56 68.74"/><path class="cls-2" d="M541.97,63.39c0,3.64-3.01,5.71-6.47,5.71s-6.47-2.05-6.47-5.71,3.01-5.74,6.47-5.74,6.47,2.07,6.47,5.74m-8.92,0c0,1.36,.9,2.41,2.45,2.41s2.45-1.05,2.45-2.41-.9-2.43-2.45-2.43-2.45,1.11-2.45,2.43"/><path class="cls-2" d="M547.39,59.77h.04c.73-1.32,1.99-1.9,3.47-1.9h.73v3.66c-.52-.29-1.03-.36-1.61-.36-2.11,0-2.64,1.4-2.64,3.24v4.33h-3.81v-10.74h3.81v1.76Z"/><path class="cls-7" d="M289.97,75.09h-17.69l-1.64-13.11-10.73-7.8c-.47-2.29-.7-4.63-.7-6.97,0-19.24,15.62-34.86,34.86-34.86s34.86,15.62,34.86,34.86c0,2.34-.24,4.68-.7,6.97l-10.73,7.8-1.64,13.11h-17.69l-1.02,.74c-.89,.65-1.97,1-3.08,1s-2.18-.35-3.08-1l-1.02-.74Z"/><path class="cls-3" d="M289.97,75.09h-17.69l-1.64-13.11-10.73-7.8c-.47-2.29-.7-4.63-.7-6.97,0-19.24,15.62-34.86,34.86-34.86s34.86,15.62,34.86,34.86c0,2.34-.24,4.68-.7,6.97l-10.73,7.8-1.64,13.11h-17.69l-1.02,.74c-.89,.65-1.97,1-3.08,1s-2.18-.35-3.08-1l-1.02-.74Z"/><path class="cls-6" d="M289.97,75.09h-17.69l-1.64-13.11-10.73-7.8c-.47-2.29-.7-4.63-.7-6.97,0-19.24,15.62-34.86,34.86-34.86s34.86,15.62,34.86,34.86c0,2.34-.24,4.68-.7,6.97l-10.73,7.8-1.64,13.11h-17.69l-1.02,.74c-.89,.65-1.97,1-3.08,1s-2.18-.35-3.08-1l-1.02-.74Zm.55-6.1h-12.86l-1.3-10.39-10.59-7.7c-.31-1.21-.47-2.45-.47-3.69,0-2.08,.44-4.14,1.29-6.04l18.75,18.96-18.23-22.5c.72-2.92,2.3-5.55,4.55-7.55l16.34,28.2-14.48-30.88c1.87-2.49,4.49-4.33,7.46-5.25l9.99,35.01-7.3-36.45c2.22-1.25,4.73-1.91,7.28-1.91,.54,0,1.08,.03,1.61,.09l1.49,37.9,1.49-37.9c.53-.06,1.07-.09,1.61-.09,2.55,0,5.06,.66,7.28,1.91l-7.3,36.45,9.99-35.01c2.98,.92,5.59,2.76,7.46,5.25l-14.48,30.88,16.34-28.2c2.25,2,3.84,4.63,4.55,7.55l-18.23,22.5,18.75-18.96c.85,1.9,1.29,3.96,1.29,6.04,0,1.24-.16,2.49-.47,3.69l-10.59,7.7-1.3,10.39h-12.86l-1.9,1.38c-.48,.35-1.05,.53-1.64,.53s-1.16-.19-1.64-.53l-1.9-1.38Z"/></g><g><g><path class="cls-4" d="M51.24,94.42h-8.5v3.41h7.8s0,2.79,0,2.79h-7.8v4.13h8.89s0,2.89,0,2.89h-12.17s0-16.06,0-16.06h11.78s0,2.84,0,2.84Z"/><path class="cls-4" d="M64.5,96.44c.78,.64,1.17,1.71,1.17,3.2v8s-3.18,0-3.18,0v-7.23c0-.62-.08-1.1-.25-1.44-.3-.61-.88-.92-1.73-.92-1.04,0-1.76,.45-2.15,1.34-.2,.47-.3,1.07-.3,1.81v6.43s-3.11,0-3.11,0v-11.86s3.01,0,3.01,0v1.73c.4-.61,.77-1.05,1.13-1.32,.64-.48,1.45-.72,2.42-.72,1.22,0,2.22,.32,3,.96Z"/><path class="cls-4" d="M77.32,96c.83,.37,1.51,.96,2.05,1.76,.49,.7,.8,1.53,.95,2.46,.09,.54,.12,1.33,.1,2.36h-8.65c.05,1.19,.46,2.03,1.24,2.51,.47,.3,1.04,.44,1.71,.44,.71,0,1.28-.18,1.73-.55,.24-.2,.45-.47,.64-.82h3.17c-.08,.71-.47,1.42-1.15,2.14-1.06,1.16-2.55,1.73-4.47,1.73-1.58,0-2.98-.49-4.18-1.46-1.21-.98-1.81-2.56-1.81-4.75,0-2.06,.54-3.63,1.64-4.73,1.09-1.1,2.5-1.65,4.25-1.65,1.03,0,1.96,.19,2.79,.56Zm-4.65,2.68c-.44,.45-.72,1.07-.83,1.84h5.35c-.06-.83-.33-1.45-.83-1.88-.49-.43-1.11-.64-1.84-.64-.8,0-1.41,.23-1.85,.68Z"/><path class="cls-4" d="M89.86,95.48s.13,.01,.27,.02v3.18c-.19-.02-.37-.04-.52-.04-.15,0-.28,0-.37,0-1.25,0-2.09,.41-2.52,1.22-.24,.46-.36,1.16-.36,2.12v5.68s-3.13,0-3.13,0v-11.88s2.96,0,2.96,0v2.07c.48-.79,.9-1.33,1.25-1.62,.58-.49,1.34-.73,2.27-.73,.06,0,.11,0,.15,0Z"/><path class="cls-4" d="M98.78,95.75c.75,.32,1.37,.89,1.83,1.72v-1.71s3.03,0,3.03,0v11.27c0,1.53-.26,2.69-.77,3.47-.89,1.33-2.59,2.01-5.1,2.01-1.52,0-2.76-.3-3.72-.89-.96-.6-1.49-1.49-1.59-2.67h3.38c.09,.37,.23,.62,.43,.79,.33,.28,.9,.43,1.69,.43,1.12,0,1.87-.38,2.24-1.12,.25-.48,.37-1.29,.37-2.42v-.76c-.3,.51-.62,.89-.96,1.14-.62,.47-1.42,.71-2.41,.71-1.53,0-2.74-.53-3.66-1.61-.91-1.07-1.37-2.52-1.37-4.35s.44-3.24,1.32-4.45c.88-1.2,2.12-1.8,3.73-1.8,.6,0,1.12,.09,1.56,.27Zm1.06,8.52c.5-.55,.75-1.42,.75-2.62s-.24-1.98-.71-2.57c-.47-.59-1.11-.88-1.9-.88-1.09,0-1.84,.51-2.25,1.54-.22,.54-.33,1.21-.33,2.02,0,.69,.12,1.3,.35,1.84,.42,1.01,1.17,1.51,2.26,1.51,.72,0,1.33-.27,1.83-.82Z"/><path class="cls-4" d="M107.88,109.91l.39,.02c.3,.01,.6,0,.87-.04,.28-.03,.51-.12,.7-.25,.18-.12,.35-.38,.51-.78,.15-.39,.22-.63,.2-.72l-4.36-12.4h3.45s2.59,8.76,2.59,8.76l2.45-8.76h3.3s-4.07,11.68-4.07,11.68c-.79,2.25-1.41,3.65-1.87,4.19-.46,.54-1.38,.81-2.75,.81-.28,0-.5,0-.67,0-.17,0-.42-.02-.75-.04v-2.48Z"/></g><g><path class="cls-5" d="M119.68,107.42l6.23-15.84h1.7s6.07,15.84,6.07,15.84h-1.54s-1.82-4.97-1.82-4.97h-7.22s-1.87,4.97-1.87,4.97h-1.54Zm3.92-6.25h6.21s-3.11-8.31-3.11-8.31l-3.1,8.31Z"/><path class="cls-5" d="M144.41,96.02h1.32s0,11.4,0,11.4h-1.32s0-1.58,0-1.58c-.18,.2-.38,.42-.6,.64-.22,.22-.47,.42-.76,.61-.29,.18-.62,.33-1,.46-.39,.12-.82,.19-1.32,.19-.76,0-1.4-.11-1.92-.32-.51-.21-.93-.51-1.24-.89-.31-.38-.54-.83-.68-1.33-.14-.51-.21-1.06-.21-1.66v-7.5s1.32,0,1.32,0v7.48c0,.98,.23,1.74,.68,2.26,.46,.52,1.21,.78,2.25,.78,.54,0,1.03-.11,1.46-.32,.43-.21,.79-.51,1.09-.89,.29-.38,.52-.84,.68-1.36,.16-.53,.24-1.11,.24-1.74v-6.21Z"/><path class="cls-5" d="M151.58,103.85c.21,.98,.57,1.68,1.11,2.08,.54,.4,1.3,.61,2.3,.61,.48,0,.9-.06,1.25-.18,.35-.12,.64-.27,.87-.47,.23-.2,.4-.42,.51-.67,.12-.25,.18-.52,.18-.8,0-.56-.18-.97-.54-1.24-.36-.27-.81-.48-1.35-.64-.54-.15-1.13-.29-1.76-.39-.63-.11-1.22-.28-1.76-.5-.54-.22-1-.53-1.36-.94-.36-.41-.54-.99-.54-1.74,0-.96,.35-1.73,1.05-2.34,.7-.61,1.68-.91,2.96-.91s2.23,.28,3.01,.83c.77,.55,1.23,1.47,1.4,2.76h-1.34c-.12-.88-.45-1.5-1-1.86-.55-.36-1.24-.54-2.08-.54s-1.47,.18-1.92,.54c-.44,.36-.66,.83-.66,1.42,0,.51,.18,.91,.54,1.18,.36,.27,.81,.49,1.35,.66,.54,.17,1.13,.32,1.76,.45,.63,.13,1.22,.32,1.76,.56,.54,.24,.99,.57,1.35,.98,.36,.41,.54,.98,.54,1.72,0,.54-.12,1.02-.35,1.44-.23,.42-.56,.77-.97,1.05-.41,.28-.9,.49-1.46,.63-.56,.14-1.18,.21-1.86,.21s-1.27-.1-1.79-.3c-.52-.2-.96-.47-1.33-.83-.36-.35-.65-.76-.86-1.23-.21-.47-.32-.98-.35-1.52h1.34Z"/><path class="cls-5" d="M167.66,107.46c-.16,.03-.38,.08-.64,.15-.26,.07-.56,.11-.88,.11-.66,0-1.17-.16-1.51-.49-.35-.33-.51-.92-.51-1.77v-8.34h-1.61s0-1.1,0-1.1h1.61v-3.17s1.32,0,1.32,0v3.17h2.13s0,1.1,0,1.1h-2.13v7.81c0,.28,0,.52,.02,.72,.01,.21,.06,.38,.13,.5,.07,.13,.19,.23,.34,.29,.15,.06,.37,.09,.65,.09,.18,0,.35-.02,.54-.05,.19-.03,.36-.06,.54-.11v1.08Z"/><path class="cls-5" d="M173.08,107.42h-1.32s0-11.4,0-11.4h1.32s0,2.14,0,2.14h.04c.37-.91,.84-1.54,1.42-1.9,.58-.36,1.34-.54,2.3-.54v1.43c-.75-.01-1.37,.11-1.85,.35-.48,.25-.87,.59-1.15,1.01-.29,.42-.48,.93-.59,1.51-.11,.58-.16,1.18-.16,1.82v5.59Z"/><path class="cls-5" d="M185.21,100.77c.25-.03,.55-.07,.89-.13,.35-.06,.63-.14,.85-.25,.22-.1,.36-.27,.41-.51,.05-.24,.08-.47,.08-.67,0-.67-.22-1.23-.65-1.66-.43-.43-1.17-.65-2.19-.65-.46,0-.87,.04-1.25,.12-.38,.08-.72,.22-1,.42-.29,.2-.52,.46-.7,.79-.19,.33-.3,.75-.36,1.24h-1.35c.05-.68,.2-1.25,.46-1.73,.26-.48,.61-.86,1.02-1.17,.42-.3,.9-.52,1.45-.66,.55-.14,1.13-.21,1.75-.21,.57,0,1.11,.06,1.62,.19,.51,.12,.95,.32,1.32,.6,.37,.27,.67,.63,.88,1.09,.21,.45,.32,1.01,.32,1.67v6.2c0,.52,.09,.84,.27,.98,.18,.14,.55,.11,1.11-.1v1.03c-.1,.03-.25,.07-.45,.13-.2,.06-.39,.09-.58,.09-.21,0-.4-.02-.59-.07-.22-.03-.4-.1-.53-.21-.13-.11-.24-.24-.32-.4-.08-.15-.14-.32-.17-.5-.03-.19-.04-.38-.04-.58-.56,.62-1.2,1.08-1.92,1.41-.72,.32-1.5,.48-2.33,.48-.5,0-.98-.07-1.44-.2-.46-.13-.87-.34-1.22-.62-.35-.28-.63-.62-.84-1.02-.21-.4-.31-.88-.31-1.44,0-1.94,1.33-3.08,3.98-3.44l1.83-.24Zm2.22,.66c-.56,.24-1.12,.39-1.69,.46-.57,.07-1.14,.13-1.72,.17-1.01,.08-1.8,.3-2.37,.68-.56,.38-.84,.96-.84,1.74,0,.35,.07,.66,.21,.91,.14,.26,.32,.47,.55,.64,.23,.17,.49,.29,.79,.37,.3,.08,.61,.12,.91,.12,.53,0,1.04-.07,1.54-.2,.5-.13,.94-.34,1.33-.61,.39-.27,.7-.62,.93-1.04,.24-.42,.35-.91,.35-1.48v-1.78Z"/><path class="cls-5" d="M194.28,107.42v-15.84s1.32,0,1.32,0v15.84s-1.32,0-1.32,0Z"/><path class="cls-5" d="M200.8,93.53v-1.96s1.45,0,1.45,0v1.96s-1.45,0-1.45,0Zm.07,13.89v-11.4s1.32,0,1.32,0v11.4s-1.32,0-1.32,0Z"/><path class="cls-5" d="M212.07,100.77c.25-.03,.55-.07,.89-.13,.35-.06,.63-.14,.85-.25,.22-.1,.36-.27,.41-.51,.05-.24,.08-.47,.08-.67,0-.67-.22-1.23-.65-1.66-.43-.43-1.17-.65-2.19-.65-.46,0-.87,.04-1.26,.12-.38,.08-.72,.22-1,.42-.29,.2-.52,.46-.7,.79-.19,.33-.3,.75-.36,1.24h-1.34c.05-.68,.2-1.25,.47-1.73,.26-.48,.6-.86,1.02-1.17,.42-.3,.9-.52,1.45-.66,.55-.14,1.13-.21,1.75-.21,.57,0,1.11,.06,1.62,.19,.5,.12,.95,.32,1.32,.6,.37,.27,.67,.63,.88,1.09,.22,.45,.32,1.01,.32,1.67v6.2c0,.52,.09,.84,.28,.98,.18,.14,.56,.11,1.11-.1v1.03c-.1,.03-.25,.07-.45,.13-.2,.06-.39,.09-.58,.09-.21,0-.41-.02-.59-.07-.22-.03-.4-.1-.53-.21-.13-.11-.24-.24-.32-.4-.08-.15-.13-.32-.17-.5-.03-.19-.04-.38-.04-.58-.56,.62-1.2,1.08-1.92,1.41-.72,.32-1.5,.48-2.33,.48-.5,0-.98-.07-1.44-.2-.46-.13-.87-.34-1.22-.62-.35-.28-.63-.62-.83-1.02-.21-.4-.31-.88-.31-1.44,0-1.94,1.33-3.08,3.98-3.44l1.83-.24Zm2.22,.66c-.56,.24-1.12,.39-1.69,.46-.57,.07-1.14,.13-1.72,.17-1.01,.08-1.8,.3-2.37,.68-.56,.38-.85,.96-.85,1.74,0,.35,.07,.66,.21,.91,.14,.26,.32,.47,.55,.64,.23,.17,.49,.29,.79,.37,.3,.08,.61,.12,.92,.12,.53,0,1.04-.07,1.54-.2,.5-.13,.94-.34,1.33-.61,.39-.27,.7-.62,.93-1.04,.24-.42,.35-.91,.35-1.48v-1.78Z"/></g><path class="cls-1" d="M122.53,34.12l-6.18-21.62h-14.85s8.04,23.79,8.04,23.79c2.34-.39,4.7-.78,7.08-1.18,1.96-.33,3.94-.65,5.92-.98Z"/><path class="cls-1" d="M50.79,48.52c3.35-.78,7.02-1.58,10.9-2.48,.93-.2,1.88-.42,2.83-.64l11.21-32.9h-14.55s-10.4,36.02-10.4,36.02Z"/><path class="cls-1" d="M81.31,41.54c4.45-.88,9.07-1.79,13.82-2.73V12.5h-13.82v29.04Z"/><path class="cls-1" d="M152.84,29.85l1.12-.15,5.86-17.2h-14.45s-5.52,19.12-5.52,19.12c2.61-.36,5.22-.71,7.81-1.07,1.73-.24,3.45-.47,5.17-.71Z"/><path class="cls-1" d="M183.87,26.62c1.6-.18,3.18-.33,4.76-.42,2.65-.19,5.25-.37,7.79-.55l-4.65-13.15h-15.73s-5.54,15.52-5.54,15.52c2.87-.3,5.72-.6,8.52-.89,1.63-.17,3.25-.34,4.85-.51Z"/><path class="cls-1" d="M42.83,50.51L31.96,12.5h-14.96s13.89,41.08,13.89,41.08c1.52-.39,3.5-.9,5.91-1.52,1.78-.46,3.81-.98,6.02-1.55Z"/><path class="cls-4" d="M149.5,36.55c-3.42,.67-6.86,1.35-10.29,2.03-.17,.03-.33,.07-.5,.1l-7.13,24.7-6.28-21.95c-2.18,.49-4.36,.99-6.53,1.48-1.99,.46-3.98,.91-5.96,1.36l11.92,35.25h13.23s14.87-43.61,14.87-43.61c-1.11,.22-2.22,.44-3.33,.66Z"/><path class="cls-4" d="M197.8,28.75c-2.77,.36-5.61,.72-8.51,1.1-1.47,.17-2.96,.4-4.45,.65l7.6,23.68h-17.16s7.71-23.38,7.71-23.38c-1.09,.18-2.17,.36-3.27,.54-3.56,.58-7.2,1.18-10.88,1.78l-16.55,46.38h14.65s4.54-13.77,4.54-13.77h24.67s4.42,13.77,4.42,13.77h15.18s-17.96-50.75-17.96-50.75Z"/><path class="cls-4" d="M40.29,64.11c-2.09,.67-3.85,1.23-5.26,1.68l4.64,13.71h13.23s7.34-21.53,7.34-21.53c-3.36,.96-6.5,1.86-9.38,2.76-1.39,.44-8.82,2.83-10.56,3.38Z"/><path class="cls-4" d="M81.75,79.51h13.91v-31.17c-4.79,1.24-9.44,2.44-13.91,3.6v27.57Z"/></g></svg>