<?xml version="1.0" encoding="UTF-8"?><svg id="Layer_1" xmlns="http://www.w3.org/2000/svg" viewBox="0 0 201.5 105"><defs><style>.cls-1{fill:#fff;}</style></defs><g><path class="cls-1" d="M34.24,85.42h-8.5v3.41h7.8s0,2.79,0,2.79h-7.8v4.13h8.89s0,2.89,0,2.89h-12.17s0-16.06,0-16.06h11.78s0,2.84,0,2.84Z"/><path class="cls-1" d="M47.5,87.44c.78,.64,1.17,1.71,1.17,3.2v8s-3.18,0-3.18,0v-7.23c0-.62-.08-1.1-.25-1.44-.3-.61-.88-.92-1.73-.92-1.04,0-1.76,.45-2.15,1.34-.2,.47-.3,1.07-.3,1.81v6.43s-3.11,0-3.11,0v-11.86s3.01,0,3.01,0v1.73c.4-.61,.77-1.05,1.13-1.32,.64-.48,1.45-.72,2.42-.72,1.22,0,2.22,.32,3,.96Z"/><path class="cls-1" d="M60.32,87c.83,.37,1.51,.96,2.05,1.76,.49,.7,.8,1.53,.95,2.46,.09,.54,.12,1.33,.1,2.36h-8.65c.05,1.19,.46,2.03,1.24,2.51,.47,.3,1.04,.44,1.71,.44,.71,0,1.28-.18,1.73-.55,.24-.2,.45-.47,.64-.82h3.17c-.08,.71-.47,1.42-1.15,2.14-1.06,1.16-2.55,1.73-4.47,1.73-1.58,0-2.98-.49-4.18-1.46-1.21-.98-1.81-2.56-1.81-4.75,0-2.06,.54-3.63,1.64-4.73,1.09-1.1,2.5-1.65,4.25-1.65,1.03,0,1.96,.19,2.79,.56Zm-4.65,2.68c-.44,.45-.72,1.07-.83,1.84h5.35c-.06-.83-.33-1.45-.83-1.88-.49-.43-1.11-.64-1.84-.64-.8,0-1.41,.23-1.85,.68Z"/><path class="cls-1" d="M72.86,86.48s.13,.01,.27,.02v3.18c-.19-.02-.37-.04-.52-.04-.15,0-.28,0-.37,0-1.25,0-2.09,.41-2.52,1.22-.24,.46-.36,1.16-.36,2.12v5.68s-3.13,0-3.13,0v-11.88s2.96,0,2.96,0v2.07c.48-.79,.9-1.33,1.25-1.62,.58-.49,1.34-.73,2.27-.73,.06,0,.11,0,.15,0Z"/><path class="cls-1" d="M81.78,86.75c.75,.32,1.37,.89,1.83,1.72v-1.71s3.03,0,3.03,0v11.27c0,1.53-.26,2.69-.77,3.47-.89,1.33-2.59,2.01-5.1,2.01-1.52,0-2.76-.3-3.72-.89-.96-.6-1.49-1.49-1.59-2.67h3.38c.09,.37,.23,.62,.43,.79,.33,.28,.9,.43,1.69,.43,1.12,0,1.87-.38,2.24-1.12,.25-.48,.37-1.29,.37-2.42v-.76c-.3,.51-.62,.89-.96,1.14-.62,.47-1.42,.71-2.41,.71-1.53,0-2.74-.53-3.66-1.61-.91-1.07-1.37-2.52-1.37-4.35s.44-3.24,1.32-4.45c.88-1.2,2.12-1.8,3.73-1.8,.6,0,1.12,.09,1.56,.27Zm1.06,8.52c.5-.55,.75-1.42,.75-2.62s-.24-1.98-.71-2.57c-.47-.59-1.11-.88-1.9-.88-1.09,0-1.84,.51-2.25,1.54-.22,.54-.33,1.21-.33,2.02,0,.69,.12,1.3,.35,1.84,.42,1.01,1.17,1.51,2.26,1.51,.72,0,1.33-.27,1.83-.82Z"/><path class="cls-1" d="M90.88,100.91l.39,.02c.3,.01,.6,0,.87-.04,.28-.03,.51-.12,.7-.25,.18-.12,.35-.38,.51-.78,.15-.39,.22-.63,.2-.72l-4.36-12.4h3.45s2.59,8.76,2.59,8.76l2.45-8.76h3.3s-4.07,11.68-4.07,11.68c-.79,2.25-1.41,3.65-1.87,4.19-.46,.54-1.38,.81-2.75,.81-.28,0-.5,0-.67,0-.17,0-.42-.02-.75-.04v-2.48Z"/></g><g><path class="cls-1" d="M102.68,98.42l6.23-15.84h1.7s6.07,15.84,6.07,15.84h-1.54s-1.82-4.97-1.82-4.97h-7.22s-1.87,4.97-1.87,4.97h-1.54Zm3.92-6.25h6.21s-3.11-8.31-3.11-8.31l-3.1,8.31Z"/><path class="cls-1" d="M127.41,87.02h1.32s0,11.4,0,11.4h-1.32s0-1.58,0-1.58c-.18,.2-.38,.42-.6,.64-.22,.22-.47,.42-.76,.61-.29,.18-.62,.33-1,.46-.39,.12-.82,.19-1.32,.19-.76,0-1.4-.11-1.92-.32-.51-.21-.93-.51-1.24-.89-.31-.38-.54-.83-.68-1.33-.14-.51-.21-1.06-.21-1.66v-7.5s1.32,0,1.32,0v7.48c0,.98,.23,1.74,.68,2.26,.46,.52,1.21,.78,2.25,.78,.54,0,1.03-.11,1.46-.32,.43-.21,.79-.51,1.09-.89,.29-.38,.52-.84,.68-1.36,.16-.53,.24-1.11,.24-1.74v-6.21Z"/><path class="cls-1" d="M134.58,94.85c.21,.98,.57,1.68,1.11,2.08,.54,.4,1.3,.61,2.3,.61,.48,0,.9-.06,1.25-.18,.35-.12,.64-.27,.87-.47,.23-.2,.4-.42,.51-.67,.12-.25,.18-.52,.18-.8,0-.56-.18-.97-.54-1.24-.36-.27-.81-.48-1.35-.64-.54-.15-1.13-.29-1.76-.39-.63-.11-1.22-.28-1.76-.5-.54-.22-1-.53-1.36-.94-.36-.41-.54-.99-.54-1.74,0-.96,.35-1.73,1.05-2.34,.7-.61,1.68-.91,2.96-.91s2.23,.28,3.01,.83c.77,.55,1.23,1.47,1.4,2.76h-1.34c-.12-.88-.45-1.5-1-1.86-.55-.36-1.24-.54-2.08-.54s-1.47,.18-1.92,.54c-.44,.36-.66,.83-.66,1.42,0,.51,.18,.91,.54,1.18,.36,.27,.81,.49,1.35,.66,.54,.17,1.13,.32,1.76,.45,.63,.13,1.22,.32,1.76,.56,.54,.24,.99,.57,1.35,.98,.36,.41,.54,.98,.54,1.72,0,.54-.12,1.02-.35,1.44-.23,.42-.56,.77-.97,1.05-.41,.28-.9,.49-1.46,.63-.56,.14-1.18,.21-1.86,.21s-1.27-.1-1.79-.3c-.52-.2-.96-.47-1.33-.83-.36-.35-.65-.76-.86-1.23-.21-.47-.32-.98-.35-1.52h1.34Z"/><path class="cls-1" d="M150.66,98.46c-.16,.03-.38,.08-.64,.15-.26,.07-.56,.11-.88,.11-.66,0-1.17-.16-1.51-.49-.35-.33-.51-.92-.51-1.77v-8.34h-1.61s0-1.1,0-1.1h1.61v-3.17s1.32,0,1.32,0v3.17h2.13s0,1.1,0,1.1h-2.13v7.81c0,.28,0,.52,.02,.72,.01,.21,.06,.38,.13,.5,.07,.13,.19,.23,.34,.29,.15,.06,.37,.09,.65,.09,.18,0,.35-.02,.54-.05,.19-.03,.36-.06,.54-.11v1.08Z"/><path class="cls-1" d="M156.08,98.42h-1.32s0-11.4,0-11.4h1.32s0,2.14,0,2.14h.04c.37-.91,.84-1.54,1.42-1.9,.58-.36,1.34-.54,2.3-.54v1.43c-.75-.01-1.37,.11-1.85,.35-.48,.25-.87,.59-1.15,1.01-.29,.42-.48,.93-.59,1.51-.11,.58-.16,1.18-.16,1.82v5.59Z"/><path class="cls-1" d="M168.21,91.77c.25-.03,.55-.07,.89-.13,.35-.06,.63-.14,.85-.25,.22-.1,.36-.27,.41-.51,.05-.24,.08-.47,.08-.67,0-.67-.22-1.23-.65-1.66-.43-.43-1.17-.65-2.19-.65-.46,0-.87,.04-1.25,.12-.38,.08-.72,.22-1,.42-.29,.2-.52,.46-.7,.79-.19,.33-.3,.75-.36,1.24h-1.35c.05-.68,.2-1.25,.46-1.73,.26-.48,.61-.86,1.02-1.17,.42-.3,.9-.52,1.45-.66,.55-.14,1.13-.21,1.75-.21,.57,0,1.11,.06,1.62,.19,.51,.12,.95,.32,1.32,.6,.37,.27,.67,.63,.88,1.09,.21,.45,.32,1.01,.32,1.67v6.2c0,.52,.09,.84,.27,.98,.18,.14,.55,.11,1.11-.1v1.03c-.1,.03-.25,.07-.45,.13-.2,.06-.39,.09-.58,.09-.21,0-.4-.02-.59-.07-.22-.03-.4-.1-.53-.21-.13-.11-.24-.24-.32-.4-.08-.15-.14-.32-.17-.5-.03-.19-.04-.38-.04-.58-.56,.62-1.2,1.08-1.92,1.41-.72,.32-1.5,.48-2.33,.48-.5,0-.98-.07-1.44-.2-.46-.13-.87-.34-1.22-.62-.35-.28-.63-.62-.84-1.02-.21-.4-.31-.88-.31-1.44,0-1.94,1.33-3.08,3.98-3.44l1.83-.24Zm2.22,.66c-.56,.24-1.12,.39-1.69,.46-.57,.07-1.14,.13-1.72,.17-1.01,.08-1.8,.3-2.37,.68-.56,.38-.84,.96-.84,1.74,0,.35,.07,.66,.21,.91,.14,.26,.32,.47,.55,.64,.23,.17,.49,.29,.79,.37,.3,.08,.61,.12,.91,.12,.53,0,1.04-.07,1.54-.2,.5-.13,.94-.34,1.33-.61,.39-.27,.7-.62,.93-1.04,.24-.42,.35-.91,.35-1.48v-1.78Z"/><path class="cls-1" d="M177.28,98.42v-15.84s1.32,0,1.32,0v15.84s-1.32,0-1.32,0Z"/><path class="cls-1" d="M183.8,84.53v-1.96s1.45,0,1.45,0v1.96s-1.45,0-1.45,0Zm.07,13.89v-11.4s1.32,0,1.32,0v11.4s-1.32,0-1.32,0Z"/><path class="cls-1" d="M195.07,91.77c.25-.03,.55-.07,.89-.13,.35-.06,.63-.14,.85-.25,.22-.1,.36-.27,.41-.51,.05-.24,.08-.47,.08-.67,0-.67-.22-1.23-.65-1.66-.43-.43-1.17-.65-2.19-.65-.46,0-.87,.04-1.26,.12-.38,.08-.72,.22-1,.42-.29,.2-.52,.46-.7,.79-.19,.33-.3,.75-.36,1.24h-1.34c.05-.68,.2-1.25,.47-1.73,.26-.48,.6-.86,1.02-1.17,.42-.3,.9-.52,1.45-.66,.55-.14,1.13-.21,1.75-.21,.57,0,1.11,.06,1.62,.19,.5,.12,.95,.32,1.32,.6,.37,.27,.67,.63,.88,1.09,.22,.45,.32,1.01,.32,1.67v6.2c0,.52,.09,.84,.28,.98,.18,.14,.56,.11,1.11-.1v1.03c-.1,.03-.25,.07-.45,.13-.2,.06-.39,.09-.58,.09-.21,0-.41-.02-.59-.07-.22-.03-.4-.1-.53-.21-.13-.11-.24-.24-.32-.4-.08-.15-.13-.32-.17-.5-.03-.19-.04-.38-.04-.58-.56,.62-1.2,1.08-1.92,1.41-.72,.32-1.5,.48-2.33,.48-.5,0-.98-.07-1.44-.2-.46-.13-.87-.34-1.22-.62-.35-.28-.63-.62-.83-1.02-.21-.4-.31-.88-.31-1.44,0-1.94,1.33-3.08,3.98-3.44l1.83-.24Zm2.22,.66c-.56,.24-1.12,.39-1.69,.46-.57,.07-1.14,.13-1.72,.17-1.01,.08-1.8,.3-2.37,.68-.56,.38-.85,.96-.85,1.74,0,.35,.07,.66,.21,.91,.14,.26,.32,.47,.55,.64,.23,.17,.49,.29,.79,.37,.3,.08,.61,.12,.92,.12,.53,0,1.04-.07,1.54-.2,.5-.13,.94-.34,1.33-.61,.39-.27,.7-.62,.93-1.04,.24-.42,.35-.91,.35-1.48v-1.78Z"/></g><path class="cls-1" d="M105.53,25.12l-6.18-21.62h-14.85s8.04,23.79,8.04,23.79c2.34-.39,4.7-.78,7.08-1.18,1.96-.33,3.94-.65,5.92-.98Z"/><path class="cls-1" d="M33.79,39.52c3.35-.78,7.02-1.58,10.9-2.48,.93-.2,1.88-.42,2.83-.64L58.73,3.5h-14.55s-10.4,36.02-10.4,36.02Z"/><path class="cls-1" d="M64.31,32.54c4.45-.88,9.07-1.79,13.82-2.73V3.5h-13.82v29.04Z"/><path class="cls-1" d="M135.84,20.85l1.12-.15,5.86-17.2h-14.45s-5.52,19.12-5.52,19.12c2.61-.36,5.22-.71,7.81-1.07,1.73-.24,3.45-.47,5.17-.71Z"/><path class="cls-1" d="M166.87,17.62c1.6-.18,3.18-.33,4.76-.42,2.65-.19,5.25-.37,7.79-.55l-4.65-13.15h-15.73s-5.54,15.52-5.54,15.52c2.87-.3,5.72-.6,8.52-.89,1.63-.17,3.25-.34,4.85-.51Z"/><path class="cls-1" d="M25.83,41.51L14.96,3.5H0S13.89,44.58,13.89,44.58c1.52-.39,3.5-.9,5.91-1.52,1.78-.46,3.81-.98,6.02-1.55Z"/><path class="cls-1" d="M132.5,27.55c-3.42,.67-6.86,1.35-10.29,2.03-.17,.03-.33,.07-.5,.1l-7.13,24.7-6.28-21.95c-2.18,.49-4.36,.99-6.53,1.48-1.99,.46-3.98,.91-5.96,1.36l11.92,35.25h13.23s14.87-43.61,14.87-43.61c-1.11,.22-2.22,.44-3.33,.66Z"/><path class="cls-1" d="M180.8,19.75c-2.77,.36-5.61,.72-8.51,1.1-1.47,.17-2.96,.4-4.45,.65l7.6,23.68h-17.16s7.71-23.38,7.71-23.38c-1.09,.18-2.17,.36-3.27,.54-3.56,.58-7.2,1.18-10.88,1.78l-16.55,46.38h14.65s4.54-13.77,4.54-13.77h24.67s4.42,13.77,4.42,13.77h15.18s-17.96-50.75-17.96-50.75Z"/><path class="cls-1" d="M23.29,55.11c-2.09,.67-3.85,1.23-5.26,1.68l4.64,13.71h13.23s7.34-21.53,7.34-21.53c-3.36,.96-6.5,1.86-9.38,2.76-1.39,.44-8.82,2.83-10.56,3.38Z"/><path class="cls-1" d="M64.75,70.51h13.91v-31.17c-4.79,1.24-9.44,2.44-13.91,3.6v27.57Z"/></svg>