<?xml version="1.0" encoding="UTF-8"?><svg id="Layer_1" xmlns="http://www.w3.org/2000/svg" viewBox="0 0 305 135"><defs><style>.cls-1{fill:#008752;}.cls-2{fill:#ed1c24;}</style></defs><path class="cls-1" d="M52.63,87.64c-3.36-4.54-8.82-6.97-14.45-6.97-10.08,0-16.89,7.73-16.89,17.56s6.89,17.22,17.14,17.22c5.38,0,10.75-2.6,14.2-6.72v19.74c-5.46,1.68-9.41,2.94-14.53,2.94-8.82,0-17.22-3.36-23.78-9.33-6.97-6.3-10.17-14.54-10.17-23.94,0-8.65,3.28-16.97,9.33-23.19,6.22-6.39,15.21-10.25,24.11-10.25,5.29,0,10.17,1.18,15.04,3.19v19.74h0Z"/><path class="cls-1" d="M73.72,108.22c0,5.46,3.61,9.66,9.83,9.66s9.83-4.2,9.83-9.66-3.61-9.75-9.83-9.75-9.83,4.45-9.83,9.75h0Zm35.79,0c0,14.62-12.1,22.94-25.96,22.94s-25.96-8.23-25.96-22.94,12.1-23.02,25.96-23.02,25.96,8.32,25.96,23.02h0Z"/><path class="cls-1" d="M130.01,93.69h.17c2.94-5.29,7.98-7.65,13.95-7.65h2.94v14.7c-2.1-1.18-4.12-1.43-6.47-1.43-8.49,0-10.59,5.63-10.59,13.02v17.39h-15.29v-43.1h15.29v7.06h0Z"/><path class="cls-1" d="M182.02,101.92c-.76-4.12-4.54-6.81-8.65-6.81-4.45,0-8.15,2.35-9.07,6.81h17.73Zm14.2,8.82h-32.18c0,6.22,3.28,9.58,9.58,9.58,3.28,0,5.63-1.09,7.31-3.95h14.7c-1.18,5.04-4.2,8.74-8.15,11.17-3.95,2.44-8.82,3.61-13.78,3.61-14.28,0-24.95-8.06-24.95-22.94s9.83-23.02,23.86-23.02c14.95,0,23.61,9.24,23.61,23.94v1.6h0Z"/><path class="cls-1" d="M216.8,92.17h.17c3.53-5.21,7.81-6.97,13.78-6.97,11.59,0,16.21,7.31,16.21,17.89v26.63h-15.29v-21c0-4.12,.67-11.34-6.89-11.34-6.22,0-7.98,4.62-7.98,10v22.35h-15.29v-43.1h15.29v5.54h0Z"/><path class="cls-1" d="M268.05,108.22c0,5.46,3.61,9.66,9.83,9.66s9.83-4.2,9.83-9.66-3.61-9.75-9.83-9.75-9.83,4.45-9.83,9.75h0Zm34.45,21.51h-15.29v-4.79h-.17c-2.69,4.29-7.98,6.22-13.02,6.22-12.77,0-21.76-10.67-21.76-23.02s8.82-22.94,21.59-22.94c4.96,0,10.16,1.85,13.36,5.63v-4.2h15.29v43.1h0Z"/><path class="cls-2" d="M28.66,19.36c-2.1-1.75-4.79-2.92-7.59-2.92-2.1,0-4.91,1.23-4.91,3.68s3.1,3.56,5.08,4.2l2.92,.88c6.13,1.81,10.86,4.91,10.86,12.03,0,4.38-1.05,8.88-4.55,11.86-3.45,2.92-8.06,4.15-12.5,4.15-5.55,0-10.98-1.87-15.48-5.02l4.91-9.23c2.86,2.51,6.25,4.56,10.16,4.56,2.69,0,5.55-1.34,5.55-4.44s-4.5-4.32-6.95-5.02c-7.18-2.04-11.91-3.91-11.91-12.44S10.62,6.86,19.44,6.86c4.44,0,9.87,1.4,13.78,3.62l-4.55,8.88h0Z"/><path class="cls-2" d="M50.26,3.59V25.9h.12c2.45-3.27,5.43-4.79,9.58-4.79,7.59,0,11.27,5.02,11.27,12.61v18.34h-10.63v-15.36c0-3.5-.53-7.13-4.79-7.13s-5.55,3.62-5.55,7.13v15.36h-10.63V3.59h10.63Z"/><path class="cls-2" d="M98.55,32.73c-.53-2.86-3.15-4.73-6.02-4.73-3.09,0-5.66,1.64-6.31,4.73h12.32Zm9.87,6.13h-22.37c0,4.32,2.28,6.66,6.66,6.66,2.28,0,3.91-.76,5.08-2.74h10.22c-.82,3.5-2.92,6.07-5.67,7.77-2.74,1.69-6.13,2.51-9.58,2.51-9.93,0-17.34-5.61-17.34-15.94s6.83-16,16.58-16c10.4,0,16.41,6.42,16.41,16.64v1.11h0Z"/><polygon class="cls-2" points="123.31 52.06 112.68 52.06 112.68 3.59 123.31 3.59 123.31 52.06 123.31 52.06"/><polygon class="cls-2" points="140.36 52.06 129.73 52.06 129.73 3.59 140.36 3.59 140.36 52.06 140.36 52.06"/></svg>