<?xml version="1.0" encoding="UTF-8"?><svg id="Layer_1" xmlns="http://www.w3.org/2000/svg" viewBox="0 0 220 135"><defs><style>.cls-1{fill:#e32b2f;}.cls-2{fill:#0c98b8;}</style></defs><path class="cls-2" d="M19.82,116.83h3.77c10.02,0,18.58-5.48,18.58-18.07,0-11.56-7.62-18.07-18.41-18.07h-3.94v36.13h0ZM3.03,66.49H26.84c17.98,0,32.79,14.13,32.79,32.28s-14.9,32.28-32.79,32.28H3.03V66.49h0Z"/><path class="cls-2" d="M80.52,131.04h-15.58v-43.92h15.58v43.92h0Zm.94-60.79c0,4.79-3.94,8.73-8.73,8.73s-8.73-3.94-8.73-8.73,3.94-8.73,8.73-8.73,8.73,3.94,8.73,8.73h0Z"/><path class="cls-2" d="M102.01,109.13c0,5.57,3.68,9.85,10.02,9.85s10.02-4.28,10.02-9.85-3.68-9.93-10.02-9.93-10.02,4.54-10.02,9.93h0Zm35.1,21.92h-15.58v-4.88h-.17c-2.74,4.37-8.13,6.34-13.27,6.34-13.01,0-22.18-10.87-22.18-23.46s8.99-23.37,22-23.37c5.05,0,10.36,1.88,13.61,5.74v-4.28h15.58v43.92h0Z"/><polygon class="cls-2" points="161.35 131.04 145.77 131.04 145.77 59.98 161.35 59.98 161.35 131.04 161.35 131.04"/><path class="cls-2" d="M182.84,109.13c0,5.57,3.68,9.85,10.02,9.85s10.02-4.28,10.02-9.85-3.68-9.93-10.02-9.93-10.02,4.54-10.02,9.93h0Zm35.1,21.92h-15.58v-4.88h-.17c-2.74,4.37-8.13,6.34-13.27,6.34-13.01,0-22.18-10.87-22.18-23.46s8.99-23.37,22-23.37c5.05,0,10.36,1.88,13.61,5.74v-4.28h15.58v43.92h0Z"/><path class="cls-1" d="M28.43,18.4c-2.12-1.77-4.83-2.94-7.65-2.94-2.12,0-4.95,1.24-4.95,3.71s3.12,3.59,5.12,4.24l2.94,.88c6.18,1.83,10.95,4.95,10.95,12.13,0,4.42-1.06,8.95-4.59,11.95-3.47,2.94-8.13,4.18-12.6,4.18-5.59,0-11.07-1.88-15.6-5.06l4.95-9.3c2.88,2.53,6.3,4.59,10.24,4.59,2.71,0,5.59-1.35,5.59-4.47s-4.53-4.36-7.01-5.06c-7.24-2.06-12.01-3.94-12.01-12.54S10.24,5.8,19.13,5.8c4.47,0,9.95,1.41,13.89,3.65l-4.59,8.95h0Z"/><path class="cls-1" d="M50.21,2.5V24.99h.12c2.47-3.3,5.48-4.83,9.66-4.83,7.65,0,11.36,5.06,11.36,12.72v18.49h-10.72v-15.48c0-3.53-.53-7.18-4.83-7.18s-5.59,3.65-5.59,7.18v15.48h-10.72V2.5h10.72Z"/><path class="cls-1" d="M98.89,31.88c-.53-2.88-3.18-4.77-6.06-4.77-3.12,0-5.71,1.65-6.36,4.77h12.42Zm9.95,6.18h-22.55c0,4.36,2.3,6.71,6.71,6.71,2.3,0,3.94-.77,5.12-2.77h10.3c-.82,3.53-2.94,6.12-5.71,7.83-2.77,1.71-6.18,2.53-9.66,2.53-10.01,0-17.49-5.65-17.49-16.07s6.89-16.13,16.72-16.13c10.48,0,16.54,6.48,16.54,16.78v1.12h0Z"/><polygon class="cls-1" points="123.85 51.37 113.13 51.37 113.13 2.5 123.85 2.5 123.85 51.37 123.85 51.37"/><polygon class="cls-1" points="141.04 51.37 130.32 51.37 130.32 2.5 141.04 2.5 141.04 51.37 141.04 51.37"/></svg>