<?xml version="1.0" encoding="UTF-8"?><svg id="Layer_1" xmlns="http://www.w3.org/2000/svg" viewBox="0 0 280 135"><defs><style>.cls-1{fill:#ed1c24;}.cls-2{fill:#009ac7;}</style></defs><path class="cls-1" d="M28.38,16.43c-2.19-1.83-4.99-3.04-7.91-3.04-2.19,0-5.11,1.28-5.11,3.83s3.23,3.71,5.29,4.38l3.04,.91c6.39,1.89,11.32,5.11,11.32,12.54,0,4.56-1.1,9.25-4.75,12.35-3.59,3.04-8.4,4.32-13.02,4.32-5.78,0-11.44-1.95-16.13-5.23l5.11-9.61c2.98,2.62,6.51,4.75,10.59,4.75,2.8,0,5.78-1.4,5.78-4.62s-4.69-4.5-7.24-5.23c-7.48-2.13-12.41-4.08-12.41-12.96S9.58,3.41,18.77,3.41c4.62,0,10.28,1.46,14.36,3.77l-4.75,9.25h0Z"/><path class="cls-1" d="M50.89,0V23.25h.12c2.56-3.41,5.66-4.99,9.98-4.99,7.91,0,11.74,5.23,11.74,13.14v19.11h-11.07v-16c0-3.65-.55-7.42-4.99-7.42s-5.78,3.77-5.78,7.42v16h-11.08V0h11.08Z"/><path class="cls-1" d="M101.21,30.36c-.55-2.98-3.29-4.93-6.27-4.93-3.22,0-5.9,1.7-6.57,4.93h12.84Zm10.28,6.39h-23.31c0,4.5,2.37,6.94,6.94,6.94,2.37,0,4.08-.79,5.29-2.86h10.65c-.85,3.65-3.04,6.33-5.9,8.09-2.86,1.76-6.39,2.62-9.98,2.62-10.34,0-18.07-5.84-18.07-16.61s7.12-16.67,17.28-16.67c10.83,0,17.1,6.69,17.1,17.34v1.16h0Z"/><polygon class="cls-1" points="127.01 50.51 115.93 50.51 115.93 0 127.01 0 127.01 50.51 127.01 50.51"/><polygon class="cls-1" points="144.77 50.51 133.7 50.51 133.7 0 144.77 0 144.77 50.51 144.77 50.51"/><path class="cls-2" d="M70.63,96.77c-.17,9.43-.86,17.49-6.6,25.55-6.34,8.83-15.86,12.69-26.66,12.69-20.32,0-34.46-13.8-34.46-34.12s14.23-34.8,35.06-34.8c13.29,0,23.58,6,29.15,18.09l-15.95,6.69c-2.32-6.17-7.2-10.29-13.97-10.29-11.06,0-16.8,10.54-16.8,20.4s6,20.23,17.06,20.23c7.29,0,12.86-3.77,13.54-11.23h-13.72v-13.2h33.35Z"/><path class="cls-2" d="M90.1,110.91c0,5.57,3.69,9.86,10.03,9.86s10.03-4.29,10.03-9.86-3.69-9.94-10.03-9.94-10.03,4.54-10.03,9.94h0Zm35.15,21.95h-15.6v-4.89h-.17c-2.74,4.37-8.14,6.34-13.29,6.34-13.03,0-22.2-10.89-22.2-23.49s9-23.4,22.03-23.4c5.06,0,10.37,1.89,13.63,5.74v-4.29h15.6v43.98h0Z"/><path class="cls-2" d="M147.45,110.91c0,5.57,3.69,9.86,10.03,9.86s10.03-4.29,10.03-9.86-3.69-9.94-10.03-9.94-10.03,4.54-10.03,9.94h0Zm19.55,17.06h-.17c-2.74,4.37-8.14,6.34-13.29,6.34-13.03,0-22.2-10.89-22.2-23.49s9-23.4,22.03-23.4c5.06,0,10.37,1.89,13.63,5.74v-31.46h15.6v71.15h-15.6v-4.89h0Z"/><path class="cls-2" d="M206.01,88.88v23.49c0,5.57,1.37,9.52,7.8,9.52s7.8-3.94,7.8-9.52v-23.49h15.6v26.49c0,14.49-10.2,18.95-23.4,18.95s-23.4-4.46-23.4-18.95v-26.49h15.6Z"/><path class="cls-2" d="M272.36,100.19c-2.4-1.29-5.74-2.14-8.4-2.14-1.8,0-4.89,.77-4.89,3,0,3,4.89,3.43,7.03,3.86,7.29,1.46,12.77,4.89,12.77,13.03,0,11.57-10.55,16.37-20.75,16.37-6.26,0-12.43-1.8-17.75-5.06l5.66-10.89c3.17,2.23,8.49,4.46,12.34,4.46,1.97,0,4.89-.94,4.89-3.34,0-3.43-4.89-3.6-9.77-4.89-4.89-1.29-9.77-3.69-9.77-11.57,0-10.8,9.77-15.6,19.38-15.6,4.97,0,9.94,.77,14.49,2.83l-5.23,9.94h0Z"/></svg>