<?xml version="1.0" encoding="UTF-8"?><svg id="Layer_1" xmlns="http://www.w3.org/2000/svg" viewBox="0 0 340 135"><defs><style>.cls-1{fill:#005596;}.cls-2{fill:#ed1c24;}</style></defs><path class="cls-2" d="M28.23,18.28c-2.1-1.75-4.79-2.92-7.6-2.92-2.1,0-4.91,1.23-4.91,3.68s3.1,3.57,5.09,4.21l2.92,.88c6.14,1.81,10.87,4.91,10.87,12.04,0,4.38-1.05,8.89-4.56,11.87-3.45,2.92-8.07,4.15-12.51,4.15-5.55,0-10.99-1.87-15.49-5.03l4.91-9.24c2.86,2.51,6.26,4.56,10.17,4.56,2.69,0,5.55-1.35,5.55-4.44s-4.5-4.33-6.96-5.03c-7.19-2.05-11.93-3.92-11.93-12.45S10.17,5.77,18.99,5.77c4.44,0,9.88,1.4,13.8,3.62l-4.56,8.89h0Z"/><path class="cls-2" d="M49.86,2.5V24.83h.12c2.46-3.27,5.44-4.79,9.59-4.79,7.6,0,11.28,5.03,11.28,12.63v18.36h-10.64v-15.37c0-3.51-.53-7.13-4.79-7.13s-5.55,3.62-5.55,7.13v15.37h-10.64V2.5h10.64Z"/><path class="cls-2" d="M98.2,31.67c-.53-2.86-3.16-4.74-6.02-4.74-3.1,0-5.67,1.64-6.31,4.74h12.33Zm9.88,6.14h-22.39c0,4.33,2.28,6.66,6.66,6.66,2.28,0,3.92-.76,5.09-2.75h10.23c-.82,3.51-2.92,6.08-5.67,7.77-2.75,1.7-6.14,2.51-9.59,2.51-9.94,0-17.36-5.61-17.36-15.96s6.84-16.02,16.6-16.02c10.41,0,16.43,6.43,16.43,16.66v1.11h0Z"/><polygon class="cls-2" points="122.98 51.02 112.34 51.02 112.34 2.5 122.98 2.5 122.98 51.02 122.98 51.02"/><polygon class="cls-2" points="140.05 51.02 129.41 51.02 129.41 2.5 140.05 2.5 140.05 51.02 140.05 51.02"/><path class="cls-1" d="M69.64,94.58c-.17,9.35-.85,17.34-6.55,25.34-6.29,8.76-15.73,12.58-26.44,12.58-20.15,0-34.18-13.69-34.18-33.84s14.11-34.52,34.77-34.52c13.18,0,23.38,5.95,28.9,17.94l-15.81,6.63c-2.3-6.12-7.14-10.2-13.86-10.2-10.97,0-16.66,10.46-16.66,20.23s5.95,20.06,16.92,20.06c7.23,0,12.75-3.74,13.43-11.14h-13.6v-13.09h33.07Z"/><path class="cls-1" d="M88.09,108.61c0,5.53,3.66,9.78,9.95,9.78s9.95-4.25,9.95-9.78-3.66-9.86-9.95-9.86-9.95,4.51-9.95,9.86h0Zm34.86,21.76h-15.47v-4.85h-.17c-2.72,4.34-8.08,6.29-13.18,6.29-12.92,0-22.02-10.8-22.02-23.29s8.93-23.21,21.85-23.21c5.02,0,10.29,1.87,13.52,5.7v-4.25h15.47v43.61h0Z"/><path class="cls-1" d="M144.97,108.61c0,5.53,3.66,9.78,9.95,9.78s9.95-4.25,9.95-9.78-3.66-9.86-9.95-9.86-9.95,4.51-9.95,9.86h0Zm19.38,16.92h-.17c-2.72,4.34-8.08,6.29-13.18,6.29-12.92,0-22.02-10.8-22.02-23.29s8.93-23.21,21.85-23.21c5.02,0,10.29,1.87,13.52,5.7v-31.2h15.47v70.56h-15.47v-4.85h0Z"/><path class="cls-1" d="M203.29,130.37h-15.47v-43.61h15.47v43.61h0Zm.94-60.36c0,4.76-3.91,8.67-8.67,8.67s-8.67-3.91-8.67-8.67,3.91-8.67,8.67-8.67,8.67,3.91,8.67,8.67h0Z"/><path class="cls-1" d="M227.27,92.37h.17c3.57-5.27,7.91-7.06,13.94-7.06,11.73,0,16.41,7.4,16.41,18.11v26.95h-15.47v-21.25c0-4.17,.68-11.48-6.97-11.48-6.29,0-8.08,4.68-8.08,10.12v22.61h-15.47v-43.61h15.47v5.61h0Z"/><path class="cls-1" d="M281.76,130.37h-15.47v-43.61h15.47v43.61h0Zm.94-60.36c0,4.76-3.91,8.67-8.67,8.67s-8.67-3.91-8.67-8.67,3.91-8.67,8.67-8.67,8.67,3.91,8.67,8.67h0Z"/><path class="cls-1" d="M303.1,108.61c0,5.53,3.66,9.78,9.95,9.78s9.95-4.25,9.95-9.78-3.66-9.86-9.95-9.86-9.95,4.51-9.95,9.86h0Zm34.86,21.76h-15.47v-4.85h-.17c-2.72,4.34-8.08,6.29-13.18,6.29-12.92,0-22.02-10.8-22.02-23.29s8.93-23.21,21.85-23.21c5.01,0,10.29,1.87,13.52,5.7v-4.25h15.47v43.61h0Z"/></svg>