<?xml version="1.0" encoding="UTF-8"?><svg id="Layer_1" xmlns="http://www.w3.org/2000/svg" xmlns:xlink="http://www.w3.org/1999/xlink" viewBox="0 0 500 135"><defs><style>.cls-1{fill:none;}.cls-2{clip-path:url(#clippath);}.cls-3{fill:#005596;}.cls-4{fill:#ed1c24;}</style><clipPath id="clippath"><rect class="cls-1" x="1.18" y="2.5" width="497.74" height="130"/></clipPath></defs><path class="cls-4" d="M247.08,98.64s-8.14-14.09-24.19-29.77l13.75-18.79h-20.74l-5.59,7.67c-20.69-16.51-48.73-31.92-86.38-31.22,33.21,3.35,55.3,18.14,78.28,42.2l-21.9,29.92h20.83l12.16-16.63c7.14,9.59,10.65,16.63,10.65,16.63h23.15Z"/><path class="cls-3" d="M226.79,68.56c12.42,11.31,23.76,30.08,23.76,30.08h7.09s-9.25-16.62-27.41-34.8l-3.44,4.72h0Z"/><path class="cls-3" d="M213.14,48.61c-18.73-13.73-39.5-23.04-69.66-23.04,28.45,3.53,48.56,14.02,66.23,27.75l3.43-4.71h0Z"/><path class="cls-4" d="M27.85,7.68c-2.94-1.68-6.97-2.74-10.32-2.74-6.6,0-11.36,4.4-11.36,11.12s3.53,7.8,8.9,9.33c1.84,.55,5.22,1.4,5.22,3.79s-2.14,3.34-4.17,3.34c-2.93,0-5.46-1.53-7.61-3.41l-3.66,6.94c3.38,2.36,7.43,3.77,11.62,3.77,3.3,0,6.74-.94,9.33-3.12,2.6-2.23,3.4-5.6,3.4-8.93,0-5.33-3.54-7.67-8.12-9.02l-2.19-.65c-1.47-.49-3.82-1.24-3.82-3.19,0-1.84,2.1-2.74,3.69-2.74,2.11,0,4.11,.87,5.67,2.18l3.41-6.66"/><path class="cls-4" d="M32.44,2.5V38.96h7.96v-11.57c0-2.62,.99-5.34,4.15-5.34s3.58,2.72,3.58,5.34v11.57h7.95v-13.81c0-5.7-2.74-9.46-8.41-9.46-3.12,0-5.34,1.13-7.17,3.59h-.1V2.5h-7.96"/><path class="cls-4" d="M67.46,24.4c.46-2.3,2.39-3.55,4.72-3.55,2.14,0,4.1,1.39,4.49,3.55h-9.21Zm16.62,3.79c0-7.69-4.53-12.5-12.31-12.5-7.29,0-12.39,4.5-12.39,12.03s5.55,11.95,12.98,11.95c5.1,0,10.11-2.39,11.39-7.69h-7.63c-.89,1.49-2.09,2.06-3.82,2.06-3.26,0-4.96-1.77-4.96-5.02h16.75v-.82"/><polygon class="cls-4" points="95.41 2.5 87.47 2.5 87.47 38.96 95.41 38.96 95.41 2.5 95.41 2.5"/><g class="cls-2"><polygon class="cls-4" points="107.36 2.5 99.42 2.5 99.42 38.96 107.36 38.96 107.36 2.5 107.36 2.5"/><path class="cls-4" d="M156.67,50.08v48.56h18.11V50.08h-18.11Zm-23.62,0h-18.11v48.56h36.32v-11.81h-18.21V50.08h0Zm-66.12,48.56h40.53v-11.81h-22.41v-6.56h21.38v-11.8h-21.38v-6.59h22.41v-11.81h-40.53v48.56h0Zm-26.4-31.07H24.37v-17.49H1.08l5.17,6.52v42.04H24.37v-18.52h16.16v18.52h18.11V50.08h-18.11v17.49h0Z"/></g><path class="cls-3" d="M311.75,56.31v23.91c0,5.47-.3,10.88-5.84,15-4.65,3.5-11.97,4.74-18.47,4.74s-13.81-1.24-18.47-4.74c-5.54-4.12-5.83-9.53-5.83-15v-23.91h14.48v22.39c0,5.53,.52,11.56,9.82,11.56s9.83-6.03,9.83-11.56v-22.39h14.48Z"/><polygon class="cls-3" points="334.69 89.46 352.05 89.46 352.05 98.82 320.22 98.82 320.22 56.31 334.69 56.31 334.69 89.46 334.69 89.46"/><polygon class="cls-3" points="376.38 98.82 361.9 98.82 361.9 65.67 349.93 65.67 349.93 56.31 388.34 56.31 388.34 65.67 376.38 65.67 376.38 98.82 376.38 98.82"/><path class="cls-3" d="M410.28,75.36h1.4c4.73,0,10.05-.67,10.05-5.3s-5.32-5.3-10.05-5.3h-1.4v10.6h0Zm31.84,23.46h-18.02l-13.67-16.35h-.15v16.35h-14.48V56.31h21.64c11,0,19.35,4,19.35,13.08,0,5.86-4.28,10.94-12.19,12.01l17.51,17.42h0Z"/><path class="cls-3" d="M470.03,69.45h-.15l-5.98,13.53h12.04l-5.91-13.53h0Zm-10.12,21.99l-3.84,7.39h-15.36l21.42-42.52h15.81l20.98,42.52h-15.44l-3.62-7.39h-19.94Z"/><polygon class="cls-3" points="9.7 107.63 15.93 107.63 20.86 120.63 26.09 107.63 32.38 107.63 36.06 131.95 29.74 131.95 27.96 117.95 27.9 117.95 22.06 131.95 19.54 131.95 13.96 117.95 13.89 117.95 11.86 131.95 5.57 131.95 9.7 107.63 9.7 107.63"/><path class="cls-3" d="M44.22,123.69c0,2.1,1.39,3.71,3.77,3.71s3.78-1.61,3.78-3.71-1.39-3.74-3.78-3.74-3.77,1.71-3.77,3.74h0Zm13.74,0c0,5.62-4.65,8.81-9.97,8.81s-9.97-3.16-9.97-8.81,4.65-8.84,9.97-8.84,9.97,3.19,9.97,8.84h0Z"/><polygon class="cls-3" points="67.68 131.95 61.8 131.95 61.8 120.24 59.9 120.24 59.9 115.4 61.8 115.4 61.8 110.43 67.68 110.43 67.68 115.4 71 115.4 71 120.24 67.68 120.24 67.68 131.95 67.68 131.95"/><path class="cls-3" d="M78.48,123.69c0,2.1,1.39,3.71,3.77,3.71s3.78-1.61,3.78-3.71-1.39-3.74-3.78-3.74-3.77,1.71-3.77,3.74h0Zm13.74,0c0,5.62-4.65,8.81-9.97,8.81s-9.97-3.16-9.97-8.81,4.65-8.84,9.97-8.84,9.97,3.19,9.97,8.84h0Z"/><path class="cls-3" d="M101.39,118.11h.07c1.13-2.03,3.07-2.93,5.36-2.93h1.13v5.65c-.81-.45-1.58-.55-2.49-.55-3.26,0-4.07,2.16-4.07,5v6.68h-5.87v-16.55h5.87v2.71h0Z"/><path class="cls-3" d="M124.56,123.69c0,2.1,1.38,3.71,3.77,3.71s3.77-1.61,3.77-3.71-1.39-3.74-3.77-3.74-3.77,1.71-3.77,3.74h0Zm13.74,0c0,5.62-4.65,8.81-9.97,8.81s-9.97-3.16-9.97-8.81,4.64-8.84,9.97-8.84,9.97,3.19,9.97,8.84h0Z"/><path class="cls-3" d="M146.84,131.95h-5.87v-16.55h5.87v16.55h0Zm.35-22.91c0,1.81-1.48,3.29-3.29,3.29s-3.29-1.49-3.29-3.29,1.48-3.29,3.29-3.29,3.29,1.49,3.29,3.29h0Z"/><polygon class="cls-3" points="157.11 131.95 151.23 131.95 151.23 105.17 157.11 105.17 157.11 131.95 157.11 131.95"/><path class="cls-3" d="M171.39,119.66c-.91-.49-2.16-.81-3.16-.81-.68,0-1.84,.29-1.84,1.13,0,1.13,1.84,1.29,2.65,1.45,2.74,.55,4.8,1.84,4.8,4.91,0,4.36-3.97,6.16-7.8,6.16-2.36,0-4.68-.68-6.68-1.9l2.13-4.1c1.2,.84,3.19,1.68,4.65,1.68,.74,0,1.84-.35,1.84-1.26,0-1.29-1.84-1.36-3.68-1.84-1.84-.49-3.68-1.39-3.68-4.36,0-4.06,3.68-5.87,7.29-5.87,1.87,0,3.74,.29,5.45,1.06l-1.97,3.74h0Z"/></svg>