<?xml version="1.0" encoding="UTF-8"?><svg id="Layer_1" xmlns="http://www.w3.org/2000/svg" viewBox="0 0 345 135"><defs><style>.cls-1{fill:#005596;}.cls-2{fill:#ed1c24;}</style></defs><path class="cls-2" d="M329.22,131.5s-10.84-18.75-32.21-39.63l18.3-25.02h-27.61s-7.45,10.2-7.45,10.2c-27.54-21.98-64.87-42.49-115.01-41.57,44.22,4.46,73.62,24.15,104.21,56.18l-29.16,39.84h27.73l16.18-22.14c9.51,12.77,14.18,22.14,14.18,22.14h30.82Z"/><path class="cls-1" d="M302.21,91.45c16.53,15.06,31.64,40.05,31.64,40.05h9.44s-12.32-22.13-36.49-46.33l-4.59,6.28h0Z"/><path class="cls-1" d="M284.04,64.89c-24.94-18.27-52.59-30.68-92.74-30.68,37.87,4.71,64.65,18.67,88.18,36.95l4.57-6.27h0Z"/><path class="cls-2" d="M37.34,10.4c-3.92-2.24-9.28-3.64-13.73-3.64-8.78,0-15.12,5.86-15.12,14.81s4.7,10.38,11.85,12.42c2.45,.74,6.94,1.86,6.94,5.04s-2.85,4.45-5.55,4.45c-3.9,0-7.27-2.04-10.13-4.54l-4.88,9.24c4.5,3.15,9.89,5.02,15.47,5.02,4.39,0,8.98-1.26,12.42-4.15,3.46-2.97,4.52-7.45,4.52-11.89,0-7.1-4.71-10.21-10.81-12.01l-2.92-.87c-1.96-.66-5.08-1.66-5.08-4.25,0-2.45,2.8-3.65,4.91-3.65,2.8,0,5.48,1.16,7.55,2.9l4.54-8.87"/><path class="cls-2" d="M43.45,3.5V52.04h10.6v-15.41c0-3.48,1.32-7.11,5.52-7.11s4.77,3.63,4.77,7.11v15.41h10.58v-18.38c0-7.59-3.64-12.6-11.19-12.6-4.16,0-7.11,1.51-9.54,4.79h-.14V3.5h-10.6"/><path class="cls-2" d="M90.08,32.65c.62-3.06,3.18-4.72,6.29-4.72,2.85,0,5.46,1.85,5.98,4.72h-12.26Zm22.13,5.05c0-10.24-6.03-16.64-16.39-16.64-9.71,0-16.5,5.99-16.5,16.02s7.39,15.9,17.28,15.9c6.79,0,13.47-3.18,15.17-10.24h-10.16c-1.19,1.99-2.79,2.75-5.09,2.75-4.34,0-6.6-2.36-6.6-6.69h22.3v-1.1"/><polygon class="cls-2" points="127.29 3.5 116.73 3.5 116.73 52.04 127.29 52.04 127.29 3.5 127.29 3.5"/><polygon class="cls-2" points="143.2 3.5 132.63 3.5 132.63 52.04 143.2 52.04 143.2 3.5 143.2 3.5"/><path class="cls-2" d="M208.85,66.85v64.65h24.12V66.85h-24.12Zm-31.45,0h-24.11v64.65h48.35v-15.72h-24.25v-48.93h0Zm-88.03,64.65h53.97v-15.72h-29.84v-8.73h28.46v-15.71h-28.46v-8.77h29.84v-15.72h-53.97v64.65h0Zm-35.15-41.37h-21.51v-23.28H1.71l6.88,8.68v55.97h24.12v-24.66h21.51v24.66h24.11V66.85h-24.11v23.28h0Z"/></svg>