<?xml version="1.0" encoding="UTF-8"?><svg id="Layer_1" xmlns="http://www.w3.org/2000/svg" viewBox="0 0 340 135"><defs><style>.cls-1{fill:#005596;}.cls-2{fill:#ed1c24;}</style></defs><path class="cls-2" d="M28.15,17.36c-2.18-1.82-4.97-3.03-7.88-3.03-2.18,0-5.09,1.27-5.09,3.82s3.21,3.7,5.27,4.36l3.03,.91c6.36,1.88,11.27,5.09,11.27,12.48,0,4.54-1.09,9.21-4.73,12.3-3.58,3.03-8.36,4.3-12.97,4.3-5.76,0-11.39-1.94-16.06-5.21l5.09-9.57c2.97,2.61,6.48,4.73,10.54,4.73,2.79,0,5.76-1.39,5.76-4.61s-4.67-4.48-7.21-5.21c-7.45-2.12-12.36-4.06-12.36-12.91S9.43,4.39,18.58,4.39c4.6,0,10.24,1.45,14.3,3.76l-4.73,9.21h0Z"/><path class="cls-2" d="M50.57,1V24.15h.12c2.54-3.39,5.63-4.97,9.94-4.97,7.88,0,11.69,5.21,11.69,13.09v19.03h-11.03v-15.94c0-3.64-.55-7.39-4.97-7.39s-5.76,3.76-5.76,7.39v15.94h-11.03V1h11.03Z"/><path class="cls-2" d="M100.67,31.24c-.55-2.97-3.27-4.91-6.24-4.91-3.21,0-5.88,1.7-6.54,4.91h12.79Zm10.24,6.36h-23.21c0,4.48,2.36,6.91,6.91,6.91,2.36,0,4.06-.79,5.27-2.85h10.6c-.85,3.64-3.03,6.3-5.88,8.06-2.85,1.76-6.36,2.61-9.94,2.61-10.3,0-18-5.82-18-16.54s7.09-16.6,17.21-16.6c10.79,0,17.03,6.67,17.03,17.27v1.15h0Z"/><polygon class="cls-2" points="126.36 51.29 115.33 51.29 115.33 1 126.36 1 126.36 51.29 126.36 51.29"/><polygon class="cls-2" points="144.05 51.29 133.02 51.29 133.02 1 144.05 1 144.05 51.29 144.05 51.29"/><polygon class="cls-1" points="13.37 66.64 30.23 66.64 43.6 101.85 57.75 66.64 74.79 66.64 84.75 132.52 67.63 132.52 62.82 94.6 62.65 94.6 46.83 132.52 40.02 132.52 24.9 94.6 24.73 94.6 19.22 132.52 2.19 132.52 13.37 66.64 13.37 66.64"/><path class="cls-1" d="M103.36,110.15c0,5.68,3.76,10.05,10.22,10.05s10.22-4.37,10.22-10.05-3.76-10.13-10.22-10.13-10.22,4.63-10.22,10.13h0Zm37.22,0c0,15.2-12.58,23.85-27,23.85s-27-8.56-27-23.85,12.58-23.94,27-23.94,27,8.65,27,23.94h0Z"/><path class="cls-1" d="M161.9,95.04h.17c3.06-5.5,8.3-7.95,14.5-7.95h3.06v15.29c-2.18-1.22-4.28-1.48-6.73-1.48-8.82,0-11.01,5.85-11.01,13.54v18.08h-15.9v-44.82h15.9v7.34h0Z"/><polygon class="cls-1" points="200.6 132.52 184.7 132.52 184.7 60 200.6 60 200.6 132.52 200.6 132.52"/><path class="cls-1" d="M225.24,132.52h-15.9v-44.82h15.9v44.82h0Zm.96-62.03c0,4.89-4.02,8.91-8.91,8.91s-8.91-4.02-8.91-8.91,4.02-8.91,8.91-8.91,8.91,4.02,8.91,8.91h0Z"/><path class="cls-1" d="M249.88,93.46h.18c3.67-5.42,8.12-7.25,14.33-7.25,12.06,0,16.86,7.6,16.86,18.61v27.69h-15.9v-21.84c0-4.28,.7-11.8-7.16-11.8-6.46,0-8.3,4.8-8.3,10.4v23.24h-15.9v-44.82h15.9v5.76h0Z"/><path class="cls-1" d="M303.17,110.15c0,5.68,3.76,10.05,10.22,10.05s10.22-4.37,10.22-10.05-3.76-10.13-10.22-10.13-10.22,4.63-10.22,10.13h0Zm35.82,22.37h-15.9v-4.98h-.17c-2.8,4.46-8.3,6.47-13.54,6.47-13.28,0-22.63-11.09-22.63-23.94s9.17-23.85,22.45-23.85c5.16,0,10.57,1.92,13.89,5.85v-4.37h15.9v44.82h0Z"/></svg>