<?xml version="1.0" encoding="UTF-8"?><svg id="Layer_1" xmlns="http://www.w3.org/2000/svg" xmlns:xlink="http://www.w3.org/1999/xlink" viewBox="0 0 340 157"><defs><style>.cls-1{fill:none;}.cls-2{clip-path:url(#clippath);}.cls-3{fill:#e32b2f;}.cls-4{fill:#0c98b8;}</style><clipPath id="clippath"><rect class="cls-1" x="2.49" y="1.5" width="335.03" height="154"/></clipPath></defs><path class="cls-3" d="M29.84,17.87c-2.18-1.82-4.97-3.03-7.88-3.03-2.18,0-5.09,1.27-5.09,3.82s3.21,3.7,5.27,4.36l3.03,.91c6.36,1.88,11.27,5.09,11.27,12.49,0,4.55-1.09,9.21-4.73,12.3-3.58,3.03-8.37,4.3-12.97,4.3-5.76,0-11.4-1.94-16.06-5.21l5.09-9.58c2.97,2.61,6.49,4.73,10.55,4.73,2.79,0,5.76-1.39,5.76-4.61s-4.67-4.48-7.21-5.21c-7.46-2.12-12.37-4.06-12.37-12.91S11.11,4.89,20.26,4.89c4.61,0,10.24,1.45,14.3,3.76l-4.73,9.21h0Z"/><path class="cls-3" d="M52.26,1.5V24.65h.12c2.55-3.4,5.64-4.97,9.94-4.97,7.88,0,11.7,5.21,11.7,13.09v19.03h-11.03v-15.94c0-3.64-.55-7.4-4.97-7.4s-5.76,3.76-5.76,7.4v15.94h-11.03V1.5h11.03Z"/><path class="cls-3" d="M102.38,31.74c-.55-2.97-3.27-4.91-6.24-4.91-3.21,0-5.88,1.7-6.55,4.91h12.79Zm10.24,6.36h-23.21c0,4.48,2.36,6.91,6.91,6.91,2.36,0,4.06-.79,5.27-2.85h10.61c-.85,3.64-3.03,6.3-5.88,8.06-2.85,1.76-6.36,2.61-9.94,2.61-10.3,0-18-5.82-18-16.55s7.09-16.61,17.21-16.61c10.79,0,17.03,6.67,17.03,17.27v1.15h0Z"/><polygon class="cls-3" points="128.07 51.81 117.04 51.81 117.04 1.5 128.07 1.5 128.07 51.81 128.07 51.81"/><g class="cls-2"><polygon class="cls-3" points="145.77 51.81 134.74 51.81 134.74 1.5 145.77 1.5 145.77 51.81 145.77 51.81"/><polygon class="cls-4" points="13.7 67.06 30.6 67.06 43.99 102.35 58.18 67.06 75.25 67.06 85.23 133.08 68.07 133.08 63.26 95.08 63.08 95.08 47.23 133.08 40.4 133.08 25.25 95.08 25.08 95.08 19.56 133.08 2.49 133.08 13.7 67.06 13.7 67.06"/></g><polygon class="cls-4" points="82.96 88.16 101.35 88.16 113.35 111.19 125.08 88.16 143.2 88.16 107.22 155.5 89.35 155.5 104.68 126.95 82.96 88.16 82.96 88.16"/><path class="cls-4" d="M171.67,99.72c-2.45-1.31-5.87-2.19-8.58-2.19-1.84,0-4.99,.79-4.99,3.06,0,3.07,4.99,3.5,7.18,3.94,7.44,1.49,13.05,4.99,13.05,13.31,0,11.82-10.77,16.72-21.19,16.72-6.39,0-12.7-1.84-18.13-5.17l5.78-11.12c3.24,2.28,8.67,4.55,12.61,4.55,2.01,0,4.99-.96,4.99-3.41,0-3.5-4.99-3.68-9.98-4.99-4.99-1.31-9.98-3.77-9.98-11.82,0-11.03,9.98-15.94,19.79-15.94,5.08,0,10.16,.79,14.8,2.89l-5.34,10.16h0Z"/><path class="cls-4" d="M217.37,104.1c-.79-4.29-4.73-7.09-9.02-7.09-4.64,0-8.49,2.45-9.46,7.09h18.47Zm14.8,9.19h-33.54c0,6.48,3.41,9.98,9.98,9.98,3.42,0,5.87-1.14,7.62-4.12h15.32c-1.23,5.25-4.38,9.11-8.49,11.64-4.12,2.54-9.19,3.77-14.36,3.77-14.89,0-26.01-8.41-26.01-23.9s10.25-23.99,24.87-23.99c15.59,0,24.61,9.63,24.61,24.96v1.66h0Z"/><polygon class="cls-4" points="254.06 133.08 238.13 133.08 238.13 60.41 254.06 60.41 254.06 133.08 254.06 133.08"/><polygon class="cls-4" points="279.19 133.08 263.26 133.08 263.26 60.41 279.19 60.41 279.19 133.08 279.19 133.08"/><path class="cls-4" d="M301.61,110.67c0,5.69,3.77,10.07,10.25,10.07s10.24-4.38,10.24-10.07-3.77-10.16-10.24-10.16-10.25,4.64-10.25,10.16h0Zm35.9,22.42h-15.94v-4.99h-.17c-2.8,4.47-8.32,6.48-13.57,6.48-13.31,0-22.68-11.12-22.68-23.99s9.19-23.9,22.5-23.9c5.16,0,10.59,1.93,13.92,5.87v-4.38h15.94v44.92h0Z"/></svg>