<?xml version="1.0" encoding="UTF-8"?><svg id="Layer_1" xmlns="http://www.w3.org/2000/svg" xmlns:xlink="http://www.w3.org/1999/xlink" viewBox="0 0 380 140"><defs><style>.cls-1{fill:none;}.cls-2{clip-path:url(#clippath);}.cls-3{fill:#ffcd00;}.cls-4{fill:#e1251b;}</style><clipPath id="clippath"><rect class="cls-1" x="1.31" y="3" width="377.43" height="134"/></clipPath></defs><g class="cls-2"><path class="cls-4" d="M28.49,19.41c-2.19-1.82-4.98-3.04-7.9-3.04-2.19,0-5.11,1.28-5.11,3.83s3.22,3.71,5.29,4.38l3.04,.91c6.38,1.88,11.31,5.11,11.31,12.52,0,4.56-1.09,9.24-4.74,12.34-3.59,3.04-8.39,4.32-13.01,4.32-5.77,0-11.43-1.95-16.11-5.23l5.11-9.6c2.98,2.61,6.5,4.74,10.58,4.74,2.8,0,5.77-1.4,5.77-4.62s-4.68-4.5-7.23-5.23c-7.48-2.13-12.4-4.07-12.4-12.95S9.7,6.4,18.88,6.4c4.62,0,10.27,1.46,14.35,3.77l-4.74,9.24h0Z"/></g><path class="cls-4" d="M50.97,3V26.22h.12c2.55-3.4,5.65-4.98,9.97-4.98,7.9,0,11.73,5.23,11.73,13.13v19.09h-11.06v-15.99c0-3.65-.55-7.42-4.98-7.42s-5.78,3.77-5.78,7.42v15.99h-11.06V3h11.06Z"/><path class="cls-4" d="M101.24,33.33c-.55-2.98-3.28-4.92-6.26-4.92-3.22,0-5.9,1.7-6.56,4.92h12.83Zm10.27,6.38h-23.28c0,4.5,2.37,6.93,6.93,6.93,2.37,0,4.07-.79,5.29-2.86h10.64c-.85,3.65-3.04,6.32-5.9,8.08-2.86,1.76-6.38,2.61-9.97,2.61-10.33,0-18.05-5.84-18.05-16.59s7.11-16.66,17.26-16.66c10.82,0,17.08,6.69,17.08,17.32v1.15h0Z"/><polygon class="cls-4" points="127 53.45 115.94 53.45 115.94 3 127 3 127 53.45 127 53.45"/><polygon class="cls-4" points="144.75 53.45 133.69 53.45 133.69 3 144.75 3 144.75 53.45 144.75 53.45"/><path class="cls-3" d="M11.45,70.78c.11-.73,.81-1.33,1.55-1.33h14.45c.74,0,1.66,.51,2.04,1.14l23.6,38.36c.39,.63,.74,1.14,.79,1.14s.18-.6,.3-1.33l5.97-38c.11-.73,.81-1.33,1.55-1.33h14.45c.74,0,1.25,.6,1.13,1.33l-9.99,63.83c-.11,.73-.81,1.33-1.55,1.33h-14.45c-.74,0-1.66-.52-2.04-1.14l-23.6-38.45c-.39-.63-.74-1.14-.79-1.14s-.18,.6-.3,1.33l-5.97,38.09c-.11,.73-.81,1.33-1.55,1.33H2.6c-.74,0-1.25-.6-1.13-1.33l9.99-63.83h0Z"/><path class="cls-3" d="M94.71,113.13c-.96,5.68,2.1,10.05,8.57,10.05s10.93-4.37,11.89-10.05c.87-5.51-2.19-10.14-8.66-10.14s-10.93,4.63-11.8,10.14h0Zm31.09,22.38s-12.81,.03-13.85,0c-1.05-.03-.72-1.03-.72-1.03l.62-3.95h-.17c-3.5,4.46-9.35,6.47-14.6,6.47-13.29,0-20.89-11.1-18.8-23.95,2.01-12.85,12.94-23.87,26.23-23.87,5.16,0,10.23,1.92,12.94,5.86,0,0,.58-3.6,.49-3.06-.09,.54,0-1.27,1.12-1.31,.75-.03,13.5-.01,13.98,0,.48,.01,.88,.89,.81,1.31-.06,.38-5.69,35.94-6.71,42.5-.17,1.08-1.34,1.03-1.34,1.03h0Z"/><path class="cls-3" d="M160.07,91.79l-3.56,22.83c-.87,5.68-.17,9.7,6.38,9.7s8.66-4.02,9.53-9.7l3.56-22.66s.06-1.04,1.08-1.29c1.01-.25,13.34-.05,14.09,0,1.12,.07,.75,1.29,.75,1.29l-4.08,25.72c-2.27,14.77-13.46,19.32-26.93,19.32s-23.08-4.55-20.81-19.32c1.4-8.76,4.1-25.73,4.1-25.73,0,0,.13-1.29,1.3-1.29h13.52c1.34,0,1.07,1.13,1.07,1.13h0Z"/><path class="cls-3" d="M302.03,91.79l-3.56,22.83c-.87,5.68-.17,9.7,6.38,9.7s8.66-4.02,9.53-9.7l3.56-22.66s.06-1.04,1.08-1.29c1.01-.25,13.34-.05,14.09,0,1.12,.07,.75,1.29,.75,1.29l-4.08,25.72c-2.27,14.77-13.46,19.32-26.93,19.32s-23.08-4.55-20.81-19.32c1.4-8.76,4.1-25.73,4.1-25.73,0,0,.13-1.29,1.3-1.29h13.52c1.34,0,1.07,1.13,1.07,1.13h0Z"/><path class="cls-3" d="M212.76,134.19c-.11,.73-.81,1.33-1.55,1.33h-13.23c-.74,0-1.25-.6-1.13-1.33l4.57-29.08c.11-.73-.4-1.33-1.13-1.33h-2.47c-.74,0-1.25-.6-1.13-1.33l1.67-10.46c.12-.73,.82-1.32,1.55-1.32h2.47c.74,0,1.44-.6,1.56-1.32l1.76-10.81c.12-.73,.82-1.32,1.56-1.32h13.23c.74,0,1.24,.6,1.13,1.32l-1.76,10.81c-.12,.73,.39,1.32,1.13,1.32h6.32c.74,0,1.25,.6,1.13,1.32l-1.67,10.46c-.12,.73-.82,1.33-1.55,1.33h-6.32c-.74,0-1.44,.6-1.55,1.33l-4.57,29.08h0Z"/><path class="cls-3" d="M253.29,73.44c-.7,4.9-5.42,8.92-10.32,8.92s-8.22-4.02-7.52-8.92c.79-4.9,5.51-8.92,10.4-8.92s8.22,4.02,7.43,8.92h0Zm-10.54,60.74c-.12,.73-.81,1.33-1.55,1.33h-13.23c-.74,0-1.25-.6-1.13-1.33l6.66-42.2c.12-.73,.81-1.33,1.55-1.33h13.23c.74,0,1.25,.6,1.13,1.33l-6.66,42.2h0Z"/><g><path class="cls-3" d="M269.15,134.19c-.12,.73-.81,1.33-1.55,1.33h-13.23c-.74,0-1.25-.6-1.13-1.33l11.03-69.91c.12-.73,.81-1.33,1.55-1.33h13.23c.74,0,1.25,.6,1.13,1.33l-11.03,69.91h0Z"/><path class="cls-3" d="M371.4,101.91c-2.2-1.09-5.2-1.89-7.7-1.89-1.84,0-5.07,.79-5.42,3.06-.52,3.06,4.37,3.5,6.56,3.93,7.17,1.49,12.24,4.98,10.93,13.29-1.92,11.8-13.46,16.7-23.87,16.7-6.19,0-11.97-1.73-16.78-4.86-.15-.1-.36-.41-.08-.83,.18-.27,6.64-9.89,6.91-10.2,.27-.31,.52-.15,.67-.04,2.94,2.16,7.72,4.22,11.47,4.22,2.01,0,5.07-.96,5.51-3.41,.52-3.5-4.46-3.67-9.18-4.98-4.81-1.31-9.35-3.76-8.13-11.8,1.75-11.02,12.5-15.91,22.29-15.91,4.87,0,9.65,.76,13.83,2.65,.6,.27,.21,.67,.21,.67l-6.37,9.24s-.24,.48-.84,.17h0Z"/></g></svg>