<?xml version="1.0" encoding="UTF-8"?><svg id="Layer_1" xmlns="http://www.w3.org/2000/svg" viewBox="0 0 405 135"><defs><style>.cls-1{fill:#ee3124;}.cls-2{fill:#009ac7;}</style></defs><path class="cls-1" d="M28.29,17.65c-2.64-2.09-5-3.04-7.7-3.04-2.84,0-5,1.69-5,3.92,0,.81,.4,1.69,1.08,2.23,1.35,1.08,1.76,1.28,7.03,2.84,7.84,2.3,11.08,5.95,11.08,12.63,0,5.13-1.55,9.05-4.59,11.69-3.24,2.77-7.84,4.26-13.04,4.26s-10.81-1.76-15.61-5.07l5-9.46c3.58,3.11,6.89,4.59,10.34,4.59s5.68-1.76,5.68-4.39c0-2.43-1.55-3.58-7.03-5.2-5-1.49-6.96-2.3-8.58-3.65-2.36-1.96-3.58-4.93-3.58-8.92,0-9.05,6.22-15.2,15.34-15.2,4.73,0,9.73,1.28,14.26,3.65l-4.66,9.12h0Z"/><path class="cls-1" d="M49.57,1.5V24.27c2.91-3.38,5.47-4.53,9.8-4.53,3.78,0,6.69,1.08,8.85,3.38,2.16,2.16,2.84,4.26,2.84,8.45v19.46h-10.81v-15.47c0-3.11-.07-3.72-.68-4.86-.68-1.42-2.43-2.37-4.32-2.37-1.76,0-3.44,.81-4.53,2.03-.81,1.08-1.15,2.23-1.15,4.26v16.42h-10.81V1.5h10.81Z"/><path class="cls-1" d="M98.49,31.43c-.74-3.04-3.11-4.93-6.35-4.93s-5.54,1.82-6.08,4.93h12.43Zm-12.7,6.28c.07,4.59,2.23,6.89,6.55,6.89,2.57,0,3.99-.74,5.34-2.9h10.4c-.74,2.57-1.42,3.92-2.7,5.4-2.77,3.24-7.57,5.13-13.04,5.13-10.61,0-17.5-6.42-17.5-16.28s6.55-16.42,17.02-16.42,16.69,6.42,16.69,17.09v1.08h-22.77Z"/><polygon class="cls-1" points="123.16 51.02 112.35 51.02 112.35 1.5 123.16 1.5 123.16 51.02 123.16 51.02"/><polygon class="cls-1" points="138.97 51.02 128.16 51.02 128.16 1.5 138.97 1.5 138.97 51.02 138.97 51.02"/><path class="cls-2" d="M20.1,99.05c0,10.2,7.99,18.28,18.09,18.28s18.09-8.08,18.09-18.09-8.08-17.99-18.09-17.99-18.09,8.08-18.09,17.8h0Zm44.36-23.19c5.97,6.25,9.24,14.53,9.24,23.48,0,10.1-4.43,19.63-12.03,26.08-6.45,5.39-14.34,8.08-23.77,8.08-20.21,0-35.22-14.82-35.22-34.83,0-9.53,4.43-19.05,12.03-25.5,6.06-5.1,14.53-8.08,23.48-8.08,10.68,0,19.44,3.56,26.27,10.78h0Z"/><path class="cls-2" d="M93.88,87.6v5.48c4.14-4.81,7.79-6.45,13.95-6.45,5.39,0,9.53,1.54,12.6,4.81,3.08,3.08,4.04,6.06,4.04,12.03v27.71h-15.4v-22.04c0-4.42-.1-5.29-.96-6.93-.96-2.02-3.46-3.37-6.16-3.37-2.5,0-4.91,1.15-6.45,2.89-1.15,1.54-1.64,3.18-1.64,6.06v23.38h-15.4v-43.59h15.4Z"/><path class="cls-2" d="M145.93,109.25c0,5.58,4.43,10.1,10.01,10.1s9.91-4.43,9.91-10.01-4.42-9.91-10.01-9.91-9.91,4.52-9.91,9.81h0Zm34.83-48.59v70.53h-15.4v-4.81c-3.37,4.33-7.6,6.25-13.47,6.25-12.41,0-22.03-10.2-22.03-23.38s9.53-23.09,21.94-23.09c5.58,0,9.82,1.73,13.57,5.68v-31.18h15.4Z"/><path class="cls-2" d="M204.22,131.19h-15.39v-43.59h15.39v43.59h0Zm.96-60.33c0,4.72-3.95,8.66-8.66,8.66s-8.66-3.95-8.66-8.76,3.94-8.56,8.66-8.56,8.66,3.85,8.66,8.66h0Z"/><path class="cls-2" d="M226.74,87.6v5.48c4.14-4.81,7.8-6.45,13.95-6.45,5.39,0,9.52,1.54,12.6,4.81,3.08,3.08,4.04,6.06,4.04,12.03v27.71h-15.39v-22.04c0-4.42-.1-5.29-.96-6.93-.96-2.02-3.47-3.37-6.16-3.37-2.5,0-4.91,1.15-6.45,2.89-1.16,1.54-1.64,3.18-1.64,6.06v23.38h-15.39v-43.59h15.39Z"/><path class="cls-2" d="M278.78,109.25c0,5.58,4.43,10.1,10.01,10.1s9.91-4.43,9.91-10.01-4.42-9.91-10.01-9.91-9.91,4.52-9.91,9.81h0Zm34.83-21.65v43.59h-15.4v-4.81c-3.36,4.33-7.6,6.25-13.47,6.25-12.41,0-22.03-10.2-22.03-23.38s9.53-23.09,21.94-23.09c5.58,0,9.81,1.73,13.56,5.68v-4.23h15.4Z"/><path class="cls-2" d="M397.98,131.19h-18.76l-5.77-9.62c-2.02-3.46-4.23-7.79-5.96-12.12-1.83,3.18-3.85,6.16-6.35,9.24l-10.01,12.51h-20.2l28-33.77-18.38-30.41h18.86l4.24,7.5c2.69,4.81,3.95,7.31,5.87,11.84,3.08-4.72,4.62-7.02,6.45-9.33l7.89-10.01h19.63l-25.4,31.27,19.92,32.91h0Z"/></svg>