<?xml version="1.0" encoding="UTF-8"?><svg id="Layer_1" xmlns="http://www.w3.org/2000/svg" viewBox="0 0 455 135"><defs><style>.cls-1{fill:#ed1c24;}</style></defs><path class="cls-1" d="M39.99,18.31c-2.59-2.05-4.92-2.98-7.58-2.98-2.79,0-4.92,1.65-4.92,3.84,0,.79,.4,1.66,1.06,2.18,1.33,1.06,1.73,1.26,6.92,2.78,7.71,2.25,10.91,5.83,10.91,12.37,0,5.03-1.53,8.87-4.52,11.45-3.19,2.71-7.71,4.17-12.83,4.17s-10.64-1.72-15.36-4.96l4.92-9.26c3.53,3.04,6.78,4.5,10.18,4.5s5.59-1.72,5.59-4.3c0-2.38-1.53-3.51-6.92-5.1-4.92-1.46-6.85-2.25-8.44-3.57-2.33-1.92-3.53-4.83-3.53-8.73,0-8.87,6.12-14.89,15.09-14.89,4.66,0,9.58,1.26,14.03,3.57l-4.59,8.93h0Z"/><path class="cls-1" d="M60.27,2.5V24.8c2.86-3.31,5.38-4.43,9.64-4.43,3.72,0,6.58,1.06,8.71,3.3,2.13,2.12,2.79,4.17,2.79,8.27v19.06h-10.64v-15.15c0-3.04-.06-3.64-.66-4.76-.66-1.39-2.39-2.32-4.26-2.32-1.73,0-3.39,.8-4.46,1.99-.8,1.05-1.13,2.18-1.13,4.17v16.08h-10.64V2.5h10.64Z"/><path class="cls-1" d="M107.75,31.81c-.73-2.97-3.06-4.83-6.25-4.83s-5.45,1.79-5.98,4.83h12.24Zm-12.5,6.15c.07,4.5,2.2,6.75,6.45,6.75,2.52,0,3.92-.73,5.25-2.85h10.24c-.73,2.52-1.4,3.84-2.66,5.3-2.73,3.17-7.45,5.03-12.83,5.03-10.44,0-17.23-6.28-17.23-15.94s6.45-16.08,16.76-16.08,16.43,6.29,16.43,16.74v1.06h-22.41Z"/><polygon class="cls-1" points="132.36 51 121.72 51 121.72 2.5 132.36 2.5 132.36 51 132.36 51"/><polygon class="cls-1" points="148.86 51 138.21 51 138.21 2.5 148.86 2.5 148.86 51 148.86 51"/><path class="cls-1" d="M36.2,95.08h1.97c4.68,0,9.46-.61,10.39-5.46,.94-5.02-3.22-5.63-8.11-5.63h-2.18l-2.08,11.09h0Zm-22.45-28.93H48.15c17.67,0,31.49,6.24,28.38,22.69-1.87,9.87-7.28,14.03-18.4,16.98l-.1,.35c1.25,.95,2.81,2.16,4.05,4.06l12.99,21.22H42.23l-8.52-20.96h-.52l-3.95,20.96H1.38L13.75,66.15h0Z"/><path class="cls-1" d="M92.12,66.15h28.48s-11.01,58.43-11.57,60.8c-.56,2.37-4.12,4.51-6.89,4.51h-22.39l12.37-65.31h0Z"/><path class="cls-1" d="M138.37,66.15h29.31l4.37,34.3h.59c1.04-2.86,2.22-5.89,3.78-8.66l13.62-25.64h29l.52,65.31h-27.55l2.91-35.77h-.52c-.94,2.17-1.87,4.42-3.01,6.5l-16.94,29.28h-16.63l-4.89-27.63c-.31-2.77-.92-5.37-.61-8.14h-.64c-.62,2.6-1.35,5.28-2.18,7.88,0,0-6.64,21.47-7.3,23.6-.67,2.14-4.57,4.29-7.95,4.29h-20.92l25.05-65.31h0Z"/><path class="cls-1" d="M307.59,66.15l-7.28,38.63c-3.64,19.05-16.61,27.72-40.22,27.72-21.93,0-35.97-8.66-32.33-27.72l7.28-38.63h28.48l-6.86,36.38c-.93,5.11-1.08,9.61,6.51,9.61s8.15-4.5,9.09-9.61l6.86-36.38h28.48Z"/><path class="cls-1" d="M317.05,66.15h28.48l-8.42,44.35h31.25s-2.76,14.55-3.12,16.58c-.36,2.03-4.05,4.38-7.44,4.38h-53.11l12.37-65.31h0Z"/><path class="cls-1" d="M420.36,107.82l-1.14-11.52c-.31-2.77-.44-5.63-.44-8.4h-.81l-9.04,19.92h11.43Zm-23.28,23.65h-30.14s35.66-58.85,36.99-61c1.33-2.16,4.58-4.3,7.65-4.3h26.45l15.59,65.31h-30.14l-1.04-8.14h-21.52l-3.84,8.14h0Z"/></svg>