<?xml version="1.0" encoding="UTF-8"?><svg id="Layer_1" xmlns="http://www.w3.org/2000/svg" xmlns:xlink="http://www.w3.org/1999/xlink" viewBox="0 0 290 156"><defs><style>.cls-1{fill:none;}.cls-2{clip-path:url(#clippath);}.cls-3{fill:#ed1c24;}.cls-4{fill:#ffd200;}</style><clipPath id="clippath"><rect class="cls-1" x="2.41" y="1.5" width="285.18" height="153"/></clipPath></defs><path class="cls-3" d="M29.35,17.74c-2.17-1.8-4.93-3.01-7.82-3.01-2.16,0-5.05,1.26-5.05,3.79s3.19,3.67,5.23,4.33l3.01,.9c6.31,1.86,11.19,5.05,11.19,12.39,0,4.51-1.08,9.14-4.69,12.21-3.55,3.01-8.3,4.27-12.87,4.27-5.71,0-11.31-1.92-15.94-5.17l5.05-9.5c2.95,2.59,6.44,4.69,10.46,4.69,2.77,0,5.71-1.38,5.71-4.57s-4.63-4.45-7.16-5.17c-7.4-2.1-12.27-4.03-12.27-12.81S10.77,4.87,19.85,4.87c4.57,0,10.16,1.44,14.19,3.73l-4.69,9.14h0Z"/><path class="cls-3" d="M51.6,1.5V24.47h.12c2.53-3.37,5.59-4.93,9.86-4.93,7.82,0,11.61,5.17,11.61,12.99v18.89h-10.95v-15.82c0-3.61-.54-7.34-4.93-7.34s-5.71,3.73-5.71,7.34v15.82h-10.95V1.5h10.95Z"/><path class="cls-3" d="M101.33,31.51c-.54-2.95-3.25-4.87-6.19-4.87-3.19,0-5.83,1.68-6.5,4.87h12.69Zm10.16,6.32h-23.03c0,4.45,2.35,6.86,6.86,6.86,2.35,0,4.03-.78,5.23-2.83h10.52c-.84,3.61-3.01,6.26-5.83,8-2.83,1.74-6.31,2.59-9.86,2.59-10.22,0-17.86-5.77-17.86-16.42s7.04-16.48,17.08-16.48c10.71,0,16.9,6.62,16.9,17.14v1.14h0Z"/><polygon class="cls-3" points="126.83 51.42 115.88 51.42 115.88 1.5 126.83 1.5 126.83 51.42 126.83 51.42"/><polygon class="cls-3" points="144.38 51.42 133.44 51.42 133.44 1.5 144.38 1.5 144.38 51.42 144.38 51.42"/><path class="cls-4" d="M41.11,85.36c-3.05-2.54-6.95-4.24-11.01-4.24-3.05,0-7.12,1.78-7.12,5.34s4.49,5.17,7.37,6.1l4.24,1.27c8.9,2.63,15.76,7.12,15.76,17.45,0,6.35-1.53,12.88-6.61,17.2-5,4.24-11.69,6.02-18.13,6.02-8.05,0-15.93-2.71-22.45-7.29l7.12-13.39c4.15,3.64,9.07,6.61,14.74,6.61,3.9,0,8.05-1.95,8.05-6.44s-6.52-6.27-10.08-7.29c-10.42-2.97-17.28-5.68-17.28-18.05s9.24-21.44,22.03-21.44c6.44,0,14.32,2.03,20,5.25l-6.61,12.88h0Z"/><path class="cls-4" d="M71.02,111.12c0,5.51,3.64,9.74,9.91,9.74s9.91-4.24,9.91-9.74-3.64-9.83-9.91-9.83-9.91,4.49-9.91,9.83h0Zm.51-16.86h.17c2.8-4.32,8.05-6.36,13.13-6.36,12.96,0,21.94,10.85,21.94,23.3s-8.9,23.05-21.78,23.05c-5,0-10.17-1.78-13.47-5.59v25.84h-15.42V89.34h15.42v4.91h0Z"/><path class="cls-4" d="M128.13,132.81h-15.42v-43.47h15.42v43.47h0Zm.93-60.16c0,4.74-3.9,8.64-8.64,8.64s-8.64-3.9-8.64-8.64,3.9-8.64,8.64-8.64,8.64,3.9,8.64,8.64h0Z"/><path class="cls-4" d="M152.02,96.46h.17c2.97-5.34,8.05-7.71,14.07-7.71h2.97v14.83c-2.12-1.19-4.15-1.44-6.52-1.44-8.56,0-10.68,5.68-10.68,13.13v17.54h-15.42v-43.47h15.42v7.12h0Z"/><g class="cls-2"><path class="cls-4" d="M186.93,111.12c0,5.51,3.64,9.74,9.91,9.74s9.91-4.24,9.91-9.74-3.64-9.83-9.91-9.83-9.91,4.49-9.91,9.83h0Zm34.74,21.69h-15.42v-4.83h-.17c-2.71,4.32-8.05,6.27-13.13,6.27-12.88,0-21.94-10.76-21.94-23.21s8.9-23.13,21.78-23.13c5,0,10.25,1.86,13.47,5.68v-4.24h15.42v43.47h0Z"/><polygon class="cls-4" points="228.79 89.34 248.36 89.34 256.16 98.33 263.95 89.34 283.86 89.34 265.9 109.25 287.59 132.81 267.34 132.81 256.16 119.93 244.97 132.81 224.72 132.81 246.41 109.25 228.79 89.34 228.79 89.34"/></g></svg>