<?xml version="1.0" encoding="UTF-8"?><svg id="Layer_1" xmlns="http://www.w3.org/2000/svg" viewBox="0 0 232 135"><defs><style>.cls-1{fill:#e32b2f;}.cls-2{fill:#0c98b8;}</style></defs><path class="cls-1" d="M27.55,18.58c-2.14-1.79-4.88-2.98-7.74-2.98-2.14,0-5,1.25-5,3.75s3.16,3.63,5.18,4.29l2.98,.89c6.25,1.85,11.08,5,11.08,12.27,0,4.47-1.07,9.05-4.65,12.09-3.51,2.98-8.22,4.23-12.75,4.23-5.66,0-11.2-1.91-15.78-5.12l5-9.41c2.92,2.56,6.37,4.65,10.36,4.65,2.74,0,5.66-1.37,5.66-4.53s-4.59-4.41-7.09-5.12c-7.33-2.08-12.15-3.99-12.15-12.69S9.15,5.84,18.14,5.84c4.53,0,10.07,1.43,14.06,3.69l-4.65,9.05h0Z"/><path class="cls-1" d="M49.59,2.5V25.25h.12c2.5-3.34,5.54-4.88,9.77-4.88,7.74,0,11.5,5.12,11.5,12.87v18.7h-10.84v-15.66c0-3.57-.54-7.27-4.88-7.27s-5.66,3.69-5.66,7.27v15.66h-10.84V2.5h10.84Z"/><path class="cls-1" d="M98.84,32.22c-.54-2.92-3.22-4.82-6.14-4.82-3.16,0-5.78,1.67-6.43,4.82h12.57Zm10.07,6.25h-22.81c0,4.41,2.32,6.79,6.79,6.79,2.32,0,3.99-.77,5.18-2.8h10.42c-.83,3.57-2.98,6.2-5.78,7.92-2.8,1.73-6.25,2.56-9.77,2.56-10.13,0-17.69-5.72-17.69-16.26s6.97-16.32,16.92-16.32c10.6,0,16.74,6.55,16.74,16.98v1.13h0Z"/><polygon class="cls-1" points="124.09 51.94 113.25 51.94 113.25 2.5 124.09 2.5 124.09 51.94 124.09 51.94"/><polygon class="cls-1" points="141.48 51.94 130.64 51.94 130.64 2.5 141.48 2.5 141.48 51.94 141.48 51.94"/><polygon class="cls-2" points="31.59 131.05 14.86 131.05 14.86 80.87 1.04 80.87 1.04 66.7 45.41 66.7 45.41 80.87 31.59 80.87 31.59 131.05 31.59 131.05"/><path class="cls-2" d="M73.67,102.8c-.77-4.18-4.61-6.91-8.79-6.91-4.52,0-8.28,2.39-9.22,6.91h18.01Zm14.42,8.96H55.4c0,6.31,3.33,9.73,9.73,9.73,3.33,0,5.72-1.11,7.42-4.01h14.94c-1.19,5.12-4.27,8.88-8.28,11.35-4.01,2.47-8.96,3.67-14,3.67-14.51,0-25.35-8.19-25.35-23.3s9.99-23.38,24.24-23.38c15.19,0,23.98,9.39,23.98,24.32v1.62h0Z"/><polygon class="cls-2" points="109.85 131.05 94.32 131.05 94.32 60.21 109.85 60.21 109.85 131.05 109.85 131.05"/><polygon class="cls-2" points="133.92 131.05 118.39 131.05 118.39 60.21 133.92 60.21 133.92 131.05 133.92 131.05"/><path class="cls-2" d="M157.73,87.27v23.38c0,5.55,1.36,9.47,7.77,9.47s7.77-3.93,7.77-9.47v-23.38h15.53v26.37c0,14.42-10.16,18.86-23.3,18.86s-23.3-4.44-23.3-18.86v-26.37h15.53Z"/><path class="cls-2" d="M224.64,98.53c-2.39-1.28-5.72-2.13-8.36-2.13-1.79,0-4.86,.77-4.86,2.99,0,2.99,4.86,3.41,7,3.84,7.26,1.45,12.72,4.87,12.72,12.97,0,11.52-10.5,16.3-20.65,16.3-6.23,0-12.38-1.79-17.67-5.04l5.63-10.84c3.16,2.22,8.45,4.44,12.29,4.44,1.96,0,4.87-.94,4.87-3.33,0-3.41-4.87-3.58-9.73-4.86-4.86-1.28-9.73-3.67-9.73-11.52,0-10.75,9.73-15.53,19.29-15.53,4.95,0,9.9,.77,14.42,2.82l-5.21,9.9h0Z"/></svg>