<?xml version="1.0" encoding="UTF-8"?><svg id="Layer_1" xmlns="http://www.w3.org/2000/svg" viewBox="0 0 260 135"><defs><style>.cls-1{fill:#ed1c24;}.cls-2{fill:#7c3a00;}</style></defs><polygon class="cls-2" points="32.41 131.04 15.54 131.04 15.54 80.41 1.59 80.41 1.59 66.12 46.36 66.12 46.36 80.41 32.41 80.41 32.41 131.04 32.41 131.04"/><path class="cls-2" d="M57.29,108.99c0,5.6,3.7,9.9,10.07,9.9s10.07-4.31,10.07-9.9-3.7-9.99-10.07-9.99-10.07,4.56-10.07,9.99h0Zm36.68,0c0,14.98-12.4,23.51-26.6,23.51s-26.6-8.44-26.6-23.51,12.4-23.59,26.6-23.59,26.6,8.52,26.6,23.59h0Z"/><path class="cls-2" d="M115.41,92.55h.17c3.62-5.34,8.01-7.14,14.12-7.14,11.88,0,16.62,7.49,16.62,18.34v27.29h-15.67v-21.52c0-4.22,.69-11.62-7.06-11.62-6.37,0-8.18,4.73-8.18,10.24v22.9h-15.67v-44.17h15.67v5.68h0Z"/><path class="cls-2" d="M170.6,92.55h.17c3.62-5.34,8.01-7.14,14.12-7.14,11.88,0,16.62,7.49,16.62,18.34v27.29h-15.67v-21.52c0-4.22,.69-11.62-7.06-11.62-6.37,0-8.18,4.73-8.18,10.24v22.9h-15.67v-44.17h15.67v5.68h0Z"/><path class="cls-2" d="M223.12,108.99c0,5.6,3.7,9.9,10.07,9.9s10.07-4.31,10.07-9.9-3.7-9.99-10.07-9.99-10.07,4.56-10.07,9.99h0Zm35.3,22.04h-15.67v-4.91h-.17c-2.75,4.39-8.18,6.37-13.34,6.37-13.09,0-22.3-10.93-22.3-23.59s9.04-23.51,22.13-23.51c5.08,0,10.42,1.89,13.69,5.77v-4.3h15.67v44.17h0Z"/><path class="cls-1" d="M28.07,18.47c-2.13-1.77-4.85-2.96-7.69-2.96-2.13,0-4.97,1.24-4.97,3.73s3.13,3.61,5.15,4.26l2.96,.89c6.21,1.83,11,4.97,11,12.18,0,4.44-1.06,8.99-4.61,12.01-3.49,2.96-8.16,4.2-12.66,4.2-5.62,0-11.12-1.89-15.67-5.09l4.97-9.34c2.9,2.54,6.33,4.61,10.29,4.61,2.72,0,5.62-1.36,5.62-4.49s-4.55-4.38-7.04-5.09c-7.27-2.07-12.06-3.96-12.06-12.6S9.79,5.81,18.73,5.81c4.49,0,9.99,1.42,13.96,3.67l-4.61,8.99h0Z"/><path class="cls-1" d="M49.95,2.5V25.09h.12c2.48-3.31,5.5-4.85,9.7-4.85,7.69,0,11.41,5.09,11.41,12.77v18.57h-10.76v-15.55c0-3.55-.53-7.22-4.85-7.22s-5.62,3.67-5.62,7.22v15.55h-10.76V2.5h10.76Z"/><path class="cls-1" d="M98.85,32.01c-.53-2.9-3.19-4.79-6.09-4.79-3.13,0-5.74,1.66-6.39,4.79h12.48Zm9.99,6.21h-22.65c0,4.38,2.31,6.74,6.74,6.74,2.31,0,3.96-.77,5.15-2.78h10.35c-.83,3.55-2.96,6.15-5.74,7.87-2.78,1.72-6.21,2.54-9.7,2.54-10.05,0-17.56-5.68-17.56-16.15s6.92-16.2,16.8-16.2c10.53,0,16.62,6.51,16.62,16.86v1.12h0Z"/><polygon class="cls-1" points="123.92 51.59 113.15 51.59 113.15 2.5 123.92 2.5 123.92 51.59 123.92 51.59"/><polygon class="cls-1" points="141.18 51.59 130.42 51.59 130.42 2.5 141.18 2.5 141.18 51.59 141.18 51.59"/></svg>