<?xml version="1.0" encoding="UTF-8"?><svg id="Layer_1" xmlns="http://www.w3.org/2000/svg" viewBox="0 0 255 135"><defs><style>.cls-1{fill:#e32b2f;}.cls-2{fill:#0c98b8;}</style></defs><polygon class="cls-2" points="34.81 131.03 17.86 131.03 17.86 80.2 3.86 80.2 3.86 65.85 48.81 65.85 48.81 80.2 34.81 80.2 34.81 131.03 34.81 131.03"/><path class="cls-2" d="M64.89,86.68v23.69c0,5.62,1.38,9.6,7.87,9.6s7.87-3.98,7.87-9.6v-23.69h15.73v26.71c0,14.61-10.29,19.11-23.6,19.11s-23.6-4.5-23.6-19.11v-26.71h15.73Z"/><path class="cls-2" d="M120.4,93.94h.17c3.03-5.45,8.21-7.87,14.35-7.87h3.03v15.13c-2.16-1.21-4.24-1.47-6.66-1.47-8.73,0-10.89,5.79-10.89,13.4v17.89h-15.73v-44.35h15.73v7.26h0Z"/><path class="cls-2" d="M157.66,108.9c0,5.62,3.72,9.94,10.11,9.94s10.11-4.32,10.11-9.94-3.72-10.03-10.11-10.03-10.11,4.58-10.11,10.03h0Zm-15.22-49.62h15.73v31.73c3.37-3.89,8.65-5.79,13.75-5.79,13.14,0,22.22,10.89,22.22,23.6s-9.16,23.69-22.39,23.69c-5.19,0-10.55-1.99-13.4-6.4h-.17v4.93h-15.73V59.28h0Z"/><path class="cls-2" d="M215.67,108.9c0,5.62,3.72,9.94,10.12,9.94s10.11-4.32,10.11-9.94-3.72-10.03-10.11-10.03-10.12,4.58-10.12,10.03h0Zm36.83,0c0,15.04-12.45,23.6-26.71,23.6s-26.71-8.47-26.71-23.6,12.45-23.69,26.71-23.69,26.71,8.56,26.71,23.69h0Z"/><path class="cls-1" d="M29.02,18.48c-2.13-1.78-4.85-2.96-7.7-2.96-2.13,0-4.97,1.24-4.97,3.73s3.14,3.61,5.15,4.26l2.96,.89c6.22,1.84,11.01,4.97,11.01,12.19,0,4.44-1.07,9-4.62,12.02-3.49,2.96-8.17,4.2-12.67,4.2-5.62,0-11.13-1.89-15.69-5.09l4.97-9.35c2.9,2.55,6.33,4.62,10.3,4.62,2.72,0,5.62-1.36,5.62-4.5s-4.56-4.38-7.04-5.09c-7.28-2.07-12.08-3.97-12.08-12.61S10.73,5.82,19.67,5.82c4.5,0,10,1.42,13.97,3.67l-4.62,9h0Z"/><path class="cls-1" d="M50.92,2.5V25.11h.12c2.49-3.32,5.5-4.85,9.71-4.85,7.7,0,11.42,5.09,11.42,12.79v18.59h-10.77v-15.57c0-3.55-.53-7.22-4.85-7.22s-5.62,3.67-5.62,7.22v15.57h-10.77V2.5h10.77Z"/><path class="cls-1" d="M99.87,32.04c-.53-2.9-3.2-4.79-6.1-4.79-3.14,0-5.74,1.66-6.39,4.79h12.49Zm10,6.22h-22.67c0,4.38,2.31,6.75,6.75,6.75,2.31,0,3.97-.77,5.15-2.78h10.36c-.83,3.55-2.96,6.16-5.74,7.87-2.78,1.72-6.22,2.55-9.71,2.55-10.06,0-17.58-5.68-17.58-16.16s6.93-16.22,16.81-16.22c10.54,0,16.63,6.51,16.63,16.87v1.12h0Z"/><polygon class="cls-1" points="124.96 51.63 114.19 51.63 114.19 2.5 124.96 2.5 124.96 51.63 124.96 51.63"/><polygon class="cls-1" points="142.24 51.63 131.47 51.63 131.47 2.5 142.24 2.5 142.24 51.63 142.24 51.63"/></svg>