<?xml version="1.0" encoding="UTF-8"?><svg id="Layer_1" xmlns="http://www.w3.org/2000/svg" viewBox="0 0 310 90"><defs><style>.cls-1{fill:#005596;}.cls-2{fill:#ffcd00;}.cls-3{fill:#e1251b;fill-rule:evenodd;}.cls-4{fill:none;stroke:#fff;stroke-miterlimit:40;stroke-width:2.44px;}</style></defs><path class="cls-1" d="M122.3,32.4c-.75-.63-1.72-1.05-2.72-1.05-.75,0-1.76,.44-1.76,1.32s1.11,1.28,1.82,1.51l1.05,.31c2.2,.65,3.89,1.76,3.89,4.31,0,1.57-.38,3.18-1.63,4.25-1.23,1.05-2.89,1.49-4.48,1.49-1.99,0-3.93-.67-5.55-1.8l1.76-3.31c1.03,.9,2.24,1.63,3.64,1.63,.96,0,1.99-.48,1.99-1.59s-1.61-1.55-2.49-1.8c-2.57-.73-4.27-1.4-4.27-4.46s2.28-5.29,5.44-5.29c1.59,0,3.54,.5,4.94,1.3l-1.63,3.18Z"/><path class="cls-1" d="M130.15,26.75v8h.04c.88-1.17,1.95-1.72,3.43-1.72,2.72,0,4.04,1.8,4.04,4.52v6.57h-3.81v-5.5c0-1.26-.19-2.55-1.72-2.55s-1.99,1.3-1.99,2.55v5.5h-3.81V26.75h3.81Z"/><path class="cls-1" d="M151.1,39.39h-8.02c0,1.55,.82,2.39,2.39,2.39,.82,0,1.4-.27,1.82-.98h3.66c-.61,2.53-3.01,3.68-5.46,3.68-3.56,0-6.22-2.01-6.22-5.71s2.45-5.74,5.94-5.74c3.73,0,5.88,2.3,5.88,5.97v.4Zm-3.54-2.2c-.19-1.03-1.13-1.7-2.16-1.7-1.11,0-2.03,.59-2.26,1.7h4.42Z"/><rect class="cls-1" x="152.74" y="26.75" width="3.81" height="17.37"/><rect class="cls-1" x="158.95" y="26.75" width="3.81" height="17.37"/><polygon class="cls-1" points="176.43 40.64 181.35 40.64 181.35 44.12 172.33 44.12 172.33 28.34 176.43 28.34 176.43 40.64"/><path class="cls-1" d="M186.25,33.38v5.74c0,1.36,.33,2.32,1.9,2.32s1.9-.96,1.9-2.32v-5.74h3.81v6.47c0,3.54-2.49,4.63-5.71,4.63s-5.71-1.09-5.71-4.63v-6.47h3.81Z"/><path class="cls-1" d="M196.06,26.75h3.81v7.68c.82-.94,2.09-1.4,3.33-1.4,3.18,0,5.38,2.64,5.38,5.71s-2.22,5.73-5.42,5.73c-1.26,0-2.55-.48-3.24-1.55h-.04v1.19h-3.81V26.75Zm3.68,12.01c0,1.36,.9,2.41,2.45,2.41s2.45-1.05,2.45-2.41-.9-2.43-2.45-2.43-2.45,1.11-2.45,2.43"/><path class="cls-1" d="M214.17,35.14h.04c.73-1.32,1.99-1.91,3.47-1.91h.73v3.66c-.52-.29-1.03-.35-1.61-.35-2.11,0-2.64,1.4-2.64,3.24v4.33h-3.81v-10.74h3.81v1.76Z"/><path class="cls-1" d="M223.78,29.26c0,1.17-.96,2.14-2.13,2.14s-2.14-.96-2.14-2.14,.96-2.13,2.14-2.13,2.13,.96,2.13,2.13m-.23,14.86h-3.81v-10.74h3.81v10.74Z"/><path class="cls-1" d="M233.7,36.88c-.57-.42-1.23-.75-1.97-.75-1.46,0-2.62,1.13-2.62,2.62s1.11,2.64,2.68,2.64c.67,0,1.4-.27,1.91-.73v3.22c-.84,.42-1.76,.61-2.68,.61-3.18,0-5.84-2.36-5.84-5.61,0-3.45,2.64-5.84,6.01-5.84,.88,0,1.76,.21,2.51,.63v3.22Z"/><path class="cls-1" d="M247.7,44.12h-3.81v-1.19h-.04c-.67,1.07-1.99,1.55-3.24,1.55-3.18,0-5.42-2.66-5.42-5.73s2.2-5.71,5.38-5.71c1.23,0,2.53,.46,3.33,1.4v-1.05h3.81v10.74Zm-8.58-5.36c0,1.36,.9,2.41,2.45,2.41s2.45-1.05,2.45-2.41-.9-2.43-2.45-2.43-2.45,1.11-2.45,2.43"/><path class="cls-1" d="M253.94,34.76h.04c.88-1.3,1.95-1.74,3.43-1.74,2.89,0,4.04,1.82,4.04,4.46v6.63h-3.81v-5.23c0-1.03,.17-2.83-1.72-2.83-1.55,0-1.99,1.15-1.99,2.49v5.57h-3.81v-10.74h3.81v1.38Z"/><polygon class="cls-1" points="268.02 44.12 264.21 44.12 264.21 36.52 262.98 36.52 262.98 33.38 264.21 33.38 264.21 30.16 268.02 30.16 268.02 33.38 270.18 33.38 270.18 36.52 268.02 36.52 268.02 44.12"/><path class="cls-1" d="M278.38,36.15c-.59-.31-1.4-.52-2.05-.52-.44,0-1.19,.19-1.19,.73,0,.73,1.19,.84,1.72,.94,1.78,.36,3.12,1.19,3.12,3.18,0,2.83-2.57,4-5.07,4-1.53,0-3.03-.44-4.33-1.23l1.38-2.66c.77,.54,2.07,1.09,3.01,1.09,.48,0,1.19-.23,1.19-.82,0-.84-1.19-.88-2.39-1.19-1.19-.31-2.39-.9-2.39-2.83,0-2.64,2.39-3.81,4.73-3.81,1.21,0,2.43,.19,3.54,.69l-1.28,2.43Z"/><polygon class="cls-1" points="115.37 52.96 119.41 52.96 122.62 61.4 126.01 52.96 130.09 52.96 132.47 68.74 128.37 68.74 127.22 59.66 127.18 59.66 123.39 68.74 121.76 68.74 118.14 59.66 118.1 59.66 116.78 68.74 112.7 68.74 115.37 52.96"/><path class="cls-1" d="M145.77,68.74h-3.81v-1.19h-.04c-.67,1.07-1.99,1.55-3.24,1.55-3.18,0-5.42-2.66-5.42-5.74s2.2-5.71,5.38-5.71c1.23,0,2.53,.46,3.33,1.4v-1.05h3.81v10.74Zm-8.58-5.36c0,1.36,.9,2.41,2.45,2.41s2.45-1.05,2.45-2.41-.9-2.43-2.45-2.43-2.45,1.11-2.45,2.43"/><path class="cls-1" d="M155.94,61.5c-.57-.42-1.23-.75-1.97-.75-1.46,0-2.62,1.13-2.62,2.62s1.11,2.64,2.68,2.64c.67,0,1.4-.27,1.9-.73v3.22c-.84,.42-1.76,.61-2.68,.61-3.18,0-5.84-2.37-5.84-5.61,0-3.45,2.64-5.84,6.01-5.84,.88,0,1.76,.21,2.51,.63v3.22Z"/><path class="cls-1" d="M162.01,59.77h.04c.73-1.32,1.99-1.9,3.47-1.9h.73v3.66c-.52-.29-1.02-.36-1.61-.36-2.11,0-2.64,1.4-2.64,3.24v4.33h-3.81v-10.74h3.81v1.76Z"/><path class="cls-1" d="M179.34,63.39c0,3.64-3.01,5.71-6.47,5.71s-6.47-2.05-6.47-5.71,3.01-5.74,6.47-5.74,6.47,2.07,6.47,5.74m-8.92,0c0,1.36,.9,2.41,2.45,2.41s2.45-1.05,2.45-2.41-.9-2.43-2.45-2.43-2.45,1.11-2.45,2.43"/><path class="cls-1" d="M188.11,52.96h5.82c4.4,0,8.02,3.45,8.02,7.89s-3.64,7.89-8.02,7.89h-5.82v-15.78Zm4.1,12.31h.92c2.45,0,4.54-1.34,4.54-4.42,0-2.83-1.86-4.42-4.5-4.42h-.96v8.83Z"/><path class="cls-1" d="M207.7,53.88c0,1.17-.96,2.13-2.14,2.13s-2.13-.96-2.13-2.13,.96-2.14,2.13-2.14,2.14,.96,2.14,2.14m-.23,14.86h-3.81v-10.74h3.81v10.74Z"/><path class="cls-1" d="M216.98,60.77c-.59-.31-1.4-.52-2.05-.52-.44,0-1.19,.19-1.19,.73,0,.73,1.19,.84,1.72,.94,1.78,.36,3.12,1.19,3.12,3.18,0,2.82-2.57,4-5.07,4-1.53,0-3.03-.44-4.33-1.24l1.38-2.66c.77,.54,2.07,1.09,3.01,1.09,.48,0,1.19-.23,1.19-.82,0-.84-1.19-.88-2.39-1.19-1.19-.31-2.38-.9-2.38-2.83,0-2.64,2.38-3.81,4.73-3.81,1.21,0,2.43,.19,3.54,.69l-1.28,2.43Z"/><polygon class="cls-1" points="224.68 68.74 220.87 68.74 220.87 61.15 219.64 61.15 219.64 58.01 220.87 58.01 220.87 54.78 224.68 54.78 224.68 58.01 226.83 58.01 226.83 61.15 224.68 61.15 224.68 68.74"/><path class="cls-1" d="M231.75,59.77h.04c.73-1.32,1.99-1.9,3.47-1.9h.73v3.66c-.52-.29-1.03-.36-1.61-.36-2.11,0-2.64,1.4-2.64,3.24v4.33h-3.81v-10.74h3.81v1.76Z"/><path class="cls-1" d="M241.36,53.88c0,1.17-.96,2.13-2.13,2.13s-2.14-.96-2.14-2.13,.96-2.14,2.14-2.14,2.13,.96,2.13,2.14m-.23,14.86h-3.81v-10.74h3.81v10.74Z"/><path class="cls-1" d="M243.41,51.37h3.81v7.68c.82-.94,2.09-1.4,3.33-1.4,3.18,0,5.38,2.64,5.38,5.71s-2.22,5.74-5.42,5.74c-1.26,0-2.55-.48-3.24-1.55h-.04v1.19h-3.81v-17.37Zm3.68,12.01c0,1.36,.9,2.41,2.45,2.41s2.45-1.05,2.45-2.41-.9-2.43-2.45-2.43-2.45,1.11-2.45,2.43"/><path class="cls-1" d="M261.45,58.01v5.74c0,1.36,.34,2.32,1.91,2.32s1.9-.96,1.9-2.32v-5.74h3.81v6.47c0,3.54-2.49,4.63-5.71,4.63s-5.71-1.09-5.71-4.63v-6.47h3.81Z"/><polygon class="cls-1" points="275.56 68.74 271.75 68.74 271.75 61.15 270.52 61.15 270.52 58.01 271.75 58.01 271.75 54.78 275.56 54.78 275.56 58.01 277.72 58.01 277.72 61.15 275.56 61.15 275.56 68.74"/><path class="cls-1" d="M290.97,63.39c0,3.64-3.01,5.71-6.47,5.71s-6.47-2.05-6.47-5.71,3.01-5.74,6.47-5.74,6.47,2.07,6.47,5.74m-8.92,0c0,1.36,.9,2.41,2.45,2.41s2.45-1.05,2.45-2.41-.9-2.43-2.45-2.43-2.45,1.11-2.45,2.43"/><path class="cls-1" d="M296.39,59.77h.04c.73-1.32,1.99-1.9,3.47-1.9h.73v3.66c-.52-.29-1.03-.36-1.61-.36-2.11,0-2.64,1.4-2.64,3.24v4.33h-3.81v-10.74h3.81v1.76Z"/><path class="cls-4" d="M38.97,75.09H21.28l-1.64-13.11-10.73-7.8c-.47-2.29-.7-4.63-.7-6.97,0-19.24,15.62-34.86,34.86-34.86s34.86,15.62,34.86,34.86c0,2.34-.24,4.68-.7,6.97l-10.73,7.8-1.64,13.11h-17.69l-1.02,.74c-.89,.65-1.97,1-3.08,1s-2.18-.35-3.08-1l-1.02-.74Z"/><path class="cls-2" d="M38.97,75.09H21.28l-1.64-13.11-10.73-7.8c-.47-2.29-.7-4.63-.7-6.97,0-19.24,15.62-34.86,34.86-34.86s34.86,15.62,34.86,34.86c0,2.34-.24,4.68-.7,6.97l-10.73,7.8-1.64,13.11h-17.69l-1.02,.74c-.89,.65-1.97,1-3.08,1s-2.18-.35-3.08-1l-1.02-.74Z"/><path class="cls-3" d="M38.97,75.09H21.28l-1.64-13.11-10.73-7.8c-.47-2.29-.7-4.63-.7-6.97,0-19.24,15.62-34.86,34.86-34.86s34.86,15.62,34.86,34.86c0,2.34-.24,4.68-.7,6.97l-10.73,7.8-1.64,13.11h-17.69l-1.02,.74c-.89,.65-1.97,1-3.08,1s-2.18-.35-3.08-1l-1.02-.74Zm.55-6.1h-12.86l-1.3-10.39-10.59-7.7c-.31-1.21-.47-2.45-.47-3.69,0-2.08,.44-4.14,1.29-6.04l18.75,18.96-18.23-22.5c.72-2.92,2.3-5.55,4.55-7.55l16.34,28.2-14.48-30.88c1.87-2.49,4.49-4.33,7.46-5.25l9.99,35.01-7.3-36.45c2.22-1.25,4.73-1.91,7.28-1.91,.54,0,1.08,.03,1.61,.09l1.49,37.9,1.49-37.9c.53-.06,1.07-.09,1.61-.09,2.55,0,5.06,.66,7.28,1.91l-7.3,36.45,9.99-35.01c2.98,.92,5.59,2.76,7.46,5.25l-14.48,30.88,16.34-28.2c2.25,2,3.84,4.63,4.55,7.55l-18.23,22.5,18.75-18.96c.85,1.9,1.29,3.96,1.29,6.04,0,1.24-.16,2.49-.47,3.69l-10.59,7.7-1.3,10.39h-12.86l-1.9,1.38c-.48,.35-1.05,.53-1.64,.53s-1.16-.19-1.64-.53l-1.9-1.38Z"/></svg>